M48
; DRILL file {KiCad 5.1.8} date Thu Dec  3 14:21:07 2020
; FORMAT={-:-/ absolute / inch / decimal}
; #@! TF.CreationDate,2020-12-03T14:21:07+03:00
; #@! TF.GenerationSoftware,Kicad,Pcbnew,5.1.8
FMAT,2
INCH
T1C0.0157
T2C0.0394
%
G90
G05
T1
X5.8Y-4.0
X5.8Y-4.0725
X5.815Y-3.2425
X5.8221Y-3.7055
X5.8255Y-2.803
X5.8299Y-3.1393
X5.8299Y-3.2905
X5.842Y-3.5804
X5.846Y-3.44
X5.8485Y-3.6192
X5.8485Y-3.6763
X5.852Y-3.398
X5.8775Y-4.26
X5.894Y-3.396
X5.8975Y-4.0725
X5.9325Y-4.26
X5.9375Y-4.175
X5.945Y-4.0725
X5.9775Y-3.035
X5.9788Y-3.2515
X5.9875Y-3.455
X5.9875Y-4.175
X5.9895Y-3.1393
X5.992Y-3.624
X5.993Y-3.2141
X6.038Y-3.766
X6.048Y-3.312
X6.0616Y-3.534
X6.066Y-3.472
X6.0675Y-4.315
X6.08Y-2.7375
X6.0872Y-3.6305
X6.0875Y-3.715
X6.0908Y-3.5873
X6.1Y-2.785
X6.1031Y-3.4942
X6.1067Y-3.5513
X6.1173Y-3.2375
X6.1175Y-4.255
X6.135Y-2.9375
X6.1375Y-4.325
X6.1575Y-2.775
X6.1575Y-4.225
X6.1575Y-3.145
X6.1602Y-3.6342
X6.1713Y-3.5649
X6.1729Y-3.497
X6.1875Y-4.065
X6.19Y-2.94
X6.1975Y-3.705
X6.1975Y-3.835
X6.2075Y-3.775
X6.2112Y-3.5062
X6.2275Y-4.065
X6.2275Y-4.325
X6.2277Y-3.2375
X6.236Y-3.89
X6.2375Y-2.775
X6.2375Y-3.815
X6.2525Y-2.94
X6.2575Y-2.8732
X6.2592Y-3.201
X6.2765Y-3.1456
X6.3023Y-3.4925
X6.3075Y-4.325
X6.322Y-4.058
X6.3256Y-4.139
X6.3256Y-4.139
X6.3475Y-4.2425
X6.3485Y-3.6117
X6.365Y-4.058
X6.3675Y-4.325
X6.3798Y-3.4705
X6.3875Y-3.955
X6.3975Y-2.785
X6.3975Y-3.005
X6.4025Y-4.2425
X6.405Y-2.891
X6.4065Y-3.509
X6.4065Y-3.7093
X6.4075Y-3.055
X6.4175Y-4.305
X6.4239Y-3.7674
X6.4529Y-3.43
X6.46Y-3.2775
X6.4625Y-4.2425
X6.4629Y-3.5289
X6.4675Y-2.775
X6.4775Y-3.005
X6.4814Y-3.3264
X6.4875Y-3.055
X6.4875Y-4.295
X6.4927Y-3.6227
X6.5212Y-4.1737
X6.5427Y-3.6448
X6.5575Y-3.79
X6.5662Y-3.3913
X6.5925Y-4.115
X6.594Y-3.45
X6.5975Y-4.2
X6.598Y-3.514
X6.6115Y-2.9109
X6.6121Y-3.8829
X6.6125Y-3.925
X6.6256Y-2.8594
X6.6342Y-3.9903
X6.6457Y-3.7325
X6.6552Y-3.6125
X6.6626Y-3.6753
X6.67Y-3.77
X6.6737Y-3.9295
T2
X6.3275Y-4.4225
X6.4275Y-4.4225
X6.5275Y-4.4225
X6.73Y-2.72
X6.73Y-2.82
X6.73Y-2.92
X6.73Y-3.02
X6.73Y-3.12
X6.73Y-3.22
X6.73Y-3.32
X6.73Y-3.42
X6.73Y-3.52
X6.73Y-3.62
X6.73Y-3.72
X6.73Y-3.82
X6.73Y-3.92
X6.73Y-4.02
X6.73Y-4.12
X6.73Y-4.22
X6.73Y-4.32
X6.73Y-4.42
X5.72Y-2.72
X5.72Y-2.82
X5.72Y-2.92
X5.72Y-3.02
X5.72Y-3.12
X5.72Y-3.22
X5.72Y-3.32
X5.72Y-3.42
X5.72Y-3.52
X5.72Y-3.62
X5.72Y-3.72
X5.72Y-3.82
X5.72Y-3.92
X5.72Y-4.02
X5.72Y-4.12
X5.72Y-4.22
X5.72Y-4.32
X5.72Y-4.42
X5.9375Y-4.4225
X6.0375Y-4.4225
X6.1375Y-4.4225
T0
M30
