%TF.GenerationSoftware,KiCad,Pcbnew,5.1.8*%
%TF.CreationDate,2020-12-03T14:21:02+03:00*%
%TF.ProjectId,pss_mcu_pcb,7073735f-6d63-4755-9f70-63622e6b6963,rev?*%
%TF.SameCoordinates,Original*%
%TF.FileFunction,Paste,Bot*%
%TF.FilePolarity,Positive*%
%FSLAX46Y46*%
G04 Gerber Fmt 4.6, Leading zero omitted, Abs format (unit mm)*
G04 Created by KiCad (PCBNEW 5.1.8) date 2020-12-03 14:21:02*
%MOMM*%
%LPD*%
G01*
G04 APERTURE LIST*
G04 APERTURE END LIST*
%TO.C,U3*%
G36*
G01*
X162913000Y-78101000D02*
X162913000Y-78351000D01*
G75*
G02*
X162788000Y-78476000I-125000J0D01*
G01*
X161538000Y-78476000D01*
G75*
G02*
X161413000Y-78351000I0J125000D01*
G01*
X161413000Y-78101000D01*
G75*
G02*
X161538000Y-77976000I125000J0D01*
G01*
X162788000Y-77976000D01*
G75*
G02*
X162913000Y-78101000I0J-125000D01*
G01*
G37*
G36*
G01*
X162913000Y-78901000D02*
X162913000Y-79151000D01*
G75*
G02*
X162788000Y-79276000I-125000J0D01*
G01*
X161538000Y-79276000D01*
G75*
G02*
X161413000Y-79151000I0J125000D01*
G01*
X161413000Y-78901000D01*
G75*
G02*
X161538000Y-78776000I125000J0D01*
G01*
X162788000Y-78776000D01*
G75*
G02*
X162913000Y-78901000I0J-125000D01*
G01*
G37*
G36*
G01*
X162913000Y-79701000D02*
X162913000Y-79951000D01*
G75*
G02*
X162788000Y-80076000I-125000J0D01*
G01*
X161538000Y-80076000D01*
G75*
G02*
X161413000Y-79951000I0J125000D01*
G01*
X161413000Y-79701000D01*
G75*
G02*
X161538000Y-79576000I125000J0D01*
G01*
X162788000Y-79576000D01*
G75*
G02*
X162913000Y-79701000I0J-125000D01*
G01*
G37*
G36*
G01*
X162913000Y-80501000D02*
X162913000Y-80751000D01*
G75*
G02*
X162788000Y-80876000I-125000J0D01*
G01*
X161538000Y-80876000D01*
G75*
G02*
X161413000Y-80751000I0J125000D01*
G01*
X161413000Y-80501000D01*
G75*
G02*
X161538000Y-80376000I125000J0D01*
G01*
X162788000Y-80376000D01*
G75*
G02*
X162913000Y-80501000I0J-125000D01*
G01*
G37*
G36*
G01*
X162913000Y-81301000D02*
X162913000Y-81551000D01*
G75*
G02*
X162788000Y-81676000I-125000J0D01*
G01*
X161538000Y-81676000D01*
G75*
G02*
X161413000Y-81551000I0J125000D01*
G01*
X161413000Y-81301000D01*
G75*
G02*
X161538000Y-81176000I125000J0D01*
G01*
X162788000Y-81176000D01*
G75*
G02*
X162913000Y-81301000I0J-125000D01*
G01*
G37*
G36*
G01*
X162913000Y-82101000D02*
X162913000Y-82351000D01*
G75*
G02*
X162788000Y-82476000I-125000J0D01*
G01*
X161538000Y-82476000D01*
G75*
G02*
X161413000Y-82351000I0J125000D01*
G01*
X161413000Y-82101000D01*
G75*
G02*
X161538000Y-81976000I125000J0D01*
G01*
X162788000Y-81976000D01*
G75*
G02*
X162913000Y-82101000I0J-125000D01*
G01*
G37*
G36*
G01*
X162913000Y-82901000D02*
X162913000Y-83151000D01*
G75*
G02*
X162788000Y-83276000I-125000J0D01*
G01*
X161538000Y-83276000D01*
G75*
G02*
X161413000Y-83151000I0J125000D01*
G01*
X161413000Y-82901000D01*
G75*
G02*
X161538000Y-82776000I125000J0D01*
G01*
X162788000Y-82776000D01*
G75*
G02*
X162913000Y-82901000I0J-125000D01*
G01*
G37*
G36*
G01*
X162913000Y-83701000D02*
X162913000Y-83951000D01*
G75*
G02*
X162788000Y-84076000I-125000J0D01*
G01*
X161538000Y-84076000D01*
G75*
G02*
X161413000Y-83951000I0J125000D01*
G01*
X161413000Y-83701000D01*
G75*
G02*
X161538000Y-83576000I125000J0D01*
G01*
X162788000Y-83576000D01*
G75*
G02*
X162913000Y-83701000I0J-125000D01*
G01*
G37*
G36*
G01*
X161038000Y-84576000D02*
X161038000Y-85826000D01*
G75*
G02*
X160913000Y-85951000I-125000J0D01*
G01*
X160663000Y-85951000D01*
G75*
G02*
X160538000Y-85826000I0J125000D01*
G01*
X160538000Y-84576000D01*
G75*
G02*
X160663000Y-84451000I125000J0D01*
G01*
X160913000Y-84451000D01*
G75*
G02*
X161038000Y-84576000I0J-125000D01*
G01*
G37*
G36*
G01*
X160238000Y-84576000D02*
X160238000Y-85826000D01*
G75*
G02*
X160113000Y-85951000I-125000J0D01*
G01*
X159863000Y-85951000D01*
G75*
G02*
X159738000Y-85826000I0J125000D01*
G01*
X159738000Y-84576000D01*
G75*
G02*
X159863000Y-84451000I125000J0D01*
G01*
X160113000Y-84451000D01*
G75*
G02*
X160238000Y-84576000I0J-125000D01*
G01*
G37*
G36*
G01*
X159438000Y-84576000D02*
X159438000Y-85826000D01*
G75*
G02*
X159313000Y-85951000I-125000J0D01*
G01*
X159063000Y-85951000D01*
G75*
G02*
X158938000Y-85826000I0J125000D01*
G01*
X158938000Y-84576000D01*
G75*
G02*
X159063000Y-84451000I125000J0D01*
G01*
X159313000Y-84451000D01*
G75*
G02*
X159438000Y-84576000I0J-125000D01*
G01*
G37*
G36*
G01*
X158638000Y-84576000D02*
X158638000Y-85826000D01*
G75*
G02*
X158513000Y-85951000I-125000J0D01*
G01*
X158263000Y-85951000D01*
G75*
G02*
X158138000Y-85826000I0J125000D01*
G01*
X158138000Y-84576000D01*
G75*
G02*
X158263000Y-84451000I125000J0D01*
G01*
X158513000Y-84451000D01*
G75*
G02*
X158638000Y-84576000I0J-125000D01*
G01*
G37*
G36*
G01*
X157838000Y-84576000D02*
X157838000Y-85826000D01*
G75*
G02*
X157713000Y-85951000I-125000J0D01*
G01*
X157463000Y-85951000D01*
G75*
G02*
X157338000Y-85826000I0J125000D01*
G01*
X157338000Y-84576000D01*
G75*
G02*
X157463000Y-84451000I125000J0D01*
G01*
X157713000Y-84451000D01*
G75*
G02*
X157838000Y-84576000I0J-125000D01*
G01*
G37*
G36*
G01*
X157038000Y-84576000D02*
X157038000Y-85826000D01*
G75*
G02*
X156913000Y-85951000I-125000J0D01*
G01*
X156663000Y-85951000D01*
G75*
G02*
X156538000Y-85826000I0J125000D01*
G01*
X156538000Y-84576000D01*
G75*
G02*
X156663000Y-84451000I125000J0D01*
G01*
X156913000Y-84451000D01*
G75*
G02*
X157038000Y-84576000I0J-125000D01*
G01*
G37*
G36*
G01*
X156238000Y-84576000D02*
X156238000Y-85826000D01*
G75*
G02*
X156113000Y-85951000I-125000J0D01*
G01*
X155863000Y-85951000D01*
G75*
G02*
X155738000Y-85826000I0J125000D01*
G01*
X155738000Y-84576000D01*
G75*
G02*
X155863000Y-84451000I125000J0D01*
G01*
X156113000Y-84451000D01*
G75*
G02*
X156238000Y-84576000I0J-125000D01*
G01*
G37*
G36*
G01*
X155438000Y-84576000D02*
X155438000Y-85826000D01*
G75*
G02*
X155313000Y-85951000I-125000J0D01*
G01*
X155063000Y-85951000D01*
G75*
G02*
X154938000Y-85826000I0J125000D01*
G01*
X154938000Y-84576000D01*
G75*
G02*
X155063000Y-84451000I125000J0D01*
G01*
X155313000Y-84451000D01*
G75*
G02*
X155438000Y-84576000I0J-125000D01*
G01*
G37*
G36*
G01*
X154563000Y-83701000D02*
X154563000Y-83951000D01*
G75*
G02*
X154438000Y-84076000I-125000J0D01*
G01*
X153188000Y-84076000D01*
G75*
G02*
X153063000Y-83951000I0J125000D01*
G01*
X153063000Y-83701000D01*
G75*
G02*
X153188000Y-83576000I125000J0D01*
G01*
X154438000Y-83576000D01*
G75*
G02*
X154563000Y-83701000I0J-125000D01*
G01*
G37*
G36*
G01*
X154563000Y-82901000D02*
X154563000Y-83151000D01*
G75*
G02*
X154438000Y-83276000I-125000J0D01*
G01*
X153188000Y-83276000D01*
G75*
G02*
X153063000Y-83151000I0J125000D01*
G01*
X153063000Y-82901000D01*
G75*
G02*
X153188000Y-82776000I125000J0D01*
G01*
X154438000Y-82776000D01*
G75*
G02*
X154563000Y-82901000I0J-125000D01*
G01*
G37*
G36*
G01*
X154563000Y-82101000D02*
X154563000Y-82351000D01*
G75*
G02*
X154438000Y-82476000I-125000J0D01*
G01*
X153188000Y-82476000D01*
G75*
G02*
X153063000Y-82351000I0J125000D01*
G01*
X153063000Y-82101000D01*
G75*
G02*
X153188000Y-81976000I125000J0D01*
G01*
X154438000Y-81976000D01*
G75*
G02*
X154563000Y-82101000I0J-125000D01*
G01*
G37*
G36*
G01*
X154563000Y-81301000D02*
X154563000Y-81551000D01*
G75*
G02*
X154438000Y-81676000I-125000J0D01*
G01*
X153188000Y-81676000D01*
G75*
G02*
X153063000Y-81551000I0J125000D01*
G01*
X153063000Y-81301000D01*
G75*
G02*
X153188000Y-81176000I125000J0D01*
G01*
X154438000Y-81176000D01*
G75*
G02*
X154563000Y-81301000I0J-125000D01*
G01*
G37*
G36*
G01*
X154563000Y-80501000D02*
X154563000Y-80751000D01*
G75*
G02*
X154438000Y-80876000I-125000J0D01*
G01*
X153188000Y-80876000D01*
G75*
G02*
X153063000Y-80751000I0J125000D01*
G01*
X153063000Y-80501000D01*
G75*
G02*
X153188000Y-80376000I125000J0D01*
G01*
X154438000Y-80376000D01*
G75*
G02*
X154563000Y-80501000I0J-125000D01*
G01*
G37*
G36*
G01*
X154563000Y-79701000D02*
X154563000Y-79951000D01*
G75*
G02*
X154438000Y-80076000I-125000J0D01*
G01*
X153188000Y-80076000D01*
G75*
G02*
X153063000Y-79951000I0J125000D01*
G01*
X153063000Y-79701000D01*
G75*
G02*
X153188000Y-79576000I125000J0D01*
G01*
X154438000Y-79576000D01*
G75*
G02*
X154563000Y-79701000I0J-125000D01*
G01*
G37*
G36*
G01*
X154563000Y-78901000D02*
X154563000Y-79151000D01*
G75*
G02*
X154438000Y-79276000I-125000J0D01*
G01*
X153188000Y-79276000D01*
G75*
G02*
X153063000Y-79151000I0J125000D01*
G01*
X153063000Y-78901000D01*
G75*
G02*
X153188000Y-78776000I125000J0D01*
G01*
X154438000Y-78776000D01*
G75*
G02*
X154563000Y-78901000I0J-125000D01*
G01*
G37*
G36*
G01*
X154563000Y-78101000D02*
X154563000Y-78351000D01*
G75*
G02*
X154438000Y-78476000I-125000J0D01*
G01*
X153188000Y-78476000D01*
G75*
G02*
X153063000Y-78351000I0J125000D01*
G01*
X153063000Y-78101000D01*
G75*
G02*
X153188000Y-77976000I125000J0D01*
G01*
X154438000Y-77976000D01*
G75*
G02*
X154563000Y-78101000I0J-125000D01*
G01*
G37*
G36*
G01*
X155438000Y-76226000D02*
X155438000Y-77476000D01*
G75*
G02*
X155313000Y-77601000I-125000J0D01*
G01*
X155063000Y-77601000D01*
G75*
G02*
X154938000Y-77476000I0J125000D01*
G01*
X154938000Y-76226000D01*
G75*
G02*
X155063000Y-76101000I125000J0D01*
G01*
X155313000Y-76101000D01*
G75*
G02*
X155438000Y-76226000I0J-125000D01*
G01*
G37*
G36*
G01*
X156238000Y-76226000D02*
X156238000Y-77476000D01*
G75*
G02*
X156113000Y-77601000I-125000J0D01*
G01*
X155863000Y-77601000D01*
G75*
G02*
X155738000Y-77476000I0J125000D01*
G01*
X155738000Y-76226000D01*
G75*
G02*
X155863000Y-76101000I125000J0D01*
G01*
X156113000Y-76101000D01*
G75*
G02*
X156238000Y-76226000I0J-125000D01*
G01*
G37*
G36*
G01*
X157038000Y-76226000D02*
X157038000Y-77476000D01*
G75*
G02*
X156913000Y-77601000I-125000J0D01*
G01*
X156663000Y-77601000D01*
G75*
G02*
X156538000Y-77476000I0J125000D01*
G01*
X156538000Y-76226000D01*
G75*
G02*
X156663000Y-76101000I125000J0D01*
G01*
X156913000Y-76101000D01*
G75*
G02*
X157038000Y-76226000I0J-125000D01*
G01*
G37*
G36*
G01*
X157838000Y-76226000D02*
X157838000Y-77476000D01*
G75*
G02*
X157713000Y-77601000I-125000J0D01*
G01*
X157463000Y-77601000D01*
G75*
G02*
X157338000Y-77476000I0J125000D01*
G01*
X157338000Y-76226000D01*
G75*
G02*
X157463000Y-76101000I125000J0D01*
G01*
X157713000Y-76101000D01*
G75*
G02*
X157838000Y-76226000I0J-125000D01*
G01*
G37*
G36*
G01*
X158638000Y-76226000D02*
X158638000Y-77476000D01*
G75*
G02*
X158513000Y-77601000I-125000J0D01*
G01*
X158263000Y-77601000D01*
G75*
G02*
X158138000Y-77476000I0J125000D01*
G01*
X158138000Y-76226000D01*
G75*
G02*
X158263000Y-76101000I125000J0D01*
G01*
X158513000Y-76101000D01*
G75*
G02*
X158638000Y-76226000I0J-125000D01*
G01*
G37*
G36*
G01*
X159438000Y-76226000D02*
X159438000Y-77476000D01*
G75*
G02*
X159313000Y-77601000I-125000J0D01*
G01*
X159063000Y-77601000D01*
G75*
G02*
X158938000Y-77476000I0J125000D01*
G01*
X158938000Y-76226000D01*
G75*
G02*
X159063000Y-76101000I125000J0D01*
G01*
X159313000Y-76101000D01*
G75*
G02*
X159438000Y-76226000I0J-125000D01*
G01*
G37*
G36*
G01*
X160238000Y-76226000D02*
X160238000Y-77476000D01*
G75*
G02*
X160113000Y-77601000I-125000J0D01*
G01*
X159863000Y-77601000D01*
G75*
G02*
X159738000Y-77476000I0J125000D01*
G01*
X159738000Y-76226000D01*
G75*
G02*
X159863000Y-76101000I125000J0D01*
G01*
X160113000Y-76101000D01*
G75*
G02*
X160238000Y-76226000I0J-125000D01*
G01*
G37*
G36*
G01*
X161038000Y-76226000D02*
X161038000Y-77476000D01*
G75*
G02*
X160913000Y-77601000I-125000J0D01*
G01*
X160663000Y-77601000D01*
G75*
G02*
X160538000Y-77476000I0J125000D01*
G01*
X160538000Y-76226000D01*
G75*
G02*
X160663000Y-76101000I125000J0D01*
G01*
X160913000Y-76101000D01*
G75*
G02*
X161038000Y-76226000I0J-125000D01*
G01*
G37*
%TD*%
%TO.C,C2*%
G36*
G01*
X162924500Y-75695000D02*
X162449500Y-75695000D01*
G75*
G02*
X162212000Y-75457500I0J237500D01*
G01*
X162212000Y-74857500D01*
G75*
G02*
X162449500Y-74620000I237500J0D01*
G01*
X162924500Y-74620000D01*
G75*
G02*
X163162000Y-74857500I0J-237500D01*
G01*
X163162000Y-75457500D01*
G75*
G02*
X162924500Y-75695000I-237500J0D01*
G01*
G37*
G36*
G01*
X162924500Y-73970000D02*
X162449500Y-73970000D01*
G75*
G02*
X162212000Y-73732500I0J237500D01*
G01*
X162212000Y-73132500D01*
G75*
G02*
X162449500Y-72895000I237500J0D01*
G01*
X162924500Y-72895000D01*
G75*
G02*
X163162000Y-73132500I0J-237500D01*
G01*
X163162000Y-73732500D01*
G75*
G02*
X162924500Y-73970000I-237500J0D01*
G01*
G37*
%TD*%
%TO.C,C3*%
G36*
G01*
X148968000Y-68563500D02*
X148968000Y-68088500D01*
G75*
G02*
X149205500Y-67851000I237500J0D01*
G01*
X149805500Y-67851000D01*
G75*
G02*
X150043000Y-68088500I0J-237500D01*
G01*
X150043000Y-68563500D01*
G75*
G02*
X149805500Y-68801000I-237500J0D01*
G01*
X149205500Y-68801000D01*
G75*
G02*
X148968000Y-68563500I0J237500D01*
G01*
G37*
G36*
G01*
X150693000Y-68563500D02*
X150693000Y-68088500D01*
G75*
G02*
X150930500Y-67851000I237500J0D01*
G01*
X151530500Y-67851000D01*
G75*
G02*
X151768000Y-68088500I0J-237500D01*
G01*
X151768000Y-68563500D01*
G75*
G02*
X151530500Y-68801000I-237500J0D01*
G01*
X150930500Y-68801000D01*
G75*
G02*
X150693000Y-68563500I0J237500D01*
G01*
G37*
%TD*%
%TO.C,C4*%
G36*
G01*
X164639000Y-73970000D02*
X164164000Y-73970000D01*
G75*
G02*
X163926500Y-73732500I0J237500D01*
G01*
X163926500Y-73132500D01*
G75*
G02*
X164164000Y-72895000I237500J0D01*
G01*
X164639000Y-72895000D01*
G75*
G02*
X164876500Y-73132500I0J-237500D01*
G01*
X164876500Y-73732500D01*
G75*
G02*
X164639000Y-73970000I-237500J0D01*
G01*
G37*
G36*
G01*
X164639000Y-75695000D02*
X164164000Y-75695000D01*
G75*
G02*
X163926500Y-75457500I0J237500D01*
G01*
X163926500Y-74857500D01*
G75*
G02*
X164164000Y-74620000I237500J0D01*
G01*
X164639000Y-74620000D01*
G75*
G02*
X164876500Y-74857500I0J-237500D01*
G01*
X164876500Y-75457500D01*
G75*
G02*
X164639000Y-75695000I-237500J0D01*
G01*
G37*
%TD*%
%TO.C,C5*%
G36*
G01*
X148941500Y-70087500D02*
X148941500Y-69612500D01*
G75*
G02*
X149179000Y-69375000I237500J0D01*
G01*
X149779000Y-69375000D01*
G75*
G02*
X150016500Y-69612500I0J-237500D01*
G01*
X150016500Y-70087500D01*
G75*
G02*
X149779000Y-70325000I-237500J0D01*
G01*
X149179000Y-70325000D01*
G75*
G02*
X148941500Y-70087500I0J237500D01*
G01*
G37*
G36*
G01*
X150666500Y-70087500D02*
X150666500Y-69612500D01*
G75*
G02*
X150904000Y-69375000I237500J0D01*
G01*
X151504000Y-69375000D01*
G75*
G02*
X151741500Y-69612500I0J-237500D01*
G01*
X151741500Y-70087500D01*
G75*
G02*
X151504000Y-70325000I-237500J0D01*
G01*
X150904000Y-70325000D01*
G75*
G02*
X150666500Y-70087500I0J237500D01*
G01*
G37*
%TD*%
%TO.C,C7*%
G36*
G01*
X152383500Y-92485500D02*
X151908500Y-92485500D01*
G75*
G02*
X151671000Y-92248000I0J237500D01*
G01*
X151671000Y-91648000D01*
G75*
G02*
X151908500Y-91410500I237500J0D01*
G01*
X152383500Y-91410500D01*
G75*
G02*
X152621000Y-91648000I0J-237500D01*
G01*
X152621000Y-92248000D01*
G75*
G02*
X152383500Y-92485500I-237500J0D01*
G01*
G37*
G36*
G01*
X152383500Y-94210500D02*
X151908500Y-94210500D01*
G75*
G02*
X151671000Y-93973000I0J237500D01*
G01*
X151671000Y-93373000D01*
G75*
G02*
X151908500Y-93135500I237500J0D01*
G01*
X152383500Y-93135500D01*
G75*
G02*
X152621000Y-93373000I0J-237500D01*
G01*
X152621000Y-93973000D01*
G75*
G02*
X152383500Y-94210500I-237500J0D01*
G01*
G37*
%TD*%
%TO.C,C9*%
G36*
G01*
X151972000Y-87637500D02*
X152447000Y-87637500D01*
G75*
G02*
X152684500Y-87875000I0J-237500D01*
G01*
X152684500Y-88475000D01*
G75*
G02*
X152447000Y-88712500I-237500J0D01*
G01*
X151972000Y-88712500D01*
G75*
G02*
X151734500Y-88475000I0J237500D01*
G01*
X151734500Y-87875000D01*
G75*
G02*
X151972000Y-87637500I237500J0D01*
G01*
G37*
G36*
G01*
X151972000Y-85912500D02*
X152447000Y-85912500D01*
G75*
G02*
X152684500Y-86150000I0J-237500D01*
G01*
X152684500Y-86750000D01*
G75*
G02*
X152447000Y-86987500I-237500J0D01*
G01*
X151972000Y-86987500D01*
G75*
G02*
X151734500Y-86750000I0J237500D01*
G01*
X151734500Y-86150000D01*
G75*
G02*
X151972000Y-85912500I237500J0D01*
G01*
G37*
%TD*%
%TO.C,C10*%
G36*
G01*
X163686500Y-100687500D02*
X163211500Y-100687500D01*
G75*
G02*
X162974000Y-100450000I0J237500D01*
G01*
X162974000Y-99850000D01*
G75*
G02*
X163211500Y-99612500I237500J0D01*
G01*
X163686500Y-99612500D01*
G75*
G02*
X163924000Y-99850000I0J-237500D01*
G01*
X163924000Y-100450000D01*
G75*
G02*
X163686500Y-100687500I-237500J0D01*
G01*
G37*
G36*
G01*
X163686500Y-98962500D02*
X163211500Y-98962500D01*
G75*
G02*
X162974000Y-98725000I0J237500D01*
G01*
X162974000Y-98125000D01*
G75*
G02*
X163211500Y-97887500I237500J0D01*
G01*
X163686500Y-97887500D01*
G75*
G02*
X163924000Y-98125000I0J-237500D01*
G01*
X163924000Y-98725000D01*
G75*
G02*
X163686500Y-98962500I-237500J0D01*
G01*
G37*
%TD*%
%TO.C,C11*%
G36*
G01*
X152383500Y-98989000D02*
X151908500Y-98989000D01*
G75*
G02*
X151671000Y-98751500I0J237500D01*
G01*
X151671000Y-98151500D01*
G75*
G02*
X151908500Y-97914000I237500J0D01*
G01*
X152383500Y-97914000D01*
G75*
G02*
X152621000Y-98151500I0J-237500D01*
G01*
X152621000Y-98751500D01*
G75*
G02*
X152383500Y-98989000I-237500J0D01*
G01*
G37*
G36*
G01*
X152383500Y-100714000D02*
X151908500Y-100714000D01*
G75*
G02*
X151671000Y-100476500I0J237500D01*
G01*
X151671000Y-99876500D01*
G75*
G02*
X151908500Y-99639000I237500J0D01*
G01*
X152383500Y-99639000D01*
G75*
G02*
X152621000Y-99876500I0J-237500D01*
G01*
X152621000Y-100476500D01*
G75*
G02*
X152383500Y-100714000I-237500J0D01*
G01*
G37*
%TD*%
%TO.C,C12*%
G36*
G01*
X150461000Y-84535000D02*
X150461000Y-85010000D01*
G75*
G02*
X150223500Y-85247500I-237500J0D01*
G01*
X149623500Y-85247500D01*
G75*
G02*
X149386000Y-85010000I0J237500D01*
G01*
X149386000Y-84535000D01*
G75*
G02*
X149623500Y-84297500I237500J0D01*
G01*
X150223500Y-84297500D01*
G75*
G02*
X150461000Y-84535000I0J-237500D01*
G01*
G37*
G36*
G01*
X152186000Y-84535000D02*
X152186000Y-85010000D01*
G75*
G02*
X151948500Y-85247500I-237500J0D01*
G01*
X151348500Y-85247500D01*
G75*
G02*
X151111000Y-85010000I0J237500D01*
G01*
X151111000Y-84535000D01*
G75*
G02*
X151348500Y-84297500I237500J0D01*
G01*
X151948500Y-84297500D01*
G75*
G02*
X152186000Y-84535000I0J-237500D01*
G01*
G37*
%TD*%
%TO.C,C13*%
G36*
G01*
X150605500Y-92485500D02*
X150130500Y-92485500D01*
G75*
G02*
X149893000Y-92248000I0J237500D01*
G01*
X149893000Y-91648000D01*
G75*
G02*
X150130500Y-91410500I237500J0D01*
G01*
X150605500Y-91410500D01*
G75*
G02*
X150843000Y-91648000I0J-237500D01*
G01*
X150843000Y-92248000D01*
G75*
G02*
X150605500Y-92485500I-237500J0D01*
G01*
G37*
G36*
G01*
X150605500Y-94210500D02*
X150130500Y-94210500D01*
G75*
G02*
X149893000Y-93973000I0J237500D01*
G01*
X149893000Y-93373000D01*
G75*
G02*
X150130500Y-93135500I237500J0D01*
G01*
X150605500Y-93135500D01*
G75*
G02*
X150843000Y-93373000I0J-237500D01*
G01*
X150843000Y-93973000D01*
G75*
G02*
X150605500Y-94210500I-237500J0D01*
G01*
G37*
%TD*%
%TO.C,C14*%
G36*
G01*
X153623000Y-85912500D02*
X154098000Y-85912500D01*
G75*
G02*
X154335500Y-86150000I0J-237500D01*
G01*
X154335500Y-86750000D01*
G75*
G02*
X154098000Y-86987500I-237500J0D01*
G01*
X153623000Y-86987500D01*
G75*
G02*
X153385500Y-86750000I0J237500D01*
G01*
X153385500Y-86150000D01*
G75*
G02*
X153623000Y-85912500I237500J0D01*
G01*
G37*
G36*
G01*
X153623000Y-87637500D02*
X154098000Y-87637500D01*
G75*
G02*
X154335500Y-87875000I0J-237500D01*
G01*
X154335500Y-88475000D01*
G75*
G02*
X154098000Y-88712500I-237500J0D01*
G01*
X153623000Y-88712500D01*
G75*
G02*
X153385500Y-88475000I0J237500D01*
G01*
X153385500Y-87875000D01*
G75*
G02*
X153623000Y-87637500I237500J0D01*
G01*
G37*
%TD*%
%TO.C,C15*%
G36*
G01*
X164039500Y-95076000D02*
X164039500Y-95551000D01*
G75*
G02*
X163802000Y-95788500I-237500J0D01*
G01*
X163202000Y-95788500D01*
G75*
G02*
X162964500Y-95551000I0J237500D01*
G01*
X162964500Y-95076000D01*
G75*
G02*
X163202000Y-94838500I237500J0D01*
G01*
X163802000Y-94838500D01*
G75*
G02*
X164039500Y-95076000I0J-237500D01*
G01*
G37*
G36*
G01*
X165764500Y-95076000D02*
X165764500Y-95551000D01*
G75*
G02*
X165527000Y-95788500I-237500J0D01*
G01*
X164927000Y-95788500D01*
G75*
G02*
X164689500Y-95551000I0J237500D01*
G01*
X164689500Y-95076000D01*
G75*
G02*
X164927000Y-94838500I237500J0D01*
G01*
X165527000Y-94838500D01*
G75*
G02*
X165764500Y-95076000I0J-237500D01*
G01*
G37*
%TD*%
%TO.C,C16*%
G36*
G01*
X152657000Y-95076000D02*
X152657000Y-95551000D01*
G75*
G02*
X152419500Y-95788500I-237500J0D01*
G01*
X151819500Y-95788500D01*
G75*
G02*
X151582000Y-95551000I0J237500D01*
G01*
X151582000Y-95076000D01*
G75*
G02*
X151819500Y-94838500I237500J0D01*
G01*
X152419500Y-94838500D01*
G75*
G02*
X152657000Y-95076000I0J-237500D01*
G01*
G37*
G36*
G01*
X150932000Y-95076000D02*
X150932000Y-95551000D01*
G75*
G02*
X150694500Y-95788500I-237500J0D01*
G01*
X150094500Y-95788500D01*
G75*
G02*
X149857000Y-95551000I0J237500D01*
G01*
X149857000Y-95076000D01*
G75*
G02*
X150094500Y-94838500I237500J0D01*
G01*
X150694500Y-94838500D01*
G75*
G02*
X150932000Y-95076000I0J-237500D01*
G01*
G37*
%TD*%
%TO.C,C17*%
G36*
G01*
X153082000Y-72610000D02*
X152607000Y-72610000D01*
G75*
G02*
X152369500Y-72372500I0J237500D01*
G01*
X152369500Y-71772500D01*
G75*
G02*
X152607000Y-71535000I237500J0D01*
G01*
X153082000Y-71535000D01*
G75*
G02*
X153319500Y-71772500I0J-237500D01*
G01*
X153319500Y-72372500D01*
G75*
G02*
X153082000Y-72610000I-237500J0D01*
G01*
G37*
G36*
G01*
X153082000Y-70885000D02*
X152607000Y-70885000D01*
G75*
G02*
X152369500Y-70647500I0J237500D01*
G01*
X152369500Y-70047500D01*
G75*
G02*
X152607000Y-69810000I237500J0D01*
G01*
X153082000Y-69810000D01*
G75*
G02*
X153319500Y-70047500I0J-237500D01*
G01*
X153319500Y-70647500D01*
G75*
G02*
X153082000Y-70885000I-237500J0D01*
G01*
G37*
%TD*%
%TO.C,R1*%
G36*
G01*
X159495500Y-102261500D02*
X159020500Y-102261500D01*
G75*
G02*
X158783000Y-102024000I0J237500D01*
G01*
X158783000Y-101524000D01*
G75*
G02*
X159020500Y-101286500I237500J0D01*
G01*
X159495500Y-101286500D01*
G75*
G02*
X159733000Y-101524000I0J-237500D01*
G01*
X159733000Y-102024000D01*
G75*
G02*
X159495500Y-102261500I-237500J0D01*
G01*
G37*
G36*
G01*
X159495500Y-100436500D02*
X159020500Y-100436500D01*
G75*
G02*
X158783000Y-100199000I0J237500D01*
G01*
X158783000Y-99699000D01*
G75*
G02*
X159020500Y-99461500I237500J0D01*
G01*
X159495500Y-99461500D01*
G75*
G02*
X159733000Y-99699000I0J-237500D01*
G01*
X159733000Y-100199000D01*
G75*
G02*
X159495500Y-100436500I-237500J0D01*
G01*
G37*
%TD*%
%TO.C,R2*%
G36*
G01*
X157273000Y-102238000D02*
X156798000Y-102238000D01*
G75*
G02*
X156560500Y-102000500I0J237500D01*
G01*
X156560500Y-101500500D01*
G75*
G02*
X156798000Y-101263000I237500J0D01*
G01*
X157273000Y-101263000D01*
G75*
G02*
X157510500Y-101500500I0J-237500D01*
G01*
X157510500Y-102000500D01*
G75*
G02*
X157273000Y-102238000I-237500J0D01*
G01*
G37*
G36*
G01*
X157273000Y-100413000D02*
X156798000Y-100413000D01*
G75*
G02*
X156560500Y-100175500I0J237500D01*
G01*
X156560500Y-99675500D01*
G75*
G02*
X156798000Y-99438000I237500J0D01*
G01*
X157273000Y-99438000D01*
G75*
G02*
X157510500Y-99675500I0J-237500D01*
G01*
X157510500Y-100175500D01*
G75*
G02*
X157273000Y-100413000I-237500J0D01*
G01*
G37*
%TD*%
%TO.C,R3*%
G36*
G01*
X160798500Y-101286500D02*
X161273500Y-101286500D01*
G75*
G02*
X161511000Y-101524000I0J-237500D01*
G01*
X161511000Y-102024000D01*
G75*
G02*
X161273500Y-102261500I-237500J0D01*
G01*
X160798500Y-102261500D01*
G75*
G02*
X160561000Y-102024000I0J237500D01*
G01*
X160561000Y-101524000D01*
G75*
G02*
X160798500Y-101286500I237500J0D01*
G01*
G37*
G36*
G01*
X160798500Y-99461500D02*
X161273500Y-99461500D01*
G75*
G02*
X161511000Y-99699000I0J-237500D01*
G01*
X161511000Y-100199000D01*
G75*
G02*
X161273500Y-100436500I-237500J0D01*
G01*
X160798500Y-100436500D01*
G75*
G02*
X160561000Y-100199000I0J237500D01*
G01*
X160561000Y-99699000D01*
G75*
G02*
X160798500Y-99461500I237500J0D01*
G01*
G37*
%TD*%
%TO.C,R4*%
G36*
G01*
X163976500Y-101553000D02*
X163976500Y-102028000D01*
G75*
G02*
X163739000Y-102265500I-237500J0D01*
G01*
X163239000Y-102265500D01*
G75*
G02*
X163001500Y-102028000I0J237500D01*
G01*
X163001500Y-101553000D01*
G75*
G02*
X163239000Y-101315500I237500J0D01*
G01*
X163739000Y-101315500D01*
G75*
G02*
X163976500Y-101553000I0J-237500D01*
G01*
G37*
G36*
G01*
X165801500Y-101553000D02*
X165801500Y-102028000D01*
G75*
G02*
X165564000Y-102265500I-237500J0D01*
G01*
X165064000Y-102265500D01*
G75*
G02*
X164826500Y-102028000I0J237500D01*
G01*
X164826500Y-101553000D01*
G75*
G02*
X165064000Y-101315500I237500J0D01*
G01*
X165564000Y-101315500D01*
G75*
G02*
X165801500Y-101553000I0J-237500D01*
G01*
G37*
%TD*%
%TO.C,R5*%
G36*
G01*
X154893000Y-99438000D02*
X155368000Y-99438000D01*
G75*
G02*
X155605500Y-99675500I0J-237500D01*
G01*
X155605500Y-100175500D01*
G75*
G02*
X155368000Y-100413000I-237500J0D01*
G01*
X154893000Y-100413000D01*
G75*
G02*
X154655500Y-100175500I0J237500D01*
G01*
X154655500Y-99675500D01*
G75*
G02*
X154893000Y-99438000I237500J0D01*
G01*
G37*
G36*
G01*
X154893000Y-101263000D02*
X155368000Y-101263000D01*
G75*
G02*
X155605500Y-101500500I0J-237500D01*
G01*
X155605500Y-102000500D01*
G75*
G02*
X155368000Y-102238000I-237500J0D01*
G01*
X154893000Y-102238000D01*
G75*
G02*
X154655500Y-102000500I0J237500D01*
G01*
X154655500Y-101500500D01*
G75*
G02*
X154893000Y-101263000I237500J0D01*
G01*
G37*
%TD*%
%TO.C,R6*%
G36*
G01*
X149857000Y-102028000D02*
X149857000Y-101553000D01*
G75*
G02*
X150094500Y-101315500I237500J0D01*
G01*
X150594500Y-101315500D01*
G75*
G02*
X150832000Y-101553000I0J-237500D01*
G01*
X150832000Y-102028000D01*
G75*
G02*
X150594500Y-102265500I-237500J0D01*
G01*
X150094500Y-102265500D01*
G75*
G02*
X149857000Y-102028000I0J237500D01*
G01*
G37*
G36*
G01*
X151682000Y-102028000D02*
X151682000Y-101553000D01*
G75*
G02*
X151919500Y-101315500I237500J0D01*
G01*
X152419500Y-101315500D01*
G75*
G02*
X152657000Y-101553000I0J-237500D01*
G01*
X152657000Y-102028000D01*
G75*
G02*
X152419500Y-102265500I-237500J0D01*
G01*
X151919500Y-102265500D01*
G75*
G02*
X151682000Y-102028000I0J237500D01*
G01*
G37*
%TD*%
%TO.C,R7*%
G36*
G01*
X165053000Y-97890500D02*
X165528000Y-97890500D01*
G75*
G02*
X165765500Y-98128000I0J-237500D01*
G01*
X165765500Y-98628000D01*
G75*
G02*
X165528000Y-98865500I-237500J0D01*
G01*
X165053000Y-98865500D01*
G75*
G02*
X164815500Y-98628000I0J237500D01*
G01*
X164815500Y-98128000D01*
G75*
G02*
X165053000Y-97890500I237500J0D01*
G01*
G37*
G36*
G01*
X165053000Y-99715500D02*
X165528000Y-99715500D01*
G75*
G02*
X165765500Y-99953000I0J-237500D01*
G01*
X165765500Y-100453000D01*
G75*
G02*
X165528000Y-100690500I-237500J0D01*
G01*
X165053000Y-100690500D01*
G75*
G02*
X164815500Y-100453000I0J237500D01*
G01*
X164815500Y-99953000D01*
G75*
G02*
X165053000Y-99715500I237500J0D01*
G01*
G37*
%TD*%
%TO.C,R8*%
G36*
G01*
X150130500Y-99739000D02*
X150605500Y-99739000D01*
G75*
G02*
X150843000Y-99976500I0J-237500D01*
G01*
X150843000Y-100476500D01*
G75*
G02*
X150605500Y-100714000I-237500J0D01*
G01*
X150130500Y-100714000D01*
G75*
G02*
X149893000Y-100476500I0J237500D01*
G01*
X149893000Y-99976500D01*
G75*
G02*
X150130500Y-99739000I237500J0D01*
G01*
G37*
G36*
G01*
X150130500Y-97914000D02*
X150605500Y-97914000D01*
G75*
G02*
X150843000Y-98151500I0J-237500D01*
G01*
X150843000Y-98651500D01*
G75*
G02*
X150605500Y-98889000I-237500J0D01*
G01*
X150130500Y-98889000D01*
G75*
G02*
X149893000Y-98651500I0J237500D01*
G01*
X149893000Y-98151500D01*
G75*
G02*
X150130500Y-97914000I237500J0D01*
G01*
G37*
%TD*%
%TO.C,R9*%
G36*
G01*
X163936500Y-96600000D02*
X163936500Y-97075000D01*
G75*
G02*
X163699000Y-97312500I-237500J0D01*
G01*
X163199000Y-97312500D01*
G75*
G02*
X162961500Y-97075000I0J237500D01*
G01*
X162961500Y-96600000D01*
G75*
G02*
X163199000Y-96362500I237500J0D01*
G01*
X163699000Y-96362500D01*
G75*
G02*
X163936500Y-96600000I0J-237500D01*
G01*
G37*
G36*
G01*
X165761500Y-96600000D02*
X165761500Y-97075000D01*
G75*
G02*
X165524000Y-97312500I-237500J0D01*
G01*
X165024000Y-97312500D01*
G75*
G02*
X164786500Y-97075000I0J237500D01*
G01*
X164786500Y-96600000D01*
G75*
G02*
X165024000Y-96362500I237500J0D01*
G01*
X165524000Y-96362500D01*
G75*
G02*
X165761500Y-96600000I0J-237500D01*
G01*
G37*
%TD*%
%TO.C,R10*%
G36*
G01*
X149857000Y-97075000D02*
X149857000Y-96600000D01*
G75*
G02*
X150094500Y-96362500I237500J0D01*
G01*
X150594500Y-96362500D01*
G75*
G02*
X150832000Y-96600000I0J-237500D01*
G01*
X150832000Y-97075000D01*
G75*
G02*
X150594500Y-97312500I-237500J0D01*
G01*
X150094500Y-97312500D01*
G75*
G02*
X149857000Y-97075000I0J237500D01*
G01*
G37*
G36*
G01*
X151682000Y-97075000D02*
X151682000Y-96600000D01*
G75*
G02*
X151919500Y-96362500I237500J0D01*
G01*
X152419500Y-96362500D01*
G75*
G02*
X152657000Y-96600000I0J-237500D01*
G01*
X152657000Y-97075000D01*
G75*
G02*
X152419500Y-97312500I-237500J0D01*
G01*
X151919500Y-97312500D01*
G75*
G02*
X151682000Y-97075000I0J237500D01*
G01*
G37*
%TD*%
%TO.C,R14*%
G36*
G01*
X151768000Y-71708000D02*
X151768000Y-72183000D01*
G75*
G02*
X151530500Y-72420500I-237500J0D01*
G01*
X151030500Y-72420500D01*
G75*
G02*
X150793000Y-72183000I0J237500D01*
G01*
X150793000Y-71708000D01*
G75*
G02*
X151030500Y-71470500I237500J0D01*
G01*
X151530500Y-71470500D01*
G75*
G02*
X151768000Y-71708000I0J-237500D01*
G01*
G37*
G36*
G01*
X149943000Y-71708000D02*
X149943000Y-72183000D01*
G75*
G02*
X149705500Y-72420500I-237500J0D01*
G01*
X149205500Y-72420500D01*
G75*
G02*
X148968000Y-72183000I0J237500D01*
G01*
X148968000Y-71708000D01*
G75*
G02*
X149205500Y-71470500I237500J0D01*
G01*
X149705500Y-71470500D01*
G75*
G02*
X149943000Y-71708000I0J-237500D01*
G01*
G37*
%TD*%
%TO.C,R16*%
G36*
G01*
X149943000Y-73232000D02*
X149943000Y-73707000D01*
G75*
G02*
X149705500Y-73944500I-237500J0D01*
G01*
X149205500Y-73944500D01*
G75*
G02*
X148968000Y-73707000I0J237500D01*
G01*
X148968000Y-73232000D01*
G75*
G02*
X149205500Y-72994500I237500J0D01*
G01*
X149705500Y-72994500D01*
G75*
G02*
X149943000Y-73232000I0J-237500D01*
G01*
G37*
G36*
G01*
X151768000Y-73232000D02*
X151768000Y-73707000D01*
G75*
G02*
X151530500Y-73944500I-237500J0D01*
G01*
X151030500Y-73944500D01*
G75*
G02*
X150793000Y-73707000I0J237500D01*
G01*
X150793000Y-73232000D01*
G75*
G02*
X151030500Y-72994500I237500J0D01*
G01*
X151530500Y-72994500D01*
G75*
G02*
X151768000Y-73232000I0J-237500D01*
G01*
G37*
%TD*%
%TO.C,R17*%
G36*
G01*
X147654000Y-69275500D02*
X148129000Y-69275500D01*
G75*
G02*
X148366500Y-69513000I0J-237500D01*
G01*
X148366500Y-70013000D01*
G75*
G02*
X148129000Y-70250500I-237500J0D01*
G01*
X147654000Y-70250500D01*
G75*
G02*
X147416500Y-70013000I0J237500D01*
G01*
X147416500Y-69513000D01*
G75*
G02*
X147654000Y-69275500I237500J0D01*
G01*
G37*
G36*
G01*
X147654000Y-71100500D02*
X148129000Y-71100500D01*
G75*
G02*
X148366500Y-71338000I0J-237500D01*
G01*
X148366500Y-71838000D01*
G75*
G02*
X148129000Y-72075500I-237500J0D01*
G01*
X147654000Y-72075500D01*
G75*
G02*
X147416500Y-71838000I0J237500D01*
G01*
X147416500Y-71338000D01*
G75*
G02*
X147654000Y-71100500I237500J0D01*
G01*
G37*
%TD*%
%TO.C,R19*%
G36*
G01*
X148436500Y-78850500D02*
X148436500Y-78375500D01*
G75*
G02*
X148674000Y-78138000I237500J0D01*
G01*
X149174000Y-78138000D01*
G75*
G02*
X149411500Y-78375500I0J-237500D01*
G01*
X149411500Y-78850500D01*
G75*
G02*
X149174000Y-79088000I-237500J0D01*
G01*
X148674000Y-79088000D01*
G75*
G02*
X148436500Y-78850500I0J237500D01*
G01*
G37*
G36*
G01*
X150261500Y-78850500D02*
X150261500Y-78375500D01*
G75*
G02*
X150499000Y-78138000I237500J0D01*
G01*
X150999000Y-78138000D01*
G75*
G02*
X151236500Y-78375500I0J-237500D01*
G01*
X151236500Y-78850500D01*
G75*
G02*
X150999000Y-79088000I-237500J0D01*
G01*
X150499000Y-79088000D01*
G75*
G02*
X150261500Y-78850500I0J237500D01*
G01*
G37*
%TD*%
%TO.C,R20*%
G36*
G01*
X150198000Y-82787500D02*
X150198000Y-82312500D01*
G75*
G02*
X150435500Y-82075000I237500J0D01*
G01*
X150935500Y-82075000D01*
G75*
G02*
X151173000Y-82312500I0J-237500D01*
G01*
X151173000Y-82787500D01*
G75*
G02*
X150935500Y-83025000I-237500J0D01*
G01*
X150435500Y-83025000D01*
G75*
G02*
X150198000Y-82787500I0J237500D01*
G01*
G37*
G36*
G01*
X148373000Y-82787500D02*
X148373000Y-82312500D01*
G75*
G02*
X148610500Y-82075000I237500J0D01*
G01*
X149110500Y-82075000D01*
G75*
G02*
X149348000Y-82312500I0J-237500D01*
G01*
X149348000Y-82787500D01*
G75*
G02*
X149110500Y-83025000I-237500J0D01*
G01*
X148610500Y-83025000D01*
G75*
G02*
X148373000Y-82787500I0J237500D01*
G01*
G37*
%TD*%
%TO.C,U2*%
G36*
G01*
X161501500Y-94147500D02*
X161501500Y-94447500D01*
G75*
G02*
X161351500Y-94597500I-150000J0D01*
G01*
X159701500Y-94597500D01*
G75*
G02*
X159551500Y-94447500I0J150000D01*
G01*
X159551500Y-94147500D01*
G75*
G02*
X159701500Y-93997500I150000J0D01*
G01*
X161351500Y-93997500D01*
G75*
G02*
X161501500Y-94147500I0J-150000D01*
G01*
G37*
G36*
G01*
X161501500Y-95417500D02*
X161501500Y-95717500D01*
G75*
G02*
X161351500Y-95867500I-150000J0D01*
G01*
X159701500Y-95867500D01*
G75*
G02*
X159551500Y-95717500I0J150000D01*
G01*
X159551500Y-95417500D01*
G75*
G02*
X159701500Y-95267500I150000J0D01*
G01*
X161351500Y-95267500D01*
G75*
G02*
X161501500Y-95417500I0J-150000D01*
G01*
G37*
G36*
G01*
X161501500Y-96687500D02*
X161501500Y-96987500D01*
G75*
G02*
X161351500Y-97137500I-150000J0D01*
G01*
X159701500Y-97137500D01*
G75*
G02*
X159551500Y-96987500I0J150000D01*
G01*
X159551500Y-96687500D01*
G75*
G02*
X159701500Y-96537500I150000J0D01*
G01*
X161351500Y-96537500D01*
G75*
G02*
X161501500Y-96687500I0J-150000D01*
G01*
G37*
G36*
G01*
X161501500Y-97957500D02*
X161501500Y-98257500D01*
G75*
G02*
X161351500Y-98407500I-150000J0D01*
G01*
X159701500Y-98407500D01*
G75*
G02*
X159551500Y-98257500I0J150000D01*
G01*
X159551500Y-97957500D01*
G75*
G02*
X159701500Y-97807500I150000J0D01*
G01*
X161351500Y-97807500D01*
G75*
G02*
X161501500Y-97957500I0J-150000D01*
G01*
G37*
G36*
G01*
X156551500Y-97957500D02*
X156551500Y-98257500D01*
G75*
G02*
X156401500Y-98407500I-150000J0D01*
G01*
X154751500Y-98407500D01*
G75*
G02*
X154601500Y-98257500I0J150000D01*
G01*
X154601500Y-97957500D01*
G75*
G02*
X154751500Y-97807500I150000J0D01*
G01*
X156401500Y-97807500D01*
G75*
G02*
X156551500Y-97957500I0J-150000D01*
G01*
G37*
G36*
G01*
X156551500Y-96687500D02*
X156551500Y-96987500D01*
G75*
G02*
X156401500Y-97137500I-150000J0D01*
G01*
X154751500Y-97137500D01*
G75*
G02*
X154601500Y-96987500I0J150000D01*
G01*
X154601500Y-96687500D01*
G75*
G02*
X154751500Y-96537500I150000J0D01*
G01*
X156401500Y-96537500D01*
G75*
G02*
X156551500Y-96687500I0J-150000D01*
G01*
G37*
G36*
G01*
X156551500Y-95417500D02*
X156551500Y-95717500D01*
G75*
G02*
X156401500Y-95867500I-150000J0D01*
G01*
X154751500Y-95867500D01*
G75*
G02*
X154601500Y-95717500I0J150000D01*
G01*
X154601500Y-95417500D01*
G75*
G02*
X154751500Y-95267500I150000J0D01*
G01*
X156401500Y-95267500D01*
G75*
G02*
X156551500Y-95417500I0J-150000D01*
G01*
G37*
G36*
G01*
X156551500Y-94147500D02*
X156551500Y-94447500D01*
G75*
G02*
X156401500Y-94597500I-150000J0D01*
G01*
X154751500Y-94597500D01*
G75*
G02*
X154601500Y-94447500I0J150000D01*
G01*
X154601500Y-94147500D01*
G75*
G02*
X154751500Y-93997500I150000J0D01*
G01*
X156401500Y-93997500D01*
G75*
G02*
X156551500Y-94147500I0J-150000D01*
G01*
G37*
%TD*%
M02*
