%TF.GenerationSoftware,KiCad,Pcbnew,5.1.8*%
%TF.CreationDate,2020-12-03T14:21:02+03:00*%
%TF.ProjectId,pss_mcu_pcb,7073735f-6d63-4755-9f70-63622e6b6963,rev?*%
%TF.SameCoordinates,Original*%
%TF.FileFunction,Legend,Bot*%
%TF.FilePolarity,Positive*%
%FSLAX46Y46*%
G04 Gerber Fmt 4.6, Leading zero omitted, Abs format (unit mm)*
G04 Created by KiCad (PCBNEW 5.1.8) date 2020-12-03 14:21:02*
%MOMM*%
%LPD*%
G01*
G04 APERTURE LIST*
%ADD10C,0.150000*%
%ADD11C,0.120000*%
G04 APERTURE END LIST*
D10*
X168210404Y-108402880D02*
X168210404Y-107402880D01*
X167829452Y-107402880D01*
X167734214Y-107450500D01*
X167686595Y-107498119D01*
X167638976Y-107593357D01*
X167638976Y-107736214D01*
X167686595Y-107831452D01*
X167734214Y-107879071D01*
X167829452Y-107926690D01*
X168210404Y-107926690D01*
X167258023Y-108355261D02*
X167115166Y-108402880D01*
X166877071Y-108402880D01*
X166781833Y-108355261D01*
X166734214Y-108307642D01*
X166686595Y-108212404D01*
X166686595Y-108117166D01*
X166734214Y-108021928D01*
X166781833Y-107974309D01*
X166877071Y-107926690D01*
X167067547Y-107879071D01*
X167162785Y-107831452D01*
X167210404Y-107783833D01*
X167258023Y-107688595D01*
X167258023Y-107593357D01*
X167210404Y-107498119D01*
X167162785Y-107450500D01*
X167067547Y-107402880D01*
X166829452Y-107402880D01*
X166686595Y-107450500D01*
X166305642Y-108355261D02*
X166162785Y-108402880D01*
X165924690Y-108402880D01*
X165829452Y-108355261D01*
X165781833Y-108307642D01*
X165734214Y-108212404D01*
X165734214Y-108117166D01*
X165781833Y-108021928D01*
X165829452Y-107974309D01*
X165924690Y-107926690D01*
X166115166Y-107879071D01*
X166210404Y-107831452D01*
X166258023Y-107783833D01*
X166305642Y-107688595D01*
X166305642Y-107593357D01*
X166258023Y-107498119D01*
X166210404Y-107450500D01*
X166115166Y-107402880D01*
X165877071Y-107402880D01*
X165734214Y-107450500D01*
X165543738Y-108498119D02*
X164781833Y-108498119D01*
X164543738Y-108402880D02*
X164543738Y-107402880D01*
X164210404Y-108117166D01*
X163877071Y-107402880D01*
X163877071Y-108402880D01*
X162829452Y-108307642D02*
X162877071Y-108355261D01*
X163019928Y-108402880D01*
X163115166Y-108402880D01*
X163258023Y-108355261D01*
X163353261Y-108260023D01*
X163400880Y-108164785D01*
X163448500Y-107974309D01*
X163448500Y-107831452D01*
X163400880Y-107640976D01*
X163353261Y-107545738D01*
X163258023Y-107450500D01*
X163115166Y-107402880D01*
X163019928Y-107402880D01*
X162877071Y-107450500D01*
X162829452Y-107498119D01*
X162400880Y-107402880D02*
X162400880Y-108212404D01*
X162353261Y-108307642D01*
X162305642Y-108355261D01*
X162210404Y-108402880D01*
X162019928Y-108402880D01*
X161924690Y-108355261D01*
X161877071Y-108307642D01*
X161829452Y-108212404D01*
X161829452Y-107402880D01*
X161591357Y-108498119D02*
X160829452Y-108498119D01*
X160591357Y-108402880D02*
X160591357Y-107402880D01*
X160591357Y-107783833D02*
X160496119Y-107736214D01*
X160305642Y-107736214D01*
X160210404Y-107783833D01*
X160162785Y-107831452D01*
X160115166Y-107926690D01*
X160115166Y-108212404D01*
X160162785Y-108307642D01*
X160210404Y-108355261D01*
X160305642Y-108402880D01*
X160496119Y-108402880D01*
X160591357Y-108355261D01*
X159543738Y-108402880D02*
X159638976Y-108355261D01*
X159686595Y-108307642D01*
X159734214Y-108212404D01*
X159734214Y-107926690D01*
X159686595Y-107831452D01*
X159638976Y-107783833D01*
X159543738Y-107736214D01*
X159400880Y-107736214D01*
X159305642Y-107783833D01*
X159258023Y-107831452D01*
X159210404Y-107926690D01*
X159210404Y-108212404D01*
X159258023Y-108307642D01*
X159305642Y-108355261D01*
X159400880Y-108402880D01*
X159543738Y-108402880D01*
X158353261Y-108402880D02*
X158353261Y-107879071D01*
X158400880Y-107783833D01*
X158496119Y-107736214D01*
X158686595Y-107736214D01*
X158781833Y-107783833D01*
X158353261Y-108355261D02*
X158448500Y-108402880D01*
X158686595Y-108402880D01*
X158781833Y-108355261D01*
X158829452Y-108260023D01*
X158829452Y-108164785D01*
X158781833Y-108069547D01*
X158686595Y-108021928D01*
X158448500Y-108021928D01*
X158353261Y-107974309D01*
X157877071Y-108402880D02*
X157877071Y-107736214D01*
X157877071Y-107926690D02*
X157829452Y-107831452D01*
X157781833Y-107783833D01*
X157686595Y-107736214D01*
X157591357Y-107736214D01*
X156829452Y-108402880D02*
X156829452Y-107402880D01*
X156829452Y-108355261D02*
X156924690Y-108402880D01*
X157115166Y-108402880D01*
X157210404Y-108355261D01*
X157258023Y-108307642D01*
X157305642Y-108212404D01*
X157305642Y-107926690D01*
X157258023Y-107831452D01*
X157210404Y-107783833D01*
X157115166Y-107736214D01*
X156924690Y-107736214D01*
X156829452Y-107783833D01*
X155591357Y-108402880D02*
X155591357Y-107736214D01*
X155591357Y-107926690D02*
X155543738Y-107831452D01*
X155496119Y-107783833D01*
X155400880Y-107736214D01*
X155305642Y-107736214D01*
X154591357Y-108355261D02*
X154686595Y-108402880D01*
X154877071Y-108402880D01*
X154972309Y-108355261D01*
X155019928Y-108260023D01*
X155019928Y-107879071D01*
X154972309Y-107783833D01*
X154877071Y-107736214D01*
X154686595Y-107736214D01*
X154591357Y-107783833D01*
X154543738Y-107879071D01*
X154543738Y-107974309D01*
X155019928Y-108069547D01*
X154210404Y-107736214D02*
X153972309Y-108402880D01*
X153734214Y-107736214D01*
X152400880Y-107402880D02*
X152305642Y-107402880D01*
X152210404Y-107450500D01*
X152162785Y-107498119D01*
X152115166Y-107593357D01*
X152067547Y-107783833D01*
X152067547Y-108021928D01*
X152115166Y-108212404D01*
X152162785Y-108307642D01*
X152210404Y-108355261D01*
X152305642Y-108402880D01*
X152400880Y-108402880D01*
X152496119Y-108355261D01*
X152543738Y-108307642D01*
X152591357Y-108212404D01*
X152638976Y-108021928D01*
X152638976Y-107783833D01*
X152591357Y-107593357D01*
X152543738Y-107498119D01*
X152496119Y-107450500D01*
X152400880Y-107402880D01*
X151638976Y-108307642D02*
X151591357Y-108355261D01*
X151638976Y-108402880D01*
X151686595Y-108355261D01*
X151638976Y-108307642D01*
X151638976Y-108402880D01*
X150638976Y-108402880D02*
X151210404Y-108402880D01*
X150924690Y-108402880D02*
X150924690Y-107402880D01*
X151019928Y-107545738D01*
X151115166Y-107640976D01*
X151210404Y-107688595D01*
X163067547Y-109148119D02*
X163019928Y-109100500D01*
X162924690Y-109052880D01*
X162686595Y-109052880D01*
X162591357Y-109100500D01*
X162543738Y-109148119D01*
X162496119Y-109243357D01*
X162496119Y-109338595D01*
X162543738Y-109481452D01*
X163115166Y-110052880D01*
X162496119Y-110052880D01*
X161877071Y-109052880D02*
X161781833Y-109052880D01*
X161686595Y-109100500D01*
X161638976Y-109148119D01*
X161591357Y-109243357D01*
X161543738Y-109433833D01*
X161543738Y-109671928D01*
X161591357Y-109862404D01*
X161638976Y-109957642D01*
X161686595Y-110005261D01*
X161781833Y-110052880D01*
X161877071Y-110052880D01*
X161972309Y-110005261D01*
X162019928Y-109957642D01*
X162067547Y-109862404D01*
X162115166Y-109671928D01*
X162115166Y-109433833D01*
X162067547Y-109243357D01*
X162019928Y-109148119D01*
X161972309Y-109100500D01*
X161877071Y-109052880D01*
X161162785Y-109148119D02*
X161115166Y-109100500D01*
X161019928Y-109052880D01*
X160781833Y-109052880D01*
X160686595Y-109100500D01*
X160638976Y-109148119D01*
X160591357Y-109243357D01*
X160591357Y-109338595D01*
X160638976Y-109481452D01*
X161210404Y-110052880D01*
X160591357Y-110052880D01*
X159972309Y-109052880D02*
X159877071Y-109052880D01*
X159781833Y-109100500D01*
X159734214Y-109148119D01*
X159686595Y-109243357D01*
X159638976Y-109433833D01*
X159638976Y-109671928D01*
X159686595Y-109862404D01*
X159734214Y-109957642D01*
X159781833Y-110005261D01*
X159877071Y-110052880D01*
X159972309Y-110052880D01*
X160067547Y-110005261D01*
X160115166Y-109957642D01*
X160162785Y-109862404D01*
X160210404Y-109671928D01*
X160210404Y-109433833D01*
X160162785Y-109243357D01*
X160115166Y-109148119D01*
X160067547Y-109100500D01*
X159972309Y-109052880D01*
X158686595Y-110052880D02*
X159258023Y-110052880D01*
X158972309Y-110052880D02*
X158972309Y-109052880D01*
X159067547Y-109195738D01*
X159162785Y-109290976D01*
X159258023Y-109338595D01*
X157734214Y-110052880D02*
X158305642Y-110052880D01*
X158019928Y-110052880D02*
X158019928Y-109052880D01*
X158115166Y-109195738D01*
X158210404Y-109290976D01*
X158305642Y-109338595D01*
X157353261Y-109148119D02*
X157305642Y-109100500D01*
X157210404Y-109052880D01*
X156972309Y-109052880D01*
X156877071Y-109100500D01*
X156829452Y-109148119D01*
X156781833Y-109243357D01*
X156781833Y-109338595D01*
X156829452Y-109481452D01*
X157400880Y-110052880D01*
X156781833Y-110052880D01*
X156400880Y-109148119D02*
X156353261Y-109100500D01*
X156258023Y-109052880D01*
X156019928Y-109052880D01*
X155924690Y-109100500D01*
X155877071Y-109148119D01*
X155829452Y-109243357D01*
X155829452Y-109338595D01*
X155877071Y-109481452D01*
X156448500Y-110052880D01*
X155829452Y-110052880D01*
D11*
%TO.C,U3*%
X154678000Y-84636000D02*
X154378000Y-84636000D01*
X154378000Y-84636000D02*
X154378000Y-84336000D01*
X161298000Y-84636000D02*
X161598000Y-84636000D01*
X161598000Y-84636000D02*
X161598000Y-84336000D01*
X154678000Y-77416000D02*
X154378000Y-77416000D01*
X154378000Y-77416000D02*
X154378000Y-77716000D01*
X161298000Y-77416000D02*
X161598000Y-77416000D01*
X161598000Y-77416000D02*
X161598000Y-77716000D01*
X161598000Y-77716000D02*
X162913000Y-77716000D01*
%TO.C,J3*%
X169612000Y-113598000D02*
X170942000Y-113598000D01*
X169612000Y-112268000D02*
X169612000Y-113598000D01*
X169612000Y-110998000D02*
X172272000Y-110998000D01*
X172272000Y-110998000D02*
X172272000Y-67758000D01*
X169612000Y-110998000D02*
X169612000Y-67758000D01*
X169612000Y-67758000D02*
X172272000Y-67758000D01*
%TO.C,C2*%
X163197000Y-74441267D02*
X163197000Y-74148733D01*
X162177000Y-74441267D02*
X162177000Y-74148733D01*
%TO.C,C3*%
X150221733Y-68836000D02*
X150514267Y-68836000D01*
X150221733Y-67816000D02*
X150514267Y-67816000D01*
%TO.C,C4*%
X163891500Y-74441267D02*
X163891500Y-74148733D01*
X164911500Y-74441267D02*
X164911500Y-74148733D01*
%TO.C,C5*%
X150195233Y-70360000D02*
X150487767Y-70360000D01*
X150195233Y-69340000D02*
X150487767Y-69340000D01*
%TO.C,C7*%
X151636000Y-92956767D02*
X151636000Y-92664233D01*
X152656000Y-92956767D02*
X152656000Y-92664233D01*
%TO.C,C9*%
X152719500Y-87166233D02*
X152719500Y-87458767D01*
X151699500Y-87166233D02*
X151699500Y-87458767D01*
%TO.C,C10*%
X163959000Y-99433767D02*
X163959000Y-99141233D01*
X162939000Y-99433767D02*
X162939000Y-99141233D01*
%TO.C,C11*%
X151636000Y-99460267D02*
X151636000Y-99167733D01*
X152656000Y-99460267D02*
X152656000Y-99167733D01*
%TO.C,C12*%
X150932267Y-85282500D02*
X150639733Y-85282500D01*
X150932267Y-84262500D02*
X150639733Y-84262500D01*
%TO.C,C13*%
X149858000Y-92956767D02*
X149858000Y-92664233D01*
X150878000Y-92956767D02*
X150878000Y-92664233D01*
%TO.C,C14*%
X153350500Y-87166233D02*
X153350500Y-87458767D01*
X154370500Y-87166233D02*
X154370500Y-87458767D01*
%TO.C,C15*%
X164510767Y-95823500D02*
X164218233Y-95823500D01*
X164510767Y-94803500D02*
X164218233Y-94803500D01*
%TO.C,C16*%
X151403267Y-94803500D02*
X151110733Y-94803500D01*
X151403267Y-95823500D02*
X151110733Y-95823500D01*
%TO.C,C17*%
X153354500Y-71356267D02*
X153354500Y-71063733D01*
X152334500Y-71356267D02*
X152334500Y-71063733D01*
%TO.C,J4*%
X143958000Y-67758000D02*
X146618000Y-67758000D01*
X143958000Y-110998000D02*
X143958000Y-67758000D01*
X146618000Y-110998000D02*
X146618000Y-67758000D01*
X143958000Y-110998000D02*
X146618000Y-110998000D01*
X143958000Y-112268000D02*
X143958000Y-113598000D01*
X143958000Y-113598000D02*
X145288000Y-113598000D01*
%TO.C,R1*%
X159780500Y-101116224D02*
X159780500Y-100606776D01*
X158735500Y-101116224D02*
X158735500Y-100606776D01*
%TO.C,R2*%
X157558000Y-101092724D02*
X157558000Y-100583276D01*
X156513000Y-101092724D02*
X156513000Y-100583276D01*
%TO.C,R3*%
X161558500Y-100606776D02*
X161558500Y-101116224D01*
X160513500Y-100606776D02*
X160513500Y-101116224D01*
%TO.C,R4*%
X164656224Y-102313000D02*
X164146776Y-102313000D01*
X164656224Y-101268000D02*
X164146776Y-101268000D01*
%TO.C,R5*%
X154608000Y-100583276D02*
X154608000Y-101092724D01*
X155653000Y-100583276D02*
X155653000Y-101092724D01*
%TO.C,R6*%
X151002276Y-102313000D02*
X151511724Y-102313000D01*
X151002276Y-101268000D02*
X151511724Y-101268000D01*
%TO.C,R7*%
X164768000Y-99035776D02*
X164768000Y-99545224D01*
X165813000Y-99035776D02*
X165813000Y-99545224D01*
%TO.C,R8*%
X150890500Y-99059276D02*
X150890500Y-99568724D01*
X149845500Y-99059276D02*
X149845500Y-99568724D01*
%TO.C,R9*%
X164616224Y-97360000D02*
X164106776Y-97360000D01*
X164616224Y-96315000D02*
X164106776Y-96315000D01*
%TO.C,R10*%
X151002276Y-97360000D02*
X151511724Y-97360000D01*
X151002276Y-96315000D02*
X151511724Y-96315000D01*
%TO.C,R14*%
X150622724Y-71423000D02*
X150113276Y-71423000D01*
X150622724Y-72468000D02*
X150113276Y-72468000D01*
%TO.C,R16*%
X150622724Y-73992000D02*
X150113276Y-73992000D01*
X150622724Y-72947000D02*
X150113276Y-72947000D01*
%TO.C,R17*%
X147369000Y-70420776D02*
X147369000Y-70930224D01*
X148414000Y-70420776D02*
X148414000Y-70930224D01*
%TO.C,R19*%
X149581776Y-79135500D02*
X150091224Y-79135500D01*
X149581776Y-78090500D02*
X150091224Y-78090500D01*
%TO.C,R20*%
X149518276Y-82027500D02*
X150027724Y-82027500D01*
X149518276Y-83072500D02*
X150027724Y-83072500D01*
%TO.C,U2*%
X158051500Y-98762500D02*
X156101500Y-98762500D01*
X158051500Y-98762500D02*
X160001500Y-98762500D01*
X158051500Y-93642500D02*
X156101500Y-93642500D01*
X158051500Y-93642500D02*
X161501500Y-93642500D01*
%TO.C,U3*%
D10*
X158749904Y-74598380D02*
X158749904Y-75407904D01*
X158702285Y-75503142D01*
X158654666Y-75550761D01*
X158559428Y-75598380D01*
X158368952Y-75598380D01*
X158273714Y-75550761D01*
X158226095Y-75503142D01*
X158178476Y-75407904D01*
X158178476Y-74598380D01*
X157797523Y-74598380D02*
X157178476Y-74598380D01*
X157511809Y-74979333D01*
X157368952Y-74979333D01*
X157273714Y-75026952D01*
X157226095Y-75074571D01*
X157178476Y-75169809D01*
X157178476Y-75407904D01*
X157226095Y-75503142D01*
X157273714Y-75550761D01*
X157368952Y-75598380D01*
X157654666Y-75598380D01*
X157749904Y-75550761D01*
X157797523Y-75503142D01*
%TO.C,J3*%
X168544833Y-112926880D02*
X168544833Y-113641166D01*
X168592452Y-113784023D01*
X168687690Y-113879261D01*
X168830547Y-113926880D01*
X168925785Y-113926880D01*
X168163880Y-112926880D02*
X167544833Y-112926880D01*
X167878166Y-113307833D01*
X167735309Y-113307833D01*
X167640071Y-113355452D01*
X167592452Y-113403071D01*
X167544833Y-113498309D01*
X167544833Y-113736404D01*
X167592452Y-113831642D01*
X167640071Y-113879261D01*
X167735309Y-113926880D01*
X168021023Y-113926880D01*
X168116261Y-113879261D01*
X168163880Y-113831642D01*
%TO.C,C2*%
X161139166Y-73546142D02*
X161186785Y-73593761D01*
X161329642Y-73641380D01*
X161424880Y-73641380D01*
X161567738Y-73593761D01*
X161662976Y-73498523D01*
X161710595Y-73403285D01*
X161758214Y-73212809D01*
X161758214Y-73069952D01*
X161710595Y-72879476D01*
X161662976Y-72784238D01*
X161567738Y-72689000D01*
X161424880Y-72641380D01*
X161329642Y-72641380D01*
X161186785Y-72689000D01*
X161139166Y-72736619D01*
X160758214Y-72736619D02*
X160710595Y-72689000D01*
X160615357Y-72641380D01*
X160377261Y-72641380D01*
X160282023Y-72689000D01*
X160234404Y-72736619D01*
X160186785Y-72831857D01*
X160186785Y-72927095D01*
X160234404Y-73069952D01*
X160805833Y-73641380D01*
X160186785Y-73641380D01*
%TO.C,C3*%
X147867666Y-68556142D02*
X147915285Y-68603761D01*
X148058142Y-68651380D01*
X148153380Y-68651380D01*
X148296238Y-68603761D01*
X148391476Y-68508523D01*
X148439095Y-68413285D01*
X148486714Y-68222809D01*
X148486714Y-68079952D01*
X148439095Y-67889476D01*
X148391476Y-67794238D01*
X148296238Y-67699000D01*
X148153380Y-67651380D01*
X148058142Y-67651380D01*
X147915285Y-67699000D01*
X147867666Y-67746619D01*
X147534333Y-67651380D02*
X146915285Y-67651380D01*
X147248619Y-68032333D01*
X147105761Y-68032333D01*
X147010523Y-68079952D01*
X146962904Y-68127571D01*
X146915285Y-68222809D01*
X146915285Y-68460904D01*
X146962904Y-68556142D01*
X147010523Y-68603761D01*
X147105761Y-68651380D01*
X147391476Y-68651380D01*
X147486714Y-68603761D01*
X147534333Y-68556142D01*
%TO.C,C4*%
X164568166Y-72366142D02*
X164615785Y-72413761D01*
X164758642Y-72461380D01*
X164853880Y-72461380D01*
X164996738Y-72413761D01*
X165091976Y-72318523D01*
X165139595Y-72223285D01*
X165187214Y-72032809D01*
X165187214Y-71889952D01*
X165139595Y-71699476D01*
X165091976Y-71604238D01*
X164996738Y-71509000D01*
X164853880Y-71461380D01*
X164758642Y-71461380D01*
X164615785Y-71509000D01*
X164568166Y-71556619D01*
X163711023Y-71794714D02*
X163711023Y-72461380D01*
X163949119Y-71413761D02*
X164187214Y-72128047D01*
X163568166Y-72128047D01*
%TO.C,C5*%
X153074666Y-69381642D02*
X153122285Y-69429261D01*
X153265142Y-69476880D01*
X153360380Y-69476880D01*
X153503238Y-69429261D01*
X153598476Y-69334023D01*
X153646095Y-69238785D01*
X153693714Y-69048309D01*
X153693714Y-68905452D01*
X153646095Y-68714976D01*
X153598476Y-68619738D01*
X153503238Y-68524500D01*
X153360380Y-68476880D01*
X153265142Y-68476880D01*
X153122285Y-68524500D01*
X153074666Y-68572119D01*
X152169904Y-68476880D02*
X152646095Y-68476880D01*
X152693714Y-68953071D01*
X152646095Y-68905452D01*
X152550857Y-68857833D01*
X152312761Y-68857833D01*
X152217523Y-68905452D01*
X152169904Y-68953071D01*
X152122285Y-69048309D01*
X152122285Y-69286404D01*
X152169904Y-69381642D01*
X152217523Y-69429261D01*
X152312761Y-69476880D01*
X152550857Y-69476880D01*
X152646095Y-69429261D01*
X152693714Y-69381642D01*
%TO.C,C7*%
X154154142Y-91945333D02*
X154201761Y-91897714D01*
X154249380Y-91754857D01*
X154249380Y-91659619D01*
X154201761Y-91516761D01*
X154106523Y-91421523D01*
X154011285Y-91373904D01*
X153820809Y-91326285D01*
X153677952Y-91326285D01*
X153487476Y-91373904D01*
X153392238Y-91421523D01*
X153297000Y-91516761D01*
X153249380Y-91659619D01*
X153249380Y-91754857D01*
X153297000Y-91897714D01*
X153344619Y-91945333D01*
X153249380Y-92278666D02*
X153249380Y-92945333D01*
X154249380Y-92516761D01*
%TO.C,C9*%
X152630142Y-89749333D02*
X152677761Y-89701714D01*
X152725380Y-89558857D01*
X152725380Y-89463619D01*
X152677761Y-89320761D01*
X152582523Y-89225523D01*
X152487285Y-89177904D01*
X152296809Y-89130285D01*
X152153952Y-89130285D01*
X151963476Y-89177904D01*
X151868238Y-89225523D01*
X151773000Y-89320761D01*
X151725380Y-89463619D01*
X151725380Y-89558857D01*
X151773000Y-89701714D01*
X151820619Y-89749333D01*
X152725380Y-90225523D02*
X152725380Y-90416000D01*
X152677761Y-90511238D01*
X152630142Y-90558857D01*
X152487285Y-90654095D01*
X152296809Y-90701714D01*
X151915857Y-90701714D01*
X151820619Y-90654095D01*
X151773000Y-90606476D01*
X151725380Y-90511238D01*
X151725380Y-90320761D01*
X151773000Y-90225523D01*
X151820619Y-90177904D01*
X151915857Y-90130285D01*
X152153952Y-90130285D01*
X152249190Y-90177904D01*
X152296809Y-90225523D01*
X152344428Y-90320761D01*
X152344428Y-90511238D01*
X152296809Y-90606476D01*
X152249190Y-90654095D01*
X152153952Y-90701714D01*
%TO.C,C10*%
X162599642Y-98734642D02*
X162647261Y-98687023D01*
X162694880Y-98544166D01*
X162694880Y-98448928D01*
X162647261Y-98306071D01*
X162552023Y-98210833D01*
X162456785Y-98163214D01*
X162266309Y-98115595D01*
X162123452Y-98115595D01*
X161932976Y-98163214D01*
X161837738Y-98210833D01*
X161742500Y-98306071D01*
X161694880Y-98448928D01*
X161694880Y-98544166D01*
X161742500Y-98687023D01*
X161790119Y-98734642D01*
X162694880Y-99687023D02*
X162694880Y-99115595D01*
X162694880Y-99401309D02*
X161694880Y-99401309D01*
X161837738Y-99306071D01*
X161932976Y-99210833D01*
X161980595Y-99115595D01*
X161694880Y-100306071D02*
X161694880Y-100401309D01*
X161742500Y-100496547D01*
X161790119Y-100544166D01*
X161885357Y-100591785D01*
X162075833Y-100639404D01*
X162313928Y-100639404D01*
X162504404Y-100591785D01*
X162599642Y-100544166D01*
X162647261Y-100496547D01*
X162694880Y-100401309D01*
X162694880Y-100306071D01*
X162647261Y-100210833D01*
X162599642Y-100163214D01*
X162504404Y-100115595D01*
X162313928Y-100067976D01*
X162075833Y-100067976D01*
X161885357Y-100115595D01*
X161790119Y-100163214D01*
X161742500Y-100210833D01*
X161694880Y-100306071D01*
%TO.C,C11*%
X153963642Y-98734642D02*
X154011261Y-98687023D01*
X154058880Y-98544166D01*
X154058880Y-98448928D01*
X154011261Y-98306071D01*
X153916023Y-98210833D01*
X153820785Y-98163214D01*
X153630309Y-98115595D01*
X153487452Y-98115595D01*
X153296976Y-98163214D01*
X153201738Y-98210833D01*
X153106500Y-98306071D01*
X153058880Y-98448928D01*
X153058880Y-98544166D01*
X153106500Y-98687023D01*
X153154119Y-98734642D01*
X154058880Y-99687023D02*
X154058880Y-99115595D01*
X154058880Y-99401309D02*
X153058880Y-99401309D01*
X153201738Y-99306071D01*
X153296976Y-99210833D01*
X153344595Y-99115595D01*
X154058880Y-100639404D02*
X154058880Y-100067976D01*
X154058880Y-100353690D02*
X153058880Y-100353690D01*
X153201738Y-100258452D01*
X153296976Y-100163214D01*
X153344595Y-100067976D01*
%TO.C,C12*%
X149814857Y-86526642D02*
X149862476Y-86574261D01*
X150005333Y-86621880D01*
X150100571Y-86621880D01*
X150243428Y-86574261D01*
X150338666Y-86479023D01*
X150386285Y-86383785D01*
X150433904Y-86193309D01*
X150433904Y-86050452D01*
X150386285Y-85859976D01*
X150338666Y-85764738D01*
X150243428Y-85669500D01*
X150100571Y-85621880D01*
X150005333Y-85621880D01*
X149862476Y-85669500D01*
X149814857Y-85717119D01*
X148862476Y-86621880D02*
X149433904Y-86621880D01*
X149148190Y-86621880D02*
X149148190Y-85621880D01*
X149243428Y-85764738D01*
X149338666Y-85859976D01*
X149433904Y-85907595D01*
X148481523Y-85717119D02*
X148433904Y-85669500D01*
X148338666Y-85621880D01*
X148100571Y-85621880D01*
X148005333Y-85669500D01*
X147957714Y-85717119D01*
X147910095Y-85812357D01*
X147910095Y-85907595D01*
X147957714Y-86050452D01*
X148529142Y-86621880D01*
X147910095Y-86621880D01*
%TO.C,C13*%
X149201142Y-92167642D02*
X149248761Y-92120023D01*
X149296380Y-91977166D01*
X149296380Y-91881928D01*
X149248761Y-91739071D01*
X149153523Y-91643833D01*
X149058285Y-91596214D01*
X148867809Y-91548595D01*
X148724952Y-91548595D01*
X148534476Y-91596214D01*
X148439238Y-91643833D01*
X148344000Y-91739071D01*
X148296380Y-91881928D01*
X148296380Y-91977166D01*
X148344000Y-92120023D01*
X148391619Y-92167642D01*
X149296380Y-93120023D02*
X149296380Y-92548595D01*
X149296380Y-92834309D02*
X148296380Y-92834309D01*
X148439238Y-92739071D01*
X148534476Y-92643833D01*
X148582095Y-92548595D01*
X148296380Y-93453357D02*
X148296380Y-94072404D01*
X148677333Y-93739071D01*
X148677333Y-93881928D01*
X148724952Y-93977166D01*
X148772571Y-94024785D01*
X148867809Y-94072404D01*
X149105904Y-94072404D01*
X149201142Y-94024785D01*
X149248761Y-93977166D01*
X149296380Y-93881928D01*
X149296380Y-93596214D01*
X149248761Y-93500976D01*
X149201142Y-93453357D01*
%TO.C,C14*%
X155805142Y-86669642D02*
X155852761Y-86622023D01*
X155900380Y-86479166D01*
X155900380Y-86383928D01*
X155852761Y-86241071D01*
X155757523Y-86145833D01*
X155662285Y-86098214D01*
X155471809Y-86050595D01*
X155328952Y-86050595D01*
X155138476Y-86098214D01*
X155043238Y-86145833D01*
X154948000Y-86241071D01*
X154900380Y-86383928D01*
X154900380Y-86479166D01*
X154948000Y-86622023D01*
X154995619Y-86669642D01*
X155900380Y-87622023D02*
X155900380Y-87050595D01*
X155900380Y-87336309D02*
X154900380Y-87336309D01*
X155043238Y-87241071D01*
X155138476Y-87145833D01*
X155186095Y-87050595D01*
X155233714Y-88479166D02*
X155900380Y-88479166D01*
X154852761Y-88241071D02*
X155567047Y-88002976D01*
X155567047Y-88622023D01*
%TO.C,C15*%
X165007357Y-94240642D02*
X165054976Y-94288261D01*
X165197833Y-94335880D01*
X165293071Y-94335880D01*
X165435928Y-94288261D01*
X165531166Y-94193023D01*
X165578785Y-94097785D01*
X165626404Y-93907309D01*
X165626404Y-93764452D01*
X165578785Y-93573976D01*
X165531166Y-93478738D01*
X165435928Y-93383500D01*
X165293071Y-93335880D01*
X165197833Y-93335880D01*
X165054976Y-93383500D01*
X165007357Y-93431119D01*
X164054976Y-94335880D02*
X164626404Y-94335880D01*
X164340690Y-94335880D02*
X164340690Y-93335880D01*
X164435928Y-93478738D01*
X164531166Y-93573976D01*
X164626404Y-93621595D01*
X163150214Y-93335880D02*
X163626404Y-93335880D01*
X163674023Y-93812071D01*
X163626404Y-93764452D01*
X163531166Y-93716833D01*
X163293071Y-93716833D01*
X163197833Y-93764452D01*
X163150214Y-93812071D01*
X163102595Y-93907309D01*
X163102595Y-94145404D01*
X163150214Y-94240642D01*
X163197833Y-94288261D01*
X163293071Y-94335880D01*
X163531166Y-94335880D01*
X163626404Y-94288261D01*
X163674023Y-94240642D01*
%TO.C,C16*%
X148851857Y-95797642D02*
X148899476Y-95845261D01*
X149042333Y-95892880D01*
X149137571Y-95892880D01*
X149280428Y-95845261D01*
X149375666Y-95750023D01*
X149423285Y-95654785D01*
X149470904Y-95464309D01*
X149470904Y-95321452D01*
X149423285Y-95130976D01*
X149375666Y-95035738D01*
X149280428Y-94940500D01*
X149137571Y-94892880D01*
X149042333Y-94892880D01*
X148899476Y-94940500D01*
X148851857Y-94988119D01*
X147899476Y-95892880D02*
X148470904Y-95892880D01*
X148185190Y-95892880D02*
X148185190Y-94892880D01*
X148280428Y-95035738D01*
X148375666Y-95130976D01*
X148470904Y-95178595D01*
X147042333Y-94892880D02*
X147232809Y-94892880D01*
X147328047Y-94940500D01*
X147375666Y-94988119D01*
X147470904Y-95130976D01*
X147518523Y-95321452D01*
X147518523Y-95702404D01*
X147470904Y-95797642D01*
X147423285Y-95845261D01*
X147328047Y-95892880D01*
X147137571Y-95892880D01*
X147042333Y-95845261D01*
X146994714Y-95797642D01*
X146947095Y-95702404D01*
X146947095Y-95464309D01*
X146994714Y-95369071D01*
X147042333Y-95321452D01*
X147137571Y-95273833D01*
X147328047Y-95273833D01*
X147423285Y-95321452D01*
X147470904Y-95369071D01*
X147518523Y-95464309D01*
%TO.C,C17*%
X154631642Y-70567142D02*
X154679261Y-70519523D01*
X154726880Y-70376666D01*
X154726880Y-70281428D01*
X154679261Y-70138571D01*
X154584023Y-70043333D01*
X154488785Y-69995714D01*
X154298309Y-69948095D01*
X154155452Y-69948095D01*
X153964976Y-69995714D01*
X153869738Y-70043333D01*
X153774500Y-70138571D01*
X153726880Y-70281428D01*
X153726880Y-70376666D01*
X153774500Y-70519523D01*
X153822119Y-70567142D01*
X154726880Y-71519523D02*
X154726880Y-70948095D01*
X154726880Y-71233809D02*
X153726880Y-71233809D01*
X153869738Y-71138571D01*
X153964976Y-71043333D01*
X154012595Y-70948095D01*
X153726880Y-71852857D02*
X153726880Y-72519523D01*
X154726880Y-72090952D01*
%TO.C,J4*%
X148415333Y-113053880D02*
X148415333Y-113768166D01*
X148462952Y-113911023D01*
X148558190Y-114006261D01*
X148701047Y-114053880D01*
X148796285Y-114053880D01*
X147510571Y-113387214D02*
X147510571Y-114053880D01*
X147748666Y-113006261D02*
X147986761Y-113720547D01*
X147367714Y-113720547D01*
%TO.C,R1*%
X159710380Y-103338333D02*
X159234190Y-103005000D01*
X159710380Y-102766904D02*
X158710380Y-102766904D01*
X158710380Y-103147857D01*
X158758000Y-103243095D01*
X158805619Y-103290714D01*
X158900857Y-103338333D01*
X159043714Y-103338333D01*
X159138952Y-103290714D01*
X159186571Y-103243095D01*
X159234190Y-103147857D01*
X159234190Y-102766904D01*
X159710380Y-104290714D02*
X159710380Y-103719285D01*
X159710380Y-104005000D02*
X158710380Y-104005000D01*
X158853238Y-103909761D01*
X158948476Y-103814523D01*
X158996095Y-103719285D01*
%TO.C,R2*%
X157551380Y-103274833D02*
X157075190Y-102941500D01*
X157551380Y-102703404D02*
X156551380Y-102703404D01*
X156551380Y-103084357D01*
X156599000Y-103179595D01*
X156646619Y-103227214D01*
X156741857Y-103274833D01*
X156884714Y-103274833D01*
X156979952Y-103227214D01*
X157027571Y-103179595D01*
X157075190Y-103084357D01*
X157075190Y-102703404D01*
X156646619Y-103655785D02*
X156599000Y-103703404D01*
X156551380Y-103798642D01*
X156551380Y-104036738D01*
X156599000Y-104131976D01*
X156646619Y-104179595D01*
X156741857Y-104227214D01*
X156837095Y-104227214D01*
X156979952Y-104179595D01*
X157551380Y-103608166D01*
X157551380Y-104227214D01*
%TO.C,R3*%
X161615380Y-103274833D02*
X161139190Y-102941500D01*
X161615380Y-102703404D02*
X160615380Y-102703404D01*
X160615380Y-103084357D01*
X160663000Y-103179595D01*
X160710619Y-103227214D01*
X160805857Y-103274833D01*
X160948714Y-103274833D01*
X161043952Y-103227214D01*
X161091571Y-103179595D01*
X161139190Y-103084357D01*
X161139190Y-102703404D01*
X160615380Y-103608166D02*
X160615380Y-104227214D01*
X160996333Y-103893880D01*
X160996333Y-104036738D01*
X161043952Y-104131976D01*
X161091571Y-104179595D01*
X161186809Y-104227214D01*
X161424904Y-104227214D01*
X161520142Y-104179595D01*
X161567761Y-104131976D01*
X161615380Y-104036738D01*
X161615380Y-103751023D01*
X161567761Y-103655785D01*
X161520142Y-103608166D01*
%TO.C,R4*%
X164631666Y-103766880D02*
X164965000Y-103290690D01*
X165203095Y-103766880D02*
X165203095Y-102766880D01*
X164822142Y-102766880D01*
X164726904Y-102814500D01*
X164679285Y-102862119D01*
X164631666Y-102957357D01*
X164631666Y-103100214D01*
X164679285Y-103195452D01*
X164726904Y-103243071D01*
X164822142Y-103290690D01*
X165203095Y-103290690D01*
X163774523Y-103100214D02*
X163774523Y-103766880D01*
X164012619Y-102719261D02*
X164250714Y-103433547D01*
X163631666Y-103433547D01*
%TO.C,R5*%
X155582880Y-103338333D02*
X155106690Y-103005000D01*
X155582880Y-102766904D02*
X154582880Y-102766904D01*
X154582880Y-103147857D01*
X154630500Y-103243095D01*
X154678119Y-103290714D01*
X154773357Y-103338333D01*
X154916214Y-103338333D01*
X155011452Y-103290714D01*
X155059071Y-103243095D01*
X155106690Y-103147857D01*
X155106690Y-102766904D01*
X154582880Y-104243095D02*
X154582880Y-103766904D01*
X155059071Y-103719285D01*
X155011452Y-103766904D01*
X154963833Y-103862142D01*
X154963833Y-104100238D01*
X155011452Y-104195476D01*
X155059071Y-104243095D01*
X155154309Y-104290714D01*
X155392404Y-104290714D01*
X155487642Y-104243095D01*
X155535261Y-104195476D01*
X155582880Y-104100238D01*
X155582880Y-103862142D01*
X155535261Y-103766904D01*
X155487642Y-103719285D01*
%TO.C,R6*%
X151423666Y-103672880D02*
X151757000Y-103196690D01*
X151995095Y-103672880D02*
X151995095Y-102672880D01*
X151614142Y-102672880D01*
X151518904Y-102720500D01*
X151471285Y-102768119D01*
X151423666Y-102863357D01*
X151423666Y-103006214D01*
X151471285Y-103101452D01*
X151518904Y-103149071D01*
X151614142Y-103196690D01*
X151995095Y-103196690D01*
X150566523Y-102672880D02*
X150757000Y-102672880D01*
X150852238Y-102720500D01*
X150899857Y-102768119D01*
X150995095Y-102910976D01*
X151042714Y-103101452D01*
X151042714Y-103482404D01*
X150995095Y-103577642D01*
X150947476Y-103625261D01*
X150852238Y-103672880D01*
X150661761Y-103672880D01*
X150566523Y-103625261D01*
X150518904Y-103577642D01*
X150471285Y-103482404D01*
X150471285Y-103244309D01*
X150518904Y-103149071D01*
X150566523Y-103101452D01*
X150661761Y-103053833D01*
X150852238Y-103053833D01*
X150947476Y-103101452D01*
X150995095Y-103149071D01*
X151042714Y-103244309D01*
%TO.C,R7*%
X167520880Y-99187333D02*
X167044690Y-98854000D01*
X167520880Y-98615904D02*
X166520880Y-98615904D01*
X166520880Y-98996857D01*
X166568500Y-99092095D01*
X166616119Y-99139714D01*
X166711357Y-99187333D01*
X166854214Y-99187333D01*
X166949452Y-99139714D01*
X166997071Y-99092095D01*
X167044690Y-98996857D01*
X167044690Y-98615904D01*
X166520880Y-99520666D02*
X166520880Y-100187333D01*
X167520880Y-99758761D01*
%TO.C,R8*%
X149169380Y-99147333D02*
X148693190Y-98814000D01*
X149169380Y-98575904D02*
X148169380Y-98575904D01*
X148169380Y-98956857D01*
X148217000Y-99052095D01*
X148264619Y-99099714D01*
X148359857Y-99147333D01*
X148502714Y-99147333D01*
X148597952Y-99099714D01*
X148645571Y-99052095D01*
X148693190Y-98956857D01*
X148693190Y-98575904D01*
X148597952Y-99718761D02*
X148550333Y-99623523D01*
X148502714Y-99575904D01*
X148407476Y-99528285D01*
X148359857Y-99528285D01*
X148264619Y-99575904D01*
X148217000Y-99623523D01*
X148169380Y-99718761D01*
X148169380Y-99909238D01*
X148217000Y-100004476D01*
X148264619Y-100052095D01*
X148359857Y-100099714D01*
X148407476Y-100099714D01*
X148502714Y-100052095D01*
X148550333Y-100004476D01*
X148597952Y-99909238D01*
X148597952Y-99718761D01*
X148645571Y-99623523D01*
X148693190Y-99575904D01*
X148788428Y-99528285D01*
X148978904Y-99528285D01*
X149074142Y-99575904D01*
X149121761Y-99623523D01*
X149169380Y-99718761D01*
X149169380Y-99909238D01*
X149121761Y-100004476D01*
X149074142Y-100052095D01*
X148978904Y-100099714D01*
X148788428Y-100099714D01*
X148693190Y-100052095D01*
X148645571Y-100004476D01*
X148597952Y-99909238D01*
%TO.C,R9*%
X167235166Y-97353380D02*
X167568500Y-96877190D01*
X167806595Y-97353380D02*
X167806595Y-96353380D01*
X167425642Y-96353380D01*
X167330404Y-96401000D01*
X167282785Y-96448619D01*
X167235166Y-96543857D01*
X167235166Y-96686714D01*
X167282785Y-96781952D01*
X167330404Y-96829571D01*
X167425642Y-96877190D01*
X167806595Y-96877190D01*
X166758976Y-97353380D02*
X166568500Y-97353380D01*
X166473261Y-97305761D01*
X166425642Y-97258142D01*
X166330404Y-97115285D01*
X166282785Y-96924809D01*
X166282785Y-96543857D01*
X166330404Y-96448619D01*
X166378023Y-96401000D01*
X166473261Y-96353380D01*
X166663738Y-96353380D01*
X166758976Y-96401000D01*
X166806595Y-96448619D01*
X166854214Y-96543857D01*
X166854214Y-96781952D01*
X166806595Y-96877190D01*
X166758976Y-96924809D01*
X166663738Y-96972428D01*
X166473261Y-96972428D01*
X166378023Y-96924809D01*
X166330404Y-96877190D01*
X166282785Y-96781952D01*
%TO.C,R10*%
X148724857Y-97289880D02*
X149058190Y-96813690D01*
X149296285Y-97289880D02*
X149296285Y-96289880D01*
X148915333Y-96289880D01*
X148820095Y-96337500D01*
X148772476Y-96385119D01*
X148724857Y-96480357D01*
X148724857Y-96623214D01*
X148772476Y-96718452D01*
X148820095Y-96766071D01*
X148915333Y-96813690D01*
X149296285Y-96813690D01*
X147772476Y-97289880D02*
X148343904Y-97289880D01*
X148058190Y-97289880D02*
X148058190Y-96289880D01*
X148153428Y-96432738D01*
X148248666Y-96527976D01*
X148343904Y-96575595D01*
X147153428Y-96289880D02*
X147058190Y-96289880D01*
X146962952Y-96337500D01*
X146915333Y-96385119D01*
X146867714Y-96480357D01*
X146820095Y-96670833D01*
X146820095Y-96908928D01*
X146867714Y-97099404D01*
X146915333Y-97194642D01*
X146962952Y-97242261D01*
X147058190Y-97289880D01*
X147153428Y-97289880D01*
X147248666Y-97242261D01*
X147296285Y-97194642D01*
X147343904Y-97099404D01*
X147391523Y-96908928D01*
X147391523Y-96670833D01*
X147343904Y-96480357D01*
X147296285Y-96385119D01*
X147248666Y-96337500D01*
X147153428Y-96289880D01*
%TO.C,R14*%
X150923857Y-71445380D02*
X151257190Y-70969190D01*
X151495285Y-71445380D02*
X151495285Y-70445380D01*
X151114333Y-70445380D01*
X151019095Y-70493000D01*
X150971476Y-70540619D01*
X150923857Y-70635857D01*
X150923857Y-70778714D01*
X150971476Y-70873952D01*
X151019095Y-70921571D01*
X151114333Y-70969190D01*
X151495285Y-70969190D01*
X149971476Y-71445380D02*
X150542904Y-71445380D01*
X150257190Y-71445380D02*
X150257190Y-70445380D01*
X150352428Y-70588238D01*
X150447666Y-70683476D01*
X150542904Y-70731095D01*
X149114333Y-70778714D02*
X149114333Y-71445380D01*
X149352428Y-70397761D02*
X149590523Y-71112047D01*
X148971476Y-71112047D01*
%TO.C,R16*%
X151010857Y-75382380D02*
X151344190Y-74906190D01*
X151582285Y-75382380D02*
X151582285Y-74382380D01*
X151201333Y-74382380D01*
X151106095Y-74430000D01*
X151058476Y-74477619D01*
X151010857Y-74572857D01*
X151010857Y-74715714D01*
X151058476Y-74810952D01*
X151106095Y-74858571D01*
X151201333Y-74906190D01*
X151582285Y-74906190D01*
X150058476Y-75382380D02*
X150629904Y-75382380D01*
X150344190Y-75382380D02*
X150344190Y-74382380D01*
X150439428Y-74525238D01*
X150534666Y-74620476D01*
X150629904Y-74668095D01*
X149201333Y-74382380D02*
X149391809Y-74382380D01*
X149487047Y-74430000D01*
X149534666Y-74477619D01*
X149629904Y-74620476D01*
X149677523Y-74810952D01*
X149677523Y-75191904D01*
X149629904Y-75287142D01*
X149582285Y-75334761D01*
X149487047Y-75382380D01*
X149296571Y-75382380D01*
X149201333Y-75334761D01*
X149153714Y-75287142D01*
X149106095Y-75191904D01*
X149106095Y-74953809D01*
X149153714Y-74858571D01*
X149201333Y-74810952D01*
X149296571Y-74763333D01*
X149487047Y-74763333D01*
X149582285Y-74810952D01*
X149629904Y-74858571D01*
X149677523Y-74953809D01*
%TO.C,R17*%
X148280380Y-73104142D02*
X147804190Y-72770809D01*
X148280380Y-72532714D02*
X147280380Y-72532714D01*
X147280380Y-72913666D01*
X147328000Y-73008904D01*
X147375619Y-73056523D01*
X147470857Y-73104142D01*
X147613714Y-73104142D01*
X147708952Y-73056523D01*
X147756571Y-73008904D01*
X147804190Y-72913666D01*
X147804190Y-72532714D01*
X148280380Y-74056523D02*
X148280380Y-73485095D01*
X148280380Y-73770809D02*
X147280380Y-73770809D01*
X147423238Y-73675571D01*
X147518476Y-73580333D01*
X147566095Y-73485095D01*
X147280380Y-74389857D02*
X147280380Y-75056523D01*
X148280380Y-74627952D01*
%TO.C,R19*%
X150542857Y-77668380D02*
X150876190Y-77192190D01*
X151114285Y-77668380D02*
X151114285Y-76668380D01*
X150733333Y-76668380D01*
X150638095Y-76716000D01*
X150590476Y-76763619D01*
X150542857Y-76858857D01*
X150542857Y-77001714D01*
X150590476Y-77096952D01*
X150638095Y-77144571D01*
X150733333Y-77192190D01*
X151114285Y-77192190D01*
X149590476Y-77668380D02*
X150161904Y-77668380D01*
X149876190Y-77668380D02*
X149876190Y-76668380D01*
X149971428Y-76811238D01*
X150066666Y-76906476D01*
X150161904Y-76954095D01*
X149114285Y-77668380D02*
X148923809Y-77668380D01*
X148828571Y-77620761D01*
X148780952Y-77573142D01*
X148685714Y-77430285D01*
X148638095Y-77239809D01*
X148638095Y-76858857D01*
X148685714Y-76763619D01*
X148733333Y-76716000D01*
X148828571Y-76668380D01*
X149019047Y-76668380D01*
X149114285Y-76716000D01*
X149161904Y-76763619D01*
X149209523Y-76858857D01*
X149209523Y-77096952D01*
X149161904Y-77192190D01*
X149114285Y-77239809D01*
X149019047Y-77287428D01*
X148828571Y-77287428D01*
X148733333Y-77239809D01*
X148685714Y-77192190D01*
X148638095Y-77096952D01*
%TO.C,R20*%
X147962880Y-82097642D02*
X147486690Y-81764309D01*
X147962880Y-81526214D02*
X146962880Y-81526214D01*
X146962880Y-81907166D01*
X147010500Y-82002404D01*
X147058119Y-82050023D01*
X147153357Y-82097642D01*
X147296214Y-82097642D01*
X147391452Y-82050023D01*
X147439071Y-82002404D01*
X147486690Y-81907166D01*
X147486690Y-81526214D01*
X147058119Y-82478595D02*
X147010500Y-82526214D01*
X146962880Y-82621452D01*
X146962880Y-82859547D01*
X147010500Y-82954785D01*
X147058119Y-83002404D01*
X147153357Y-83050023D01*
X147248595Y-83050023D01*
X147391452Y-83002404D01*
X147962880Y-82430976D01*
X147962880Y-83050023D01*
X146962880Y-83669071D02*
X146962880Y-83764309D01*
X147010500Y-83859547D01*
X147058119Y-83907166D01*
X147153357Y-83954785D01*
X147343833Y-84002404D01*
X147581928Y-84002404D01*
X147772404Y-83954785D01*
X147867642Y-83907166D01*
X147915261Y-83859547D01*
X147962880Y-83764309D01*
X147962880Y-83669071D01*
X147915261Y-83573833D01*
X147867642Y-83526214D01*
X147772404Y-83478595D01*
X147581928Y-83430976D01*
X147343833Y-83430976D01*
X147153357Y-83478595D01*
X147058119Y-83526214D01*
X147010500Y-83573833D01*
X146962880Y-83669071D01*
%TO.C,U2*%
X158813404Y-92254880D02*
X158813404Y-93064404D01*
X158765785Y-93159642D01*
X158718166Y-93207261D01*
X158622928Y-93254880D01*
X158432452Y-93254880D01*
X158337214Y-93207261D01*
X158289595Y-93159642D01*
X158241976Y-93064404D01*
X158241976Y-92254880D01*
X157813404Y-92350119D02*
X157765785Y-92302500D01*
X157670547Y-92254880D01*
X157432452Y-92254880D01*
X157337214Y-92302500D01*
X157289595Y-92350119D01*
X157241976Y-92445357D01*
X157241976Y-92540595D01*
X157289595Y-92683452D01*
X157861023Y-93254880D01*
X157241976Y-93254880D01*
%TD*%
M02*
