M48
; DRILL file {KiCad 5.1.8} date Sun Nov 22 16:30:32 2020
; FORMAT={-:-/ absolute / inch / decimal}
; #@! TF.CreationDate,2020-11-22T16:30:32+03:00
; #@! TF.GenerationSoftware,Kicad,Pcbnew,5.1.8
; #@! TF.FileFunction,Plated,1,4,PTH
FMAT,2
INCH
T1C0.0157
T2C0.0394
%
G90
G05
T1
X5.8Y-4.0
X5.8Y-4.0725
X5.815Y-3.2425
X5.8255Y-2.803
X5.8273Y-3.7048
X5.8299Y-3.1393
X5.8299Y-3.2905
X5.842Y-3.5805
X5.849Y-3.6193
X5.8556Y-3.6766
X5.8775Y-4.26
X5.8975Y-4.0725
X5.9325Y-4.26
X5.9375Y-4.175
X5.945Y-4.0725
X5.9775Y-3.035
X5.9788Y-3.2515
X5.9875Y-3.455
X5.9875Y-4.175
X5.9895Y-3.1393
X5.993Y-3.2141
X6.0675Y-4.315
X6.0716Y-3.534
X6.0775Y-4.085
X6.08Y-2.7375
X6.1Y-2.785
X6.1005Y-3.5968
X6.1031Y-3.5008
X6.1065Y-3.5579
X6.1173Y-3.2375
X6.1175Y-4.255
X6.1375Y-4.055
X6.1375Y-4.325
X6.1575Y-2.775
X6.1575Y-3.625
X6.1575Y-4.225
X6.1575Y-3.145
X6.171Y-3.5652
X6.175Y-3.4975
X6.1875Y-4.065
X6.1975Y-3.705
X6.1975Y-3.835
X6.2075Y-3.775
X6.2246Y-3.498
X6.2275Y-4.065
X6.2275Y-4.325
X6.2277Y-3.2375
X6.2375Y-2.775
X6.2375Y-3.815
X6.2575Y-2.8732
X6.2592Y-3.201
X6.2765Y-3.1456
X6.2927Y-3.5374
X6.3075Y-4.325
X6.3675Y-3.535
X6.3675Y-4.325
X6.3798Y-3.4705
X6.3875Y-3.955
X6.3925Y-3.7275
X6.3975Y-2.785
X6.405Y-2.891
X6.4065Y-3.509
X6.4175Y-4.305
X6.4239Y-3.7674
X6.4529Y-3.43
X6.46Y-3.2775
X6.4629Y-3.5289
X6.4675Y-2.775
X6.4814Y-3.3264
X6.4875Y-4.295
X6.4927Y-3.6227
X6.5212Y-4.1737
X6.5427Y-3.6448
X6.5575Y-3.79
X6.5662Y-3.3913
X6.5975Y-4.2
X6.6115Y-2.9109
X6.6121Y-3.8829
X6.6125Y-3.925
X6.6256Y-2.8594
X6.6457Y-3.7325
X6.6626Y-3.6753
X6.67Y-3.77
X6.6737Y-3.9295
T2
X6.3275Y-4.4225
X6.4275Y-4.4225
X6.5275Y-4.4225
X5.72Y-2.72
X5.72Y-2.82
X5.72Y-2.92
X5.72Y-3.02
X5.72Y-3.12
X5.72Y-3.22
X5.72Y-3.32
X5.72Y-3.42
X5.72Y-3.52
X5.72Y-3.62
X5.72Y-3.72
X5.72Y-3.82
X5.72Y-3.92
X5.72Y-4.02
X5.72Y-4.12
X5.72Y-4.22
X5.72Y-4.32
X5.72Y-4.42
X6.73Y-2.72
X6.73Y-2.82
X6.73Y-2.92
X6.73Y-3.02
X6.73Y-3.12
X6.73Y-3.22
X6.73Y-3.32
X6.73Y-3.42
X6.73Y-3.52
X6.73Y-3.62
X6.73Y-3.72
X6.73Y-3.82
X6.73Y-3.92
X6.73Y-4.02
X6.73Y-4.12
X6.73Y-4.22
X6.73Y-4.32
X6.73Y-4.42
X5.9375Y-4.4225
X6.0375Y-4.4225
X6.1375Y-4.4225
T0
M30
