%TF.GenerationSoftware,KiCad,Pcbnew,5.1.8*%
%TF.CreationDate,2020-12-08T15:37:19+03:00*%
%TF.ProjectId,pss_mcu_pcb,7073735f-6d63-4755-9f70-63622e6b6963,rev?*%
%TF.SameCoordinates,Original*%
%TF.FileFunction,Copper,L1,Top*%
%TF.FilePolarity,Positive*%
%FSLAX46Y46*%
G04 Gerber Fmt 4.6, Leading zero omitted, Abs format (unit mm)*
G04 Created by KiCad (PCBNEW 5.1.8) date 2020-12-08 15:37:19*
%MOMM*%
%LPD*%
G01*
G04 APERTURE LIST*
%TA.AperFunction,SMDPad,CuDef*%
%ADD10R,5.000000X5.000000*%
%TD*%
%TA.AperFunction,SMDPad,CuDef*%
%ADD11R,2.000000X0.900000*%
%TD*%
%TA.AperFunction,SMDPad,CuDef*%
%ADD12R,0.900000X2.000000*%
%TD*%
%TA.AperFunction,ComponentPad*%
%ADD13O,1.700000X1.700000*%
%TD*%
%TA.AperFunction,ComponentPad*%
%ADD14R,1.700000X1.700000*%
%TD*%
%TA.AperFunction,SMDPad,CuDef*%
%ADD15R,1.700000X0.900000*%
%TD*%
%TA.AperFunction,SMDPad,CuDef*%
%ADD16R,1.000000X1.500000*%
%TD*%
%TA.AperFunction,SMDPad,CuDef*%
%ADD17R,3.800000X2.000000*%
%TD*%
%TA.AperFunction,SMDPad,CuDef*%
%ADD18R,1.500000X2.000000*%
%TD*%
%TA.AperFunction,ViaPad*%
%ADD19C,0.800000*%
%TD*%
%TA.AperFunction,Conductor*%
%ADD20C,0.250000*%
%TD*%
%TA.AperFunction,Conductor*%
%ADD21C,1.500000*%
%TD*%
%TA.AperFunction,Conductor*%
%ADD22C,0.500000*%
%TD*%
%TA.AperFunction,Conductor*%
%ADD23C,1.000000*%
%TD*%
%TA.AperFunction,Conductor*%
%ADD24C,0.254000*%
%TD*%
%TA.AperFunction,Conductor*%
%ADD25C,0.100000*%
%TD*%
G04 APERTURE END LIST*
D10*
%TO.P,U4,39*%
%TO.N,GND*%
X157178500Y-76080000D03*
D11*
%TO.P,U4,1*%
X149678500Y-68580000D03*
%TO.P,U4,2*%
%TO.N,+3V3*%
X149678500Y-69850000D03*
%TO.P,U4,3*%
%TO.N,EN*%
X149678500Y-71120000D03*
%TO.P,U4,4*%
%TO.N,N/C*%
X149678500Y-72390000D03*
%TO.P,U4,5*%
X149678500Y-73660000D03*
%TO.P,U4,6*%
%TO.N,Main_Enc_A*%
X149678500Y-74930000D03*
%TO.P,U4,7*%
%TO.N,Main_Enc_B*%
X149678500Y-76200000D03*
%TO.P,U4,8*%
%TO.N,Main_Switch*%
X149678500Y-77470000D03*
%TO.P,U4,9*%
%TO.N,N/C*%
X149678500Y-78740000D03*
%TO.P,U4,10*%
X149678500Y-80010000D03*
%TO.P,U4,11*%
%TO.N,ESP32_UART_TX*%
X149678500Y-81280000D03*
%TO.P,U4,12*%
%TO.N,ESP32_UART_RX*%
X149678500Y-82550000D03*
%TO.P,U4,13*%
%TO.N,N/C*%
X149678500Y-83820000D03*
%TO.P,U4,14*%
X149678500Y-85090000D03*
D12*
%TO.P,U4,15*%
%TO.N,GND*%
X152463500Y-86090000D03*
%TO.P,U4,16*%
%TO.N,SD_CS*%
X153733500Y-86090000D03*
%TO.P,U4,17*%
%TO.N,N/C*%
X155003500Y-86090000D03*
%TO.P,U4,18*%
X156273500Y-86090000D03*
%TO.P,U4,19*%
X157543500Y-86090000D03*
%TO.P,U4,20*%
%TO.N,SD_SCK*%
X158813500Y-86090000D03*
%TO.P,U4,21*%
%TO.N,SD_SDI*%
X160083500Y-86090000D03*
%TO.P,U4,22*%
%TO.N,SD_SDO*%
X161353500Y-86090000D03*
%TO.P,U4,23*%
%TO.N,DISP_T_DO*%
X162623500Y-86090000D03*
%TO.P,U4,24*%
%TO.N,DISP_T_IRQ*%
X163893500Y-86090000D03*
D11*
%TO.P,U4,25*%
%TO.N,Boot*%
X166678500Y-85090000D03*
%TO.P,U4,26*%
%TO.N,DISP_T_DIN*%
X166678500Y-83820000D03*
%TO.P,U4,27*%
%TO.N,DISP_T_CS*%
X166678500Y-82550000D03*
%TO.P,U4,28*%
%TO.N,DISP_T_CLK*%
X166678500Y-81280000D03*
%TO.P,U4,29*%
%TO.N,DISP_SDO*%
X166678500Y-80010000D03*
%TO.P,U4,30*%
%TO.N,DISP_SCK*%
X166678500Y-78740000D03*
%TO.P,U4,31*%
%TO.N,DISP_SDI*%
X166678500Y-77470000D03*
%TO.P,U4,32*%
%TO.N,N/C*%
X166678500Y-76200000D03*
%TO.P,U4,33*%
%TO.N,DISP_DC_RS*%
X166678500Y-74930000D03*
%TO.P,U4,34*%
%TO.N,RXD*%
X166678500Y-73660000D03*
%TO.P,U4,35*%
%TO.N,TXD*%
X166678500Y-72390000D03*
%TO.P,U4,36*%
%TO.N,DISP_RST*%
X166678500Y-71120000D03*
%TO.P,U4,37*%
%TO.N,DISP_CS*%
X166678500Y-69850000D03*
%TO.P,U4,38*%
%TO.N,GND*%
X166678500Y-68580000D03*
%TD*%
D13*
%TO.P,J3,18*%
%TO.N,GND*%
X170942000Y-69088000D03*
%TO.P,J3,17*%
%TO.N,DISP_CS*%
X170942000Y-71628000D03*
%TO.P,J3,16*%
%TO.N,DISP_RST*%
X170942000Y-74168000D03*
%TO.P,J3,15*%
%TO.N,DISP_DC_RS*%
X170942000Y-76708000D03*
%TO.P,J3,14*%
%TO.N,DISP_SDI*%
X170942000Y-79248000D03*
%TO.P,J3,13*%
%TO.N,DISP_SCK*%
X170942000Y-81788000D03*
%TO.P,J3,12*%
%TO.N,DISP_SDO*%
X170942000Y-84328000D03*
%TO.P,J3,11*%
%TO.N,DISP_T_CLK*%
X170942000Y-86868000D03*
%TO.P,J3,10*%
%TO.N,DISP_T_CS*%
X170942000Y-89408000D03*
%TO.P,J3,9*%
%TO.N,DISP_T_DIN*%
X170942000Y-91948000D03*
%TO.P,J3,8*%
%TO.N,DISP_T_DO*%
X170942000Y-94488000D03*
%TO.P,J3,7*%
%TO.N,DISP_T_IRQ*%
X170942000Y-97028000D03*
%TO.P,J3,6*%
%TO.N,SD_SDO*%
X170942000Y-99568000D03*
%TO.P,J3,5*%
%TO.N,SD_SDI*%
X170942000Y-102108000D03*
%TO.P,J3,4*%
%TO.N,SD_SCK*%
X170942000Y-104648000D03*
%TO.P,J3,3*%
%TO.N,SD_CS*%
X170942000Y-107188000D03*
%TO.P,J3,2*%
%TO.N,GND*%
X170942000Y-109728000D03*
D14*
%TO.P,J3,1*%
%TO.N,+3V3*%
X170942000Y-112268000D03*
%TD*%
D15*
%TO.P,SW3,2*%
%TO.N,Net-(R18-Pad2)*%
X150876000Y-90614500D03*
%TO.P,SW3,1*%
%TO.N,STM_RST*%
X150876000Y-94014500D03*
%TD*%
%TO.P,SW2,2*%
%TO.N,EN*%
X158369000Y-90692500D03*
%TO.P,SW2,1*%
%TO.N,GND*%
X158369000Y-94092500D03*
%TD*%
%TO.P,SW1,2*%
%TO.N,Boot*%
X165100000Y-90678000D03*
%TO.P,SW1,1*%
%TO.N,Net-(R12-Pad1)*%
X165100000Y-94078000D03*
%TD*%
%TO.P,D1,2*%
%TO.N,Net-(D1-Pad2)*%
%TA.AperFunction,SMDPad,CuDef*%
G36*
G01*
X168068000Y-103423000D02*
X167593000Y-103423000D01*
G75*
G02*
X167355500Y-103185500I0J237500D01*
G01*
X167355500Y-102610500D01*
G75*
G02*
X167593000Y-102373000I237500J0D01*
G01*
X168068000Y-102373000D01*
G75*
G02*
X168305500Y-102610500I0J-237500D01*
G01*
X168305500Y-103185500D01*
G75*
G02*
X168068000Y-103423000I-237500J0D01*
G01*
G37*
%TD.AperFunction*%
%TO.P,D1,1*%
%TO.N,GND*%
%TA.AperFunction,SMDPad,CuDef*%
G36*
G01*
X168068000Y-105173000D02*
X167593000Y-105173000D01*
G75*
G02*
X167355500Y-104935500I0J237500D01*
G01*
X167355500Y-104360500D01*
G75*
G02*
X167593000Y-104123000I237500J0D01*
G01*
X168068000Y-104123000D01*
G75*
G02*
X168305500Y-104360500I0J-237500D01*
G01*
X168305500Y-104935500D01*
G75*
G02*
X168068000Y-105173000I-237500J0D01*
G01*
G37*
%TD.AperFunction*%
%TD*%
%TO.P,C1,2*%
%TO.N,GND*%
%TA.AperFunction,SMDPad,CuDef*%
G36*
G01*
X152701000Y-103397000D02*
X152226000Y-103397000D01*
G75*
G02*
X151988500Y-103159500I0J237500D01*
G01*
X151988500Y-102559500D01*
G75*
G02*
X152226000Y-102322000I237500J0D01*
G01*
X152701000Y-102322000D01*
G75*
G02*
X152938500Y-102559500I0J-237500D01*
G01*
X152938500Y-103159500D01*
G75*
G02*
X152701000Y-103397000I-237500J0D01*
G01*
G37*
%TD.AperFunction*%
%TO.P,C1,1*%
%TO.N,+5V*%
%TA.AperFunction,SMDPad,CuDef*%
G36*
G01*
X152701000Y-105122000D02*
X152226000Y-105122000D01*
G75*
G02*
X151988500Y-104884500I0J237500D01*
G01*
X151988500Y-104284500D01*
G75*
G02*
X152226000Y-104047000I237500J0D01*
G01*
X152701000Y-104047000D01*
G75*
G02*
X152938500Y-104284500I0J-237500D01*
G01*
X152938500Y-104884500D01*
G75*
G02*
X152701000Y-105122000I-237500J0D01*
G01*
G37*
%TD.AperFunction*%
%TD*%
%TO.P,C6,2*%
%TO.N,GND*%
%TA.AperFunction,SMDPad,CuDef*%
G36*
G01*
X164385000Y-103497500D02*
X163910000Y-103497500D01*
G75*
G02*
X163672500Y-103260000I0J237500D01*
G01*
X163672500Y-102660000D01*
G75*
G02*
X163910000Y-102422500I237500J0D01*
G01*
X164385000Y-102422500D01*
G75*
G02*
X164622500Y-102660000I0J-237500D01*
G01*
X164622500Y-103260000D01*
G75*
G02*
X164385000Y-103497500I-237500J0D01*
G01*
G37*
%TD.AperFunction*%
%TO.P,C6,1*%
%TO.N,+3V3*%
%TA.AperFunction,SMDPad,CuDef*%
G36*
G01*
X164385000Y-105222500D02*
X163910000Y-105222500D01*
G75*
G02*
X163672500Y-104985000I0J237500D01*
G01*
X163672500Y-104385000D01*
G75*
G02*
X163910000Y-104147500I237500J0D01*
G01*
X164385000Y-104147500D01*
G75*
G02*
X164622500Y-104385000I0J-237500D01*
G01*
X164622500Y-104985000D01*
G75*
G02*
X164385000Y-105222500I-237500J0D01*
G01*
G37*
%TD.AperFunction*%
%TD*%
%TO.P,C8,1*%
%TO.N,+3V3*%
%TA.AperFunction,SMDPad,CuDef*%
G36*
G01*
X149818000Y-96363000D02*
X150918000Y-96363000D01*
G75*
G02*
X151168000Y-96613000I0J-250000D01*
G01*
X151168000Y-98713000D01*
G75*
G02*
X150918000Y-98963000I-250000J0D01*
G01*
X149818000Y-98963000D01*
G75*
G02*
X149568000Y-98713000I0J250000D01*
G01*
X149568000Y-96613000D01*
G75*
G02*
X149818000Y-96363000I250000J0D01*
G01*
G37*
%TD.AperFunction*%
%TO.P,C8,2*%
%TO.N,GND*%
%TA.AperFunction,SMDPad,CuDef*%
G36*
G01*
X149818000Y-99963000D02*
X150918000Y-99963000D01*
G75*
G02*
X151168000Y-100213000I0J-250000D01*
G01*
X151168000Y-102313000D01*
G75*
G02*
X150918000Y-102563000I-250000J0D01*
G01*
X149818000Y-102563000D01*
G75*
G02*
X149568000Y-102313000I0J250000D01*
G01*
X149568000Y-100213000D01*
G75*
G02*
X149818000Y-99963000I250000J0D01*
G01*
G37*
%TD.AperFunction*%
%TD*%
D13*
%TO.P,J1,3*%
%TO.N,STM_SWCLK*%
X150812500Y-112331500D03*
%TO.P,J1,2*%
%TO.N,STM_SWDIO*%
X153352500Y-112331500D03*
D14*
%TO.P,J1,1*%
%TO.N,GND*%
X155892500Y-112331500D03*
%TD*%
%TO.P,J2,1*%
%TO.N,TXD*%
X165798500Y-112331500D03*
D13*
%TO.P,J2,2*%
%TO.N,RXD*%
X163258500Y-112331500D03*
%TO.P,J2,3*%
%TO.N,GND*%
X160718500Y-112331500D03*
%TD*%
D14*
%TO.P,J4,1*%
%TO.N,GND*%
X145288000Y-112268000D03*
D13*
%TO.P,J4,2*%
%TO.N,+5V*%
X145288000Y-109728000D03*
%TO.P,J4,3*%
%TO.N,Iron_Therm_Pos*%
X145288000Y-107188000D03*
%TO.P,J4,4*%
%TO.N,Hot_Air_Therm_Pos*%
X145288000Y-104648000D03*
%TO.P,J4,5*%
%TO.N,Sold_PWM*%
X145288000Y-102108000D03*
%TO.P,J4,6*%
%TO.N,Sold_Switch*%
X145288000Y-99568000D03*
%TO.P,J4,7*%
%TO.N,Heater_PWM*%
X145288000Y-97028000D03*
%TO.P,J4,8*%
%TO.N,HotA_Enc_A*%
X145288000Y-94488000D03*
%TO.P,J4,9*%
%TO.N,Sold_Enc_B*%
X145288000Y-91948000D03*
%TO.P,J4,10*%
%TO.N,Sold_Enc_A*%
X145288000Y-89408000D03*
%TO.P,J4,11*%
%TO.N,HotA_Switch*%
X145288000Y-86868000D03*
%TO.P,J4,12*%
%TO.N,Fan_PWM*%
X145288000Y-84328000D03*
%TO.P,J4,13*%
%TO.N,Hot_Air_Reed*%
X145288000Y-81788000D03*
%TO.P,J4,14*%
%TO.N,HotA_Enc_B*%
X145288000Y-79248000D03*
%TO.P,J4,15*%
%TO.N,Main_Switch*%
X145288000Y-76708000D03*
%TO.P,J4,16*%
%TO.N,Main_Enc_B*%
X145288000Y-74168000D03*
%TO.P,J4,17*%
%TO.N,Main_Enc_A*%
X145288000Y-71628000D03*
%TO.P,J4,18*%
%TO.N,+3V3*%
X145288000Y-69088000D03*
%TD*%
D16*
%TO.P,JP1,3*%
%TO.N,Net-(JP1-Pad3)*%
X166844500Y-98679000D03*
%TO.P,JP1,2*%
%TO.N,STM_BOOT*%
X165544500Y-98679000D03*
%TO.P,JP1,1*%
%TO.N,Net-(JP1-Pad1)*%
X164244500Y-98679000D03*
%TD*%
%TO.P,R11,2*%
%TO.N,+3V3*%
%TA.AperFunction,SMDPad,CuDef*%
G36*
G01*
X163873000Y-100981500D02*
X163873000Y-101456500D01*
G75*
G02*
X163635500Y-101694000I-237500J0D01*
G01*
X163135500Y-101694000D01*
G75*
G02*
X162898000Y-101456500I0J237500D01*
G01*
X162898000Y-100981500D01*
G75*
G02*
X163135500Y-100744000I237500J0D01*
G01*
X163635500Y-100744000D01*
G75*
G02*
X163873000Y-100981500I0J-237500D01*
G01*
G37*
%TD.AperFunction*%
%TO.P,R11,1*%
%TO.N,Net-(JP1-Pad1)*%
%TA.AperFunction,SMDPad,CuDef*%
G36*
G01*
X165698000Y-100981500D02*
X165698000Y-101456500D01*
G75*
G02*
X165460500Y-101694000I-237500J0D01*
G01*
X164960500Y-101694000D01*
G75*
G02*
X164723000Y-101456500I0J237500D01*
G01*
X164723000Y-100981500D01*
G75*
G02*
X164960500Y-100744000I237500J0D01*
G01*
X165460500Y-100744000D01*
G75*
G02*
X165698000Y-100981500I0J-237500D01*
G01*
G37*
%TD.AperFunction*%
%TD*%
%TO.P,R12,2*%
%TO.N,GND*%
%TA.AperFunction,SMDPad,CuDef*%
G36*
G01*
X167814000Y-92245000D02*
X167339000Y-92245000D01*
G75*
G02*
X167101500Y-92007500I0J237500D01*
G01*
X167101500Y-91507500D01*
G75*
G02*
X167339000Y-91270000I237500J0D01*
G01*
X167814000Y-91270000D01*
G75*
G02*
X168051500Y-91507500I0J-237500D01*
G01*
X168051500Y-92007500D01*
G75*
G02*
X167814000Y-92245000I-237500J0D01*
G01*
G37*
%TD.AperFunction*%
%TO.P,R12,1*%
%TO.N,Net-(R12-Pad1)*%
%TA.AperFunction,SMDPad,CuDef*%
G36*
G01*
X167814000Y-94070000D02*
X167339000Y-94070000D01*
G75*
G02*
X167101500Y-93832500I0J237500D01*
G01*
X167101500Y-93332500D01*
G75*
G02*
X167339000Y-93095000I237500J0D01*
G01*
X167814000Y-93095000D01*
G75*
G02*
X168051500Y-93332500I0J-237500D01*
G01*
X168051500Y-93832500D01*
G75*
G02*
X167814000Y-94070000I-237500J0D01*
G01*
G37*
%TD.AperFunction*%
%TD*%
%TO.P,R13,1*%
%TO.N,Net-(D1-Pad2)*%
%TA.AperFunction,SMDPad,CuDef*%
G36*
G01*
X165688000Y-102399000D02*
X166163000Y-102399000D01*
G75*
G02*
X166400500Y-102636500I0J-237500D01*
G01*
X166400500Y-103136500D01*
G75*
G02*
X166163000Y-103374000I-237500J0D01*
G01*
X165688000Y-103374000D01*
G75*
G02*
X165450500Y-103136500I0J237500D01*
G01*
X165450500Y-102636500D01*
G75*
G02*
X165688000Y-102399000I237500J0D01*
G01*
G37*
%TD.AperFunction*%
%TO.P,R13,2*%
%TO.N,+3V3*%
%TA.AperFunction,SMDPad,CuDef*%
G36*
G01*
X165688000Y-104224000D02*
X166163000Y-104224000D01*
G75*
G02*
X166400500Y-104461500I0J-237500D01*
G01*
X166400500Y-104961500D01*
G75*
G02*
X166163000Y-105199000I-237500J0D01*
G01*
X165688000Y-105199000D01*
G75*
G02*
X165450500Y-104961500I0J237500D01*
G01*
X165450500Y-104461500D01*
G75*
G02*
X165688000Y-104224000I237500J0D01*
G01*
G37*
%TD.AperFunction*%
%TD*%
%TO.P,R15,1*%
%TO.N,GND*%
%TA.AperFunction,SMDPad,CuDef*%
G36*
G01*
X169103500Y-100981500D02*
X169103500Y-101456500D01*
G75*
G02*
X168866000Y-101694000I-237500J0D01*
G01*
X168366000Y-101694000D01*
G75*
G02*
X168128500Y-101456500I0J237500D01*
G01*
X168128500Y-100981500D01*
G75*
G02*
X168366000Y-100744000I237500J0D01*
G01*
X168866000Y-100744000D01*
G75*
G02*
X169103500Y-100981500I0J-237500D01*
G01*
G37*
%TD.AperFunction*%
%TO.P,R15,2*%
%TO.N,Net-(JP1-Pad3)*%
%TA.AperFunction,SMDPad,CuDef*%
G36*
G01*
X167278500Y-100981500D02*
X167278500Y-101456500D01*
G75*
G02*
X167041000Y-101694000I-237500J0D01*
G01*
X166541000Y-101694000D01*
G75*
G02*
X166303500Y-101456500I0J237500D01*
G01*
X166303500Y-100981500D01*
G75*
G02*
X166541000Y-100744000I237500J0D01*
G01*
X167041000Y-100744000D01*
G75*
G02*
X167278500Y-100981500I0J-237500D01*
G01*
G37*
%TD.AperFunction*%
%TD*%
%TO.P,R18,2*%
%TO.N,Net-(R18-Pad2)*%
%TA.AperFunction,SMDPad,CuDef*%
G36*
G01*
X153653500Y-91927500D02*
X153178500Y-91927500D01*
G75*
G02*
X152941000Y-91690000I0J237500D01*
G01*
X152941000Y-91190000D01*
G75*
G02*
X153178500Y-90952500I237500J0D01*
G01*
X153653500Y-90952500D01*
G75*
G02*
X153891000Y-91190000I0J-237500D01*
G01*
X153891000Y-91690000D01*
G75*
G02*
X153653500Y-91927500I-237500J0D01*
G01*
G37*
%TD.AperFunction*%
%TO.P,R18,1*%
%TO.N,GND*%
%TA.AperFunction,SMDPad,CuDef*%
G36*
G01*
X153653500Y-93752500D02*
X153178500Y-93752500D01*
G75*
G02*
X152941000Y-93515000I0J237500D01*
G01*
X152941000Y-93015000D01*
G75*
G02*
X153178500Y-92777500I237500J0D01*
G01*
X153653500Y-92777500D01*
G75*
G02*
X153891000Y-93015000I0J-237500D01*
G01*
X153891000Y-93515000D01*
G75*
G02*
X153653500Y-93752500I-237500J0D01*
G01*
G37*
%TD.AperFunction*%
%TD*%
D17*
%TO.P,U1,4*%
%TO.N,GND*%
X158369000Y-98831000D03*
D18*
%TO.P,U1,2*%
X158369000Y-105131000D03*
%TO.P,U1,3*%
%TO.N,+3V3*%
X160669000Y-105131000D03*
%TO.P,U1,1*%
%TO.N,+5V*%
X156069000Y-105131000D03*
%TD*%
D19*
%TO.N,GND*%
X155829000Y-74612500D03*
X158394400Y-98806000D03*
X158432500Y-96901000D03*
X157670500Y-95885000D03*
X157416500Y-97409000D03*
X157416500Y-94107000D03*
X167576500Y-106680000D03*
X164782500Y-109093000D03*
X163004500Y-109347000D03*
X161734500Y-109855000D03*
X160210500Y-109855000D03*
X158178500Y-109855000D03*
X155892500Y-109855000D03*
X154114500Y-109601000D03*
X152082500Y-106045000D03*
X150812500Y-106045000D03*
X157162500Y-103251000D03*
X158178500Y-103251000D03*
X156400500Y-107315000D03*
X155384500Y-108077000D03*
X160578800Y-103073200D03*
X154076400Y-88188800D03*
X152082500Y-87757000D03*
X154940000Y-70739000D03*
X158432500Y-70485000D03*
X156400500Y-70485000D03*
X162496500Y-70739000D03*
X162687000Y-73432500D03*
X163167224Y-95691956D03*
X152196800Y-92049600D03*
X149707600Y-86258400D03*
X148640800Y-86309200D03*
X148488400Y-87376000D03*
X161671000Y-103073200D03*
X167449500Y-104521000D03*
X149796500Y-103441500D03*
X151003000Y-103441500D03*
X147320000Y-103441500D03*
X147320000Y-101600000D03*
X157226000Y-74676000D03*
X158813500Y-74676000D03*
X168509901Y-101353727D03*
X167487600Y-87630000D03*
X167589200Y-89255600D03*
X169041955Y-91757500D03*
%TO.N,+3V3*%
X162496500Y-76327000D03*
X164528500Y-76327000D03*
X164782500Y-77597000D03*
X162750500Y-77597000D03*
X153365200Y-95656400D03*
X161226500Y-107759500D03*
X162623500Y-107759500D03*
X164147500Y-107759500D03*
X153618371Y-84123971D03*
X160669000Y-105131000D03*
X154622500Y-94361000D03*
X154614742Y-92213710D03*
X160669000Y-105131000D03*
%TO.N,EN*%
X147966750Y-71195250D03*
X164274500Y-70485000D03*
X154432000Y-69532500D03*
X166185725Y-92577989D03*
X166782479Y-86140012D03*
X161250790Y-91738089D03*
%TO.N,STM_SWCLK*%
X149288500Y-108204000D03*
X151828500Y-77089000D03*
X147881042Y-94120919D03*
X148386567Y-90941866D03*
%TO.N,STM_SWDIO*%
X150685500Y-108204000D03*
X155380175Y-82231603D03*
X156400504Y-79883000D03*
X148550790Y-93378314D03*
X148550790Y-91928302D03*
%TO.N,TXD*%
X169418000Y-95758000D03*
X168290209Y-72628790D03*
X169512137Y-99808885D03*
%TO.N,RXD*%
X169230044Y-93351689D03*
X167930997Y-73935702D03*
X167946176Y-98626824D03*
%TO.N,SD_SCK*%
X166560500Y-96266000D03*
X164084000Y-83248500D03*
X164157122Y-89635220D03*
X167957500Y-99695000D03*
%TO.N,SD_SDO*%
X162047562Y-88151757D03*
%TO.N,SD_SDI*%
X164628487Y-84489675D03*
X168800514Y-94806539D03*
X160078417Y-88708390D03*
X162725440Y-94216608D03*
%TO.N,SD_CS*%
X162242500Y-100457000D03*
X165639005Y-106010718D03*
%TO.N,DISP_T_IRQ*%
X163903477Y-87121055D03*
%TO.N,Sold_PWM*%
X156468795Y-92308125D03*
X154706133Y-91117501D03*
%TO.N,Heater_PWM*%
X157764378Y-89058120D03*
X153963811Y-89762520D03*
%TO.N,HotA_Enc_A*%
X156792162Y-88823984D03*
X155019886Y-88752807D03*
%TO.N,Sold_Switch*%
X156751206Y-90549486D03*
X155110356Y-90202827D03*
%TO.N,STM_BOOT*%
X158940500Y-72979958D03*
%TO.N,ESP32_UART_TX*%
X148078478Y-79737883D03*
%TO.N,STM_UART_RX*%
X152133632Y-79737892D03*
X158182403Y-82231629D03*
%TO.N,STM_UART_TX*%
X151861326Y-82588111D03*
X158983188Y-81305045D03*
%TO.N,ESP32_UART_RX*%
X148078500Y-83578819D03*
%TO.N,STM_RST*%
X159424274Y-79897907D03*
X152222356Y-81637914D03*
X147701000Y-82359500D03*
%TO.N,DISP_T_DO*%
X162724874Y-89127756D03*
X164913852Y-92017260D03*
%TD*%
D20*
%TO.N,GND*%
X153496000Y-93345000D02*
X153416000Y-93265000D01*
X152463500Y-86090000D02*
X152463500Y-87376000D01*
X152463500Y-87376000D02*
X152082500Y-87757000D01*
X168509901Y-101325099D02*
X168509901Y-101353727D01*
X168616000Y-101219000D02*
X168509901Y-101325099D01*
X156574500Y-93265000D02*
X157416500Y-94107000D01*
X153416000Y-93265000D02*
X156574500Y-93265000D01*
X167576500Y-91757500D02*
X169041955Y-91757500D01*
X166627510Y-103699010D02*
X167449500Y-104521000D01*
X164886510Y-103699010D02*
X166627510Y-103699010D01*
X164147500Y-102960000D02*
X164886510Y-103699010D01*
D21*
%TO.N,+5V*%
X151472000Y-109728000D02*
X153237750Y-107962250D01*
X145288000Y-109728000D02*
X151472000Y-109728000D01*
D22*
X153010000Y-105131000D02*
X152463500Y-104584500D01*
X156069000Y-105131000D02*
X153010000Y-105131000D01*
D21*
X153237750Y-107962250D02*
X156069000Y-105131000D01*
D22*
%TO.N,+3V3*%
X163701500Y-105131000D02*
X164147500Y-104685000D01*
X165899000Y-104685000D02*
X165925500Y-104711500D01*
X164147500Y-104685000D02*
X165899000Y-104685000D01*
X162916000Y-105131000D02*
X163701500Y-105131000D01*
X160669000Y-105131000D02*
X160669000Y-105131000D01*
X163385500Y-101219000D02*
X163122490Y-101482010D01*
D23*
X146050000Y-69850000D02*
X149678500Y-69850000D01*
X145288000Y-69088000D02*
X146050000Y-69850000D01*
D22*
X150368000Y-95821500D02*
X149987000Y-95440500D01*
X150368000Y-97663000D02*
X150368000Y-95821500D01*
X160669000Y-105131000D02*
X162916000Y-105131000D01*
X161919000Y-105131000D02*
X160669000Y-105131000D01*
X162621001Y-104428999D02*
X161919000Y-105131000D01*
X162621001Y-101983499D02*
X162621001Y-104428999D01*
X163385500Y-101219000D02*
X162621001Y-101983499D01*
D20*
%TO.N,EN*%
X149401000Y-71397500D02*
X149678500Y-71120000D01*
D22*
X148042000Y-71120000D02*
X149678500Y-71120000D01*
X147764500Y-71397500D02*
X147966750Y-71195250D01*
X147966750Y-71195250D02*
X148042000Y-71120000D01*
D20*
X152844500Y-71120000D02*
X154432000Y-69532500D01*
X149678500Y-71120000D02*
X152844500Y-71120000D01*
X163322000Y-69532500D02*
X154432000Y-69532500D01*
X164274500Y-70485000D02*
X163322000Y-69532500D01*
X166395400Y-86527091D02*
X166782479Y-86140012D01*
X166395400Y-91655590D02*
X166395400Y-86527091D01*
X166185725Y-91865265D02*
X166395400Y-91655590D01*
X166185725Y-92577989D02*
X166185725Y-91865265D01*
X158369000Y-90692500D02*
X160205201Y-90692500D01*
X160205201Y-90692500D02*
X161250790Y-91738089D01*
%TO.N,Net-(D1-Pad2)*%
X167819000Y-102886500D02*
X167830500Y-102898000D01*
X165925500Y-102886500D02*
X167819000Y-102886500D01*
%TO.N,STM_SWCLK*%
X148386567Y-89306633D02*
X148386567Y-90941866D01*
X151828500Y-77089000D02*
X151003501Y-77913999D01*
X148281041Y-94520918D02*
X147881042Y-94120919D01*
X148281041Y-107196541D02*
X148281041Y-94520918D01*
X151003501Y-86689699D02*
X148386567Y-89306633D01*
X151003501Y-77913999D02*
X151003501Y-86689699D01*
X149288500Y-108204000D02*
X148281041Y-107196541D01*
%TO.N,STM_SWDIO*%
X148786011Y-106304511D02*
X148786011Y-93613535D01*
X150685500Y-108204000D02*
X148786011Y-106304511D01*
X148786011Y-93613535D02*
X148550790Y-93378314D01*
X151536400Y-85039200D02*
X151536400Y-87225512D01*
X149217489Y-91261603D02*
X148550790Y-91928302D01*
X149217489Y-89544423D02*
X149217489Y-91261603D01*
X151536400Y-87225512D02*
X149217489Y-89544423D01*
X154343997Y-82231603D02*
X151536400Y-85039200D01*
X155380175Y-82231603D02*
X154343997Y-82231603D01*
%TO.N,TXD*%
X168051419Y-72390000D02*
X168290209Y-72628790D01*
X166678500Y-72390000D02*
X168051419Y-72390000D01*
X169418000Y-99714748D02*
X169512137Y-99808885D01*
X169418000Y-95758000D02*
X169418000Y-99714748D01*
%TO.N,RXD*%
X166678500Y-73660000D02*
X167655295Y-73660000D01*
X167655295Y-73660000D02*
X167930997Y-73935702D01*
X169230044Y-93351689D02*
X167946176Y-94635557D01*
X167946176Y-94635557D02*
X167946176Y-98626824D01*
%TO.N,SD_SCK*%
X158813500Y-84840000D02*
X158813500Y-86090000D01*
X158888501Y-84764999D02*
X158813500Y-84840000D01*
X160007088Y-84764999D02*
X158888501Y-84764999D01*
X160457099Y-84314988D02*
X160007088Y-84764999D01*
X164084000Y-83248500D02*
X163017511Y-84314988D01*
X163017511Y-84314988D02*
X160457099Y-84314988D01*
X163924999Y-94788001D02*
X163924999Y-89867343D01*
X166560500Y-96266000D02*
X165402998Y-96266000D01*
X165402998Y-96266000D02*
X163924999Y-94788001D01*
X163924999Y-89867343D02*
X164157122Y-89635220D01*
X167830500Y-99822000D02*
X167957500Y-99695000D01*
X167803490Y-100748500D02*
X167830500Y-100721490D01*
X167830500Y-100721490D02*
X167830500Y-99822000D01*
X167803490Y-100987136D02*
X167803490Y-100748500D01*
X167784900Y-101005726D02*
X167803490Y-100987136D01*
X167784900Y-101701728D02*
X167784900Y-101005726D01*
X168131162Y-102047990D02*
X167784900Y-101701728D01*
X168301000Y-102047990D02*
X168131162Y-102047990D01*
X170901010Y-104648000D02*
X168301000Y-102047990D01*
X170942000Y-104648000D02*
X170901010Y-104648000D01*
%TO.N,SD_SDO*%
X161353500Y-86090000D02*
X161353500Y-87457695D01*
X161353500Y-87457695D02*
X162047562Y-88151757D01*
%TO.N,SD_SDI*%
X160083500Y-86090000D02*
X160083500Y-85324997D01*
X160643498Y-84764999D02*
X164353163Y-84764999D01*
X160083500Y-85324997D02*
X160643498Y-84764999D01*
X164353163Y-84764999D02*
X164628487Y-84489675D01*
X168800514Y-95372224D02*
X168800514Y-94806539D01*
X168746001Y-100115753D02*
X168746001Y-99473999D01*
X168746001Y-99473999D02*
X168671178Y-99399176D01*
X168671178Y-95501560D02*
X168800514Y-95372224D01*
X170942000Y-102108000D02*
X170788010Y-102108000D01*
X168671178Y-99399176D02*
X168671178Y-95501560D01*
X170788010Y-102108000D02*
X169099000Y-100418990D01*
X169099000Y-100418990D02*
X169049238Y-100418990D01*
X169049238Y-100418990D02*
X168746001Y-100115753D01*
X160083500Y-88703307D02*
X160078417Y-88708390D01*
X160083500Y-86090000D02*
X160083500Y-88703307D01*
%TO.N,SD_CS*%
X167666286Y-108037999D02*
X165639005Y-106010718D01*
X170942000Y-107188000D02*
X170092001Y-108037999D01*
X170092001Y-108037999D02*
X167666286Y-108037999D01*
X162242500Y-99219498D02*
X162242500Y-99402900D01*
X162407600Y-99054398D02*
X162242500Y-99219498D01*
X153733500Y-87340000D02*
X153857299Y-87463799D01*
X153857299Y-87463799D02*
X154424401Y-87463799D01*
X153733500Y-86090000D02*
X153733500Y-87340000D01*
X162000439Y-94564609D02*
X162407600Y-94971770D01*
X154424401Y-87463799D02*
X154793802Y-87833200D01*
X154793802Y-87833200D02*
X157683200Y-87833200D01*
X162242500Y-99402900D02*
X162242500Y-100457000D01*
X157683200Y-87833200D02*
X159283400Y-89433400D01*
X159283400Y-89433400D02*
X160248600Y-89433400D01*
X160248600Y-89433400D02*
X162242500Y-91427300D01*
X162242500Y-91427300D02*
X162242500Y-93626546D01*
X162242500Y-93626546D02*
X162000439Y-93868607D01*
X162000439Y-93868607D02*
X162000439Y-94564609D01*
X162407600Y-94971770D02*
X162407600Y-99054398D01*
%TO.N,DISP_T_IRQ*%
X163903477Y-86099977D02*
X163903477Y-87121055D01*
X163893500Y-86090000D02*
X163903477Y-86099977D01*
%TO.N,Boot*%
X165945389Y-89832611D02*
X165945389Y-85823111D01*
X165100000Y-90678000D02*
X165945389Y-89832611D01*
X165945389Y-85823111D02*
X166678500Y-85090000D01*
%TO.N,DISP_T_DIN*%
X168866979Y-89872979D02*
X170942000Y-91948000D01*
X168866979Y-84538979D02*
X168866979Y-89872979D01*
X168148000Y-83820000D02*
X168866979Y-84538979D01*
X166678500Y-83820000D02*
X168148000Y-83820000D01*
%TO.N,DISP_T_CS*%
X169316990Y-87782990D02*
X170942000Y-89408000D01*
X169316990Y-84036490D02*
X169316990Y-87782990D01*
X167830500Y-82550000D02*
X169316990Y-84036490D01*
X166678500Y-82550000D02*
X167830500Y-82550000D01*
%TO.N,DISP_T_CLK*%
X169862500Y-86868000D02*
X170942000Y-86868000D01*
X169766999Y-86772499D02*
X169862500Y-86868000D01*
X169766999Y-83603497D02*
X169766999Y-86772499D01*
X167443502Y-81280000D02*
X169766999Y-83603497D01*
X166678500Y-81280000D02*
X167443502Y-81280000D01*
%TO.N,DISP_SDO*%
X168523489Y-81339400D02*
X170942000Y-83757911D01*
X166678500Y-80010000D02*
X167928500Y-80010000D01*
X170942000Y-83757911D02*
X170942000Y-84328000D01*
X167928500Y-80010000D02*
X168523489Y-80604989D01*
X168523489Y-80604989D02*
X168523489Y-81339400D01*
%TO.N,DISP_SCK*%
X169608500Y-81788000D02*
X170942000Y-81788000D01*
X168973500Y-81153000D02*
X169608500Y-81788000D01*
X168973500Y-79756000D02*
X168973500Y-81153000D01*
X166678500Y-78985000D02*
X166923500Y-78740000D01*
X167957500Y-78740000D02*
X168973500Y-79756000D01*
X166678500Y-78740000D02*
X166678500Y-78985000D01*
X166923500Y-78740000D02*
X167957500Y-78740000D01*
%TO.N,DISP_SDI*%
X166678500Y-77470000D02*
X167928500Y-77470000D01*
X169735500Y-79248000D02*
X170942000Y-79248000D01*
X167957500Y-77470000D02*
X169735500Y-79248000D01*
X166678500Y-77470000D02*
X167957500Y-77470000D01*
%TO.N,DISP_DC_RS*%
X169672000Y-76708000D02*
X170942000Y-76708000D01*
X167894000Y-74930000D02*
X169672000Y-76708000D01*
X166678500Y-74930000D02*
X167894000Y-74930000D01*
%TO.N,DISP_RST*%
X167894000Y-71120000D02*
X170942000Y-74168000D01*
X166678500Y-71120000D02*
X167894000Y-71120000D01*
%TO.N,DISP_CS*%
X169735500Y-71628000D02*
X170942000Y-71628000D01*
X167957500Y-69850000D02*
X169735500Y-71628000D01*
X166678500Y-69850000D02*
X167957500Y-69850000D01*
%TO.N,Sold_PWM*%
X156468795Y-92308125D02*
X155278171Y-91117501D01*
X155278171Y-91117501D02*
X154706133Y-91117501D01*
%TO.N,Heater_PWM*%
X157247613Y-89574885D02*
X155523245Y-89574885D01*
X154248514Y-89477817D02*
X153963811Y-89762520D01*
X157764378Y-89058120D02*
X157247613Y-89574885D01*
X155426177Y-89477817D02*
X154248514Y-89477817D01*
X155523245Y-89574885D02*
X155426177Y-89477817D01*
%TO.N,HotA_Enc_A*%
X155091063Y-88823984D02*
X155019886Y-88752807D01*
X156792162Y-88823984D02*
X155091063Y-88823984D01*
%TO.N,Sold_Switch*%
X156751206Y-90549486D02*
X155457015Y-90549486D01*
X155457015Y-90549486D02*
X155110356Y-90202827D01*
%TO.N,Main_Switch*%
X147129500Y-76708000D02*
X145288000Y-76708000D01*
X147955000Y-77533500D02*
X147129500Y-76708000D01*
X149615000Y-77533500D02*
X147955000Y-77533500D01*
X149678500Y-77470000D02*
X149615000Y-77533500D01*
%TO.N,Main_Enc_B*%
X146113500Y-74168000D02*
X145288000Y-74168000D01*
X148145500Y-76200000D02*
X146113500Y-74168000D01*
X149678500Y-76200000D02*
X148145500Y-76200000D01*
%TO.N,Main_Enc_A*%
X146558000Y-71628000D02*
X145288000Y-71628000D01*
X147193000Y-72263000D02*
X146558000Y-71628000D01*
X147193000Y-73660000D02*
X147193000Y-72263000D01*
X148463000Y-74930000D02*
X147193000Y-73660000D01*
X149678500Y-74930000D02*
X148463000Y-74930000D01*
%TO.N,Net-(JP1-Pad3)*%
X166791000Y-98732500D02*
X166844500Y-98679000D01*
X166791000Y-101219000D02*
X166791000Y-98732500D01*
%TO.N,STM_BOOT*%
X159663460Y-72979958D02*
X158940500Y-72979958D01*
X160003501Y-73319999D02*
X159663460Y-72979958D01*
X165353499Y-82168499D02*
X160003501Y-76818501D01*
X163449875Y-88715123D02*
X165353499Y-86811499D01*
X163449875Y-89475757D02*
X163449875Y-88715123D01*
X165353499Y-86811499D02*
X165353499Y-82168499D01*
X163336792Y-89588840D02*
X163449875Y-89475757D01*
X163336792Y-90538982D02*
X163336792Y-89588840D01*
X160003501Y-76818501D02*
X160003501Y-73319999D01*
X163467209Y-90669399D02*
X163336792Y-90538982D01*
X163467209Y-94966622D02*
X163467209Y-90669399D01*
X165544500Y-97043913D02*
X163467209Y-94966622D01*
X165544500Y-98679000D02*
X165544500Y-97043913D01*
%TO.N,Net-(JP1-Pad1)*%
X164244500Y-100253000D02*
X164244500Y-98679000D01*
X165210500Y-101219000D02*
X164244500Y-100253000D01*
%TO.N,Net-(R12-Pad1)*%
X167081000Y-94078000D02*
X167576500Y-93582500D01*
X165100000Y-94078000D02*
X167081000Y-94078000D01*
%TO.N,Net-(R18-Pad2)*%
X153416000Y-91440000D02*
X153293901Y-91317901D01*
X153293901Y-91317901D02*
X151579401Y-91317901D01*
X151579401Y-91317901D02*
X150876000Y-90614500D01*
%TO.N,ESP32_UART_TX*%
X148428500Y-81280000D02*
X148078478Y-80929978D01*
X149678500Y-81280000D02*
X148428500Y-81280000D01*
X148078478Y-80929978D02*
X148078478Y-79737883D01*
%TO.N,STM_UART_RX*%
X154928390Y-79737892D02*
X155798499Y-80608001D01*
X155798499Y-80608001D02*
X157322499Y-80608001D01*
X159129608Y-82231629D02*
X158182403Y-82231629D01*
X159876327Y-79172903D02*
X160253327Y-79549903D01*
X160253327Y-81107910D02*
X159129608Y-82231629D01*
X157322499Y-80608001D02*
X158757597Y-79172903D01*
X152133632Y-79737892D02*
X154928390Y-79737892D01*
X158757597Y-79172903D02*
X159876327Y-79172903D01*
X160253327Y-79549903D02*
X160253327Y-81107910D01*
%TO.N,STM_UART_TX*%
X158340279Y-81305045D02*
X158983188Y-81305045D01*
X155425699Y-81508023D02*
X158137301Y-81508023D01*
X152335079Y-82588111D02*
X153618145Y-81305045D01*
X151861326Y-82588111D02*
X152335079Y-82588111D01*
X158137301Y-81508023D02*
X158340279Y-81305045D01*
X153618145Y-81305045D02*
X155222721Y-81305045D01*
X155222721Y-81305045D02*
X155425699Y-81508023D01*
%TO.N,ESP32_UART_RX*%
X148078500Y-83384998D02*
X148078500Y-83578819D01*
X148913498Y-82550000D02*
X148078500Y-83384998D01*
X149678500Y-82550000D02*
X148913498Y-82550000D01*
%TO.N,STM_RST*%
X153056258Y-80804012D02*
X152222356Y-81637914D01*
X157698484Y-81058012D02*
X155612099Y-81058012D01*
X155612099Y-81058012D02*
X155358099Y-80804012D01*
X158858589Y-79897907D02*
X157698484Y-81058012D01*
X159424274Y-79897907D02*
X158858589Y-79897907D01*
X155358099Y-80804012D02*
X153056258Y-80804012D01*
X147301001Y-82759499D02*
X147301001Y-91749874D01*
X149514812Y-92653312D02*
X150876000Y-94014500D01*
X147701000Y-82359500D02*
X147301001Y-82759499D01*
X147301001Y-91749874D02*
X148204439Y-92653312D01*
X148204439Y-92653312D02*
X149514812Y-92653312D01*
%TO.N,DISP_T_DO*%
X164913852Y-92582945D02*
X164913852Y-92017260D01*
X170942000Y-94010579D02*
X169501431Y-92570010D01*
X165633906Y-93302999D02*
X164913852Y-92582945D01*
X170942000Y-94488000D02*
X170942000Y-94010579D01*
X166532505Y-93302999D02*
X165633906Y-93302999D01*
X167265494Y-92570010D02*
X166532505Y-93302999D01*
X169501431Y-92570010D02*
X167265494Y-92570010D01*
X162772563Y-89131937D02*
X162750500Y-89154000D01*
X162772563Y-86239063D02*
X162772563Y-89131937D01*
X162623500Y-86090000D02*
X162772563Y-86239063D01*
%TD*%
D24*
%TO.N,+3V3*%
X163082998Y-103903320D02*
X163046688Y-104023018D01*
X163034428Y-104147500D01*
X163037500Y-104399250D01*
X163196250Y-104558000D01*
X164020500Y-104558000D01*
X164020500Y-104538000D01*
X164274500Y-104538000D01*
X164274500Y-104558000D01*
X164947750Y-104558000D01*
X164974250Y-104584500D01*
X165798500Y-104584500D01*
X165798500Y-104564500D01*
X166052500Y-104564500D01*
X166052500Y-104584500D01*
X166072500Y-104584500D01*
X166072500Y-104838500D01*
X166052500Y-104838500D01*
X166052500Y-104858500D01*
X165798500Y-104858500D01*
X165798500Y-104838500D01*
X165125250Y-104838500D01*
X165098750Y-104812000D01*
X164274500Y-104812000D01*
X164274500Y-105698750D01*
X164433250Y-105857500D01*
X164613623Y-105860428D01*
X164604005Y-105908779D01*
X164604005Y-106112657D01*
X164643779Y-106312616D01*
X164721800Y-106500974D01*
X164835068Y-106670492D01*
X164979231Y-106814655D01*
X165148749Y-106927923D01*
X165337107Y-107005944D01*
X165537066Y-107045718D01*
X165599204Y-107045718D01*
X166675706Y-108122220D01*
X166680249Y-108204000D01*
X165314968Y-108204000D01*
X165272756Y-108175795D01*
X165084398Y-108097774D01*
X164884439Y-108058000D01*
X164680561Y-108058000D01*
X164480602Y-108097774D01*
X164292244Y-108175795D01*
X164250032Y-108204000D01*
X159575500Y-108204000D01*
X159575500Y-106667414D01*
X159674820Y-106720502D01*
X159794518Y-106756812D01*
X159919000Y-106769072D01*
X160383250Y-106766000D01*
X160542000Y-106607250D01*
X160542000Y-105258000D01*
X160796000Y-105258000D01*
X160796000Y-106607250D01*
X160954750Y-106766000D01*
X161419000Y-106769072D01*
X161543482Y-106756812D01*
X161663180Y-106720502D01*
X161773494Y-106661537D01*
X161870185Y-106582185D01*
X161949537Y-106485494D01*
X162008502Y-106375180D01*
X162044812Y-106255482D01*
X162057072Y-106131000D01*
X162054000Y-105416750D01*
X161895250Y-105258000D01*
X160796000Y-105258000D01*
X160542000Y-105258000D01*
X160522000Y-105258000D01*
X160522000Y-105222500D01*
X163034428Y-105222500D01*
X163046688Y-105346982D01*
X163082998Y-105466680D01*
X163141963Y-105576994D01*
X163221315Y-105673685D01*
X163318006Y-105753037D01*
X163428320Y-105812002D01*
X163548018Y-105848312D01*
X163672500Y-105860572D01*
X163861750Y-105857500D01*
X164020500Y-105698750D01*
X164020500Y-104812000D01*
X163196250Y-104812000D01*
X163037500Y-104970750D01*
X163034428Y-105222500D01*
X160522000Y-105222500D01*
X160522000Y-105004000D01*
X160542000Y-105004000D01*
X160542000Y-104984000D01*
X160796000Y-104984000D01*
X160796000Y-105004000D01*
X161895250Y-105004000D01*
X162054000Y-104845250D01*
X162057072Y-104131000D01*
X162047851Y-104037379D01*
X162161256Y-103990405D01*
X162317510Y-103886000D01*
X163092256Y-103886000D01*
X163082998Y-103903320D01*
%TA.AperFunction,Conductor*%
D25*
G36*
X163082998Y-103903320D02*
G01*
X163046688Y-104023018D01*
X163034428Y-104147500D01*
X163037500Y-104399250D01*
X163196250Y-104558000D01*
X164020500Y-104558000D01*
X164020500Y-104538000D01*
X164274500Y-104538000D01*
X164274500Y-104558000D01*
X164947750Y-104558000D01*
X164974250Y-104584500D01*
X165798500Y-104584500D01*
X165798500Y-104564500D01*
X166052500Y-104564500D01*
X166052500Y-104584500D01*
X166072500Y-104584500D01*
X166072500Y-104838500D01*
X166052500Y-104838500D01*
X166052500Y-104858500D01*
X165798500Y-104858500D01*
X165798500Y-104838500D01*
X165125250Y-104838500D01*
X165098750Y-104812000D01*
X164274500Y-104812000D01*
X164274500Y-105698750D01*
X164433250Y-105857500D01*
X164613623Y-105860428D01*
X164604005Y-105908779D01*
X164604005Y-106112657D01*
X164643779Y-106312616D01*
X164721800Y-106500974D01*
X164835068Y-106670492D01*
X164979231Y-106814655D01*
X165148749Y-106927923D01*
X165337107Y-107005944D01*
X165537066Y-107045718D01*
X165599204Y-107045718D01*
X166675706Y-108122220D01*
X166680249Y-108204000D01*
X165314968Y-108204000D01*
X165272756Y-108175795D01*
X165084398Y-108097774D01*
X164884439Y-108058000D01*
X164680561Y-108058000D01*
X164480602Y-108097774D01*
X164292244Y-108175795D01*
X164250032Y-108204000D01*
X159575500Y-108204000D01*
X159575500Y-106667414D01*
X159674820Y-106720502D01*
X159794518Y-106756812D01*
X159919000Y-106769072D01*
X160383250Y-106766000D01*
X160542000Y-106607250D01*
X160542000Y-105258000D01*
X160796000Y-105258000D01*
X160796000Y-106607250D01*
X160954750Y-106766000D01*
X161419000Y-106769072D01*
X161543482Y-106756812D01*
X161663180Y-106720502D01*
X161773494Y-106661537D01*
X161870185Y-106582185D01*
X161949537Y-106485494D01*
X162008502Y-106375180D01*
X162044812Y-106255482D01*
X162057072Y-106131000D01*
X162054000Y-105416750D01*
X161895250Y-105258000D01*
X160796000Y-105258000D01*
X160542000Y-105258000D01*
X160522000Y-105258000D01*
X160522000Y-105222500D01*
X163034428Y-105222500D01*
X163046688Y-105346982D01*
X163082998Y-105466680D01*
X163141963Y-105576994D01*
X163221315Y-105673685D01*
X163318006Y-105753037D01*
X163428320Y-105812002D01*
X163548018Y-105848312D01*
X163672500Y-105860572D01*
X163861750Y-105857500D01*
X164020500Y-105698750D01*
X164020500Y-104812000D01*
X163196250Y-104812000D01*
X163037500Y-104970750D01*
X163034428Y-105222500D01*
X160522000Y-105222500D01*
X160522000Y-105004000D01*
X160542000Y-105004000D01*
X160542000Y-104984000D01*
X160796000Y-104984000D01*
X160796000Y-105004000D01*
X161895250Y-105004000D01*
X162054000Y-104845250D01*
X162057072Y-104131000D01*
X162047851Y-104037379D01*
X162161256Y-103990405D01*
X162317510Y-103886000D01*
X163092256Y-103886000D01*
X163082998Y-103903320D01*
G37*
%TD.AperFunction*%
%TD*%
D24*
%TO.N,GND*%
X148324006Y-67599463D02*
X148227315Y-67678815D01*
X148147963Y-67775506D01*
X148088998Y-67885820D01*
X148052688Y-68005518D01*
X148040428Y-68130000D01*
X148043500Y-68294250D01*
X148202250Y-68453000D01*
X149551500Y-68453000D01*
X149551500Y-68433000D01*
X149805500Y-68433000D01*
X149805500Y-68453000D01*
X151154750Y-68453000D01*
X151313500Y-68294250D01*
X151316572Y-68130000D01*
X151304312Y-68005518D01*
X151268002Y-67885820D01*
X151209037Y-67775506D01*
X151129685Y-67678815D01*
X151032994Y-67599463D01*
X151013419Y-67589000D01*
X165343581Y-67589000D01*
X165324006Y-67599463D01*
X165227315Y-67678815D01*
X165147963Y-67775506D01*
X165088998Y-67885820D01*
X165052688Y-68005518D01*
X165040428Y-68130000D01*
X165043500Y-68294250D01*
X165202250Y-68453000D01*
X166551500Y-68453000D01*
X166551500Y-68433000D01*
X166805500Y-68433000D01*
X166805500Y-68453000D01*
X168154750Y-68453000D01*
X168313500Y-68294250D01*
X168316572Y-68130000D01*
X168304312Y-68005518D01*
X168268002Y-67885820D01*
X168209037Y-67775506D01*
X168129685Y-67678815D01*
X168032994Y-67599463D01*
X168013419Y-67589000D01*
X172504500Y-67589000D01*
X172504501Y-106965081D01*
X172504500Y-113703500D01*
X172043667Y-113703500D01*
X172146494Y-113648537D01*
X172243185Y-113569185D01*
X172322537Y-113472494D01*
X172381502Y-113362180D01*
X172417812Y-113242482D01*
X172430072Y-113118000D01*
X172430072Y-111418000D01*
X172417812Y-111293518D01*
X172381502Y-111173820D01*
X172322537Y-111063506D01*
X172243185Y-110966815D01*
X172146494Y-110887463D01*
X172036180Y-110828498D01*
X171955534Y-110804034D01*
X172039588Y-110728269D01*
X172213641Y-110494920D01*
X172338825Y-110232099D01*
X172383476Y-110084890D01*
X172262155Y-109855000D01*
X171069000Y-109855000D01*
X171069000Y-109875000D01*
X170815000Y-109875000D01*
X170815000Y-109855000D01*
X169621845Y-109855000D01*
X169500524Y-110084890D01*
X169545175Y-110232099D01*
X169670359Y-110494920D01*
X169844412Y-110728269D01*
X169928466Y-110804034D01*
X169847820Y-110828498D01*
X169737506Y-110887463D01*
X169640815Y-110966815D01*
X169561463Y-111063506D01*
X169502498Y-111173820D01*
X169466188Y-111293518D01*
X169453928Y-111418000D01*
X169453928Y-113118000D01*
X169466188Y-113242482D01*
X169502498Y-113362180D01*
X169561463Y-113472494D01*
X169640815Y-113569185D01*
X169737506Y-113648537D01*
X169840333Y-113703500D01*
X167013396Y-113703500D01*
X167099685Y-113632685D01*
X167179037Y-113535994D01*
X167238002Y-113425680D01*
X167274312Y-113305982D01*
X167286572Y-113181500D01*
X167286572Y-111481500D01*
X167274312Y-111357018D01*
X167238002Y-111237320D01*
X167179037Y-111127006D01*
X167099685Y-111030315D01*
X167002994Y-110950963D01*
X166892680Y-110891998D01*
X166772982Y-110855688D01*
X166648500Y-110843428D01*
X164948500Y-110843428D01*
X164824018Y-110855688D01*
X164704320Y-110891998D01*
X164594006Y-110950963D01*
X164497315Y-111030315D01*
X164417963Y-111127006D01*
X164358998Y-111237320D01*
X164336987Y-111309880D01*
X164205132Y-111178025D01*
X163961911Y-111015510D01*
X163691658Y-110903568D01*
X163404760Y-110846500D01*
X163112240Y-110846500D01*
X162825342Y-110903568D01*
X162555089Y-111015510D01*
X162311868Y-111178025D01*
X162105025Y-111384868D01*
X161983305Y-111567034D01*
X161913678Y-111450145D01*
X161718769Y-111233912D01*
X161485420Y-111059859D01*
X161222599Y-110934675D01*
X161075390Y-110890024D01*
X160845500Y-111011345D01*
X160845500Y-112204500D01*
X160865500Y-112204500D01*
X160865500Y-112458500D01*
X160845500Y-112458500D01*
X160845500Y-112478500D01*
X160591500Y-112478500D01*
X160591500Y-112458500D01*
X159397686Y-112458500D01*
X159277019Y-112688391D01*
X159374343Y-112962752D01*
X159523322Y-113212855D01*
X159718231Y-113429088D01*
X159951580Y-113603141D01*
X160162281Y-113703500D01*
X157107396Y-113703500D01*
X157193685Y-113632685D01*
X157273037Y-113535994D01*
X157332002Y-113425680D01*
X157368312Y-113305982D01*
X157380572Y-113181500D01*
X157377500Y-112617250D01*
X157218750Y-112458500D01*
X156019500Y-112458500D01*
X156019500Y-112478500D01*
X155765500Y-112478500D01*
X155765500Y-112458500D01*
X155745500Y-112458500D01*
X155745500Y-112204500D01*
X155765500Y-112204500D01*
X155765500Y-111005250D01*
X156019500Y-111005250D01*
X156019500Y-112204500D01*
X157218750Y-112204500D01*
X157377500Y-112045750D01*
X157377887Y-111974609D01*
X159277019Y-111974609D01*
X159397686Y-112204500D01*
X160591500Y-112204500D01*
X160591500Y-111011345D01*
X160361610Y-110890024D01*
X160214401Y-110934675D01*
X159951580Y-111059859D01*
X159718231Y-111233912D01*
X159523322Y-111450145D01*
X159374343Y-111700248D01*
X159277019Y-111974609D01*
X157377887Y-111974609D01*
X157380572Y-111481500D01*
X157368312Y-111357018D01*
X157332002Y-111237320D01*
X157273037Y-111127006D01*
X157193685Y-111030315D01*
X157096994Y-110950963D01*
X156986680Y-110891998D01*
X156866982Y-110855688D01*
X156742500Y-110843428D01*
X156178250Y-110846500D01*
X156019500Y-111005250D01*
X155765500Y-111005250D01*
X155606750Y-110846500D01*
X155042500Y-110843428D01*
X154918018Y-110855688D01*
X154798320Y-110891998D01*
X154688006Y-110950963D01*
X154591315Y-111030315D01*
X154511963Y-111127006D01*
X154452998Y-111237320D01*
X154430987Y-111309880D01*
X154299132Y-111178025D01*
X154055911Y-111015510D01*
X153785658Y-110903568D01*
X153498760Y-110846500D01*
X153206240Y-110846500D01*
X152919342Y-110903568D01*
X152649089Y-111015510D01*
X152405868Y-111178025D01*
X152199025Y-111384868D01*
X152082500Y-111559260D01*
X151965975Y-111384868D01*
X151759132Y-111178025D01*
X151646171Y-111102547D01*
X151743507Y-111092960D01*
X152004581Y-111013764D01*
X152245188Y-110885157D01*
X152456081Y-110712081D01*
X152499454Y-110659231D01*
X154265202Y-108893484D01*
X154265206Y-108893479D01*
X156389614Y-106769072D01*
X156819000Y-106769072D01*
X156943482Y-106756812D01*
X157063180Y-106720502D01*
X157173494Y-106661537D01*
X157219000Y-106624191D01*
X157264506Y-106661537D01*
X157374820Y-106720502D01*
X157494518Y-106756812D01*
X157619000Y-106769072D01*
X158083250Y-106766000D01*
X158242000Y-106607250D01*
X158242000Y-105258000D01*
X158222000Y-105258000D01*
X158222000Y-105004000D01*
X158242000Y-105004000D01*
X158242000Y-103654750D01*
X158083250Y-103496000D01*
X157619000Y-103492928D01*
X157494518Y-103505188D01*
X157374820Y-103541498D01*
X157264506Y-103600463D01*
X157219000Y-103637809D01*
X157173494Y-103600463D01*
X157063180Y-103541498D01*
X156943482Y-103505188D01*
X156819000Y-103492928D01*
X155319000Y-103492928D01*
X155194518Y-103505188D01*
X155074820Y-103541498D01*
X154964506Y-103600463D01*
X154867815Y-103679815D01*
X154788463Y-103776506D01*
X154729498Y-103886820D01*
X154693188Y-104006518D01*
X154680928Y-104131000D01*
X154680928Y-104246000D01*
X153572780Y-104246000D01*
X153559748Y-104113684D01*
X153509923Y-103949433D01*
X153429726Y-103799394D01*
X153469037Y-103751494D01*
X153528002Y-103641180D01*
X153564312Y-103521482D01*
X153576572Y-103397000D01*
X153573500Y-103145250D01*
X153414750Y-102986500D01*
X152590500Y-102986500D01*
X152590500Y-103006500D01*
X152336500Y-103006500D01*
X152336500Y-102986500D01*
X152316500Y-102986500D01*
X152316500Y-102732500D01*
X152336500Y-102732500D01*
X152336500Y-101845750D01*
X152590500Y-101845750D01*
X152590500Y-102732500D01*
X153414750Y-102732500D01*
X153573500Y-102573750D01*
X153576572Y-102322000D01*
X153564312Y-102197518D01*
X153528002Y-102077820D01*
X153469037Y-101967506D01*
X153389685Y-101870815D01*
X153292994Y-101791463D01*
X153182680Y-101732498D01*
X153062982Y-101696188D01*
X152938500Y-101683928D01*
X152749250Y-101687000D01*
X152590500Y-101845750D01*
X152336500Y-101845750D01*
X152177750Y-101687000D01*
X151988500Y-101683928D01*
X151864018Y-101696188D01*
X151803502Y-101714545D01*
X151803000Y-101548750D01*
X151644250Y-101390000D01*
X150495000Y-101390000D01*
X150495000Y-103039250D01*
X150653750Y-103198000D01*
X151168000Y-103201072D01*
X151292482Y-103188812D01*
X151353193Y-103170395D01*
X151350428Y-103397000D01*
X151362688Y-103521482D01*
X151398998Y-103641180D01*
X151457963Y-103751494D01*
X151497274Y-103799394D01*
X151417077Y-103949433D01*
X151367252Y-104113684D01*
X151350428Y-104284500D01*
X151350428Y-104884500D01*
X151367252Y-105055316D01*
X151417077Y-105219567D01*
X151497988Y-105370942D01*
X151606877Y-105503623D01*
X151739558Y-105612512D01*
X151890933Y-105693423D01*
X152055184Y-105743248D01*
X152226000Y-105760072D01*
X152381494Y-105760072D01*
X152515941Y-105870411D01*
X152669687Y-105952589D01*
X152836510Y-106003195D01*
X152966523Y-106016000D01*
X152966531Y-106016000D01*
X153010000Y-106020281D01*
X153053469Y-106016000D01*
X153225315Y-106016000D01*
X152306521Y-106934794D01*
X152306516Y-106934798D01*
X151572610Y-107668704D01*
X151489437Y-107544226D01*
X151345274Y-107400063D01*
X151175756Y-107286795D01*
X150987398Y-107208774D01*
X150787439Y-107169000D01*
X150725302Y-107169000D01*
X149546011Y-105989710D01*
X149546011Y-103198906D01*
X149568000Y-103201072D01*
X150082250Y-103198000D01*
X150241000Y-103039250D01*
X150241000Y-101390000D01*
X150221000Y-101390000D01*
X150221000Y-101136000D01*
X150241000Y-101136000D01*
X150241000Y-101116000D01*
X150495000Y-101116000D01*
X150495000Y-101136000D01*
X151644250Y-101136000D01*
X151803000Y-100977250D01*
X151806072Y-99963000D01*
X151793812Y-99838518D01*
X151791532Y-99831000D01*
X155830928Y-99831000D01*
X155843188Y-99955482D01*
X155879498Y-100075180D01*
X155938463Y-100185494D01*
X156017815Y-100282185D01*
X156114506Y-100361537D01*
X156224820Y-100420502D01*
X156344518Y-100456812D01*
X156469000Y-100469072D01*
X158083250Y-100466000D01*
X158242000Y-100307250D01*
X158242000Y-98958000D01*
X158496000Y-98958000D01*
X158496000Y-100307250D01*
X158654750Y-100466000D01*
X160269000Y-100469072D01*
X160393482Y-100456812D01*
X160513180Y-100420502D01*
X160623494Y-100361537D01*
X160720185Y-100282185D01*
X160799537Y-100185494D01*
X160858502Y-100075180D01*
X160894812Y-99955482D01*
X160907072Y-99831000D01*
X160904000Y-99116750D01*
X160745250Y-98958000D01*
X158496000Y-98958000D01*
X158242000Y-98958000D01*
X155992750Y-98958000D01*
X155834000Y-99116750D01*
X155830928Y-99831000D01*
X151791532Y-99831000D01*
X151757502Y-99718820D01*
X151698537Y-99608506D01*
X151619185Y-99511815D01*
X151522494Y-99432463D01*
X151469187Y-99403969D01*
X151545962Y-99340962D01*
X151656405Y-99206386D01*
X151738472Y-99052850D01*
X151789008Y-98886254D01*
X151806072Y-98713000D01*
X151806072Y-98270559D01*
X151813326Y-98269433D01*
X151929014Y-98223476D01*
X152033513Y-98155832D01*
X152441292Y-97831000D01*
X155830928Y-97831000D01*
X155834000Y-98545250D01*
X155992750Y-98704000D01*
X158242000Y-98704000D01*
X158242000Y-97354750D01*
X158496000Y-97354750D01*
X158496000Y-98704000D01*
X160745250Y-98704000D01*
X160904000Y-98545250D01*
X160907072Y-97831000D01*
X160894812Y-97706518D01*
X160858502Y-97586820D01*
X160799537Y-97476506D01*
X160720185Y-97379815D01*
X160623494Y-97300463D01*
X160513180Y-97241498D01*
X160393482Y-97205188D01*
X160269000Y-97192928D01*
X158654750Y-97196000D01*
X158496000Y-97354750D01*
X158242000Y-97354750D01*
X158083250Y-97196000D01*
X156469000Y-97192928D01*
X156344518Y-97205188D01*
X156224820Y-97241498D01*
X156114506Y-97300463D01*
X156017815Y-97379815D01*
X155938463Y-97476506D01*
X155879498Y-97586820D01*
X155843188Y-97706518D01*
X155830928Y-97831000D01*
X152441292Y-97831000D01*
X155399214Y-95474756D01*
X155455387Y-95424267D01*
X155533752Y-95327548D01*
X155591743Y-95217399D01*
X155627130Y-95098053D01*
X155638555Y-94974097D01*
X155625577Y-94850293D01*
X155588976Y-94732306D01*
X155617726Y-94662898D01*
X155641674Y-94542500D01*
X156880928Y-94542500D01*
X156893188Y-94666982D01*
X156929498Y-94786680D01*
X156988463Y-94896994D01*
X157067815Y-94993685D01*
X157164506Y-95073037D01*
X157274820Y-95132002D01*
X157394518Y-95168312D01*
X157519000Y-95180572D01*
X158083250Y-95177500D01*
X158242000Y-95018750D01*
X158242000Y-94219500D01*
X158496000Y-94219500D01*
X158496000Y-95018750D01*
X158654750Y-95177500D01*
X159219000Y-95180572D01*
X159343482Y-95168312D01*
X159463180Y-95132002D01*
X159573494Y-95073037D01*
X159670185Y-94993685D01*
X159749537Y-94896994D01*
X159808502Y-94786680D01*
X159844812Y-94666982D01*
X159857072Y-94542500D01*
X159854000Y-94378250D01*
X159695250Y-94219500D01*
X158496000Y-94219500D01*
X158242000Y-94219500D01*
X157042750Y-94219500D01*
X156884000Y-94378250D01*
X156880928Y-94542500D01*
X155641674Y-94542500D01*
X155657500Y-94462939D01*
X155657500Y-94259061D01*
X155617726Y-94059102D01*
X155539705Y-93870744D01*
X155426437Y-93701226D01*
X155367711Y-93642500D01*
X156880928Y-93642500D01*
X156884000Y-93806750D01*
X157042750Y-93965500D01*
X158242000Y-93965500D01*
X158242000Y-93166250D01*
X158496000Y-93166250D01*
X158496000Y-93965500D01*
X159695250Y-93965500D01*
X159854000Y-93806750D01*
X159857072Y-93642500D01*
X159844812Y-93518018D01*
X159808502Y-93398320D01*
X159749537Y-93288006D01*
X159670185Y-93191315D01*
X159573494Y-93111963D01*
X159463180Y-93052998D01*
X159343482Y-93016688D01*
X159219000Y-93004428D01*
X158654750Y-93007500D01*
X158496000Y-93166250D01*
X158242000Y-93166250D01*
X158083250Y-93007500D01*
X157519000Y-93004428D01*
X157394518Y-93016688D01*
X157274820Y-93052998D01*
X157164506Y-93111963D01*
X157067815Y-93191315D01*
X156988463Y-93288006D01*
X156929498Y-93398320D01*
X156893188Y-93518018D01*
X156880928Y-93642500D01*
X155367711Y-93642500D01*
X155282274Y-93557063D01*
X155112756Y-93443795D01*
X154924398Y-93365774D01*
X154724439Y-93326000D01*
X154520561Y-93326000D01*
X154320602Y-93365774D01*
X154257287Y-93392000D01*
X153543000Y-93392000D01*
X153543000Y-93412000D01*
X153289000Y-93412000D01*
X153289000Y-93392000D01*
X152464750Y-93392000D01*
X152357633Y-93499117D01*
X152351812Y-93440018D01*
X152315502Y-93320320D01*
X152256537Y-93210006D01*
X152177185Y-93113315D01*
X152080494Y-93033963D01*
X151970180Y-92974998D01*
X151850482Y-92938688D01*
X151726000Y-92926428D01*
X150862730Y-92926428D01*
X150078616Y-92142315D01*
X150054813Y-92113311D01*
X149939088Y-92018338D01*
X149807059Y-91947766D01*
X149663798Y-91904309D01*
X149650859Y-91903035D01*
X149728491Y-91825403D01*
X149757490Y-91801604D01*
X149852463Y-91685879D01*
X149857268Y-91676889D01*
X149901518Y-91690312D01*
X150026000Y-91702572D01*
X150889270Y-91702572D01*
X151015602Y-91828903D01*
X151039400Y-91857902D01*
X151155125Y-91952875D01*
X151287154Y-92023447D01*
X151430415Y-92066904D01*
X151542068Y-92077901D01*
X151542077Y-92077901D01*
X151579400Y-92081577D01*
X151616723Y-92077901D01*
X152397817Y-92077901D01*
X152450488Y-92176442D01*
X152539812Y-92285283D01*
X152489815Y-92326315D01*
X152410463Y-92423006D01*
X152351498Y-92533320D01*
X152315188Y-92653018D01*
X152302928Y-92777500D01*
X152306000Y-92979250D01*
X152464750Y-93138000D01*
X153289000Y-93138000D01*
X153289000Y-93118000D01*
X153543000Y-93118000D01*
X153543000Y-93138000D01*
X154141591Y-93138000D01*
X154312844Y-93208936D01*
X154512803Y-93248710D01*
X154716681Y-93248710D01*
X154916640Y-93208936D01*
X155104998Y-93130915D01*
X155274516Y-93017647D01*
X155418679Y-92873484D01*
X155519931Y-92721950D01*
X155551590Y-92798381D01*
X155664858Y-92967899D01*
X155809021Y-93112062D01*
X155978539Y-93225330D01*
X156166897Y-93303351D01*
X156366856Y-93343125D01*
X156570734Y-93343125D01*
X156770693Y-93303351D01*
X156959051Y-93225330D01*
X157128569Y-93112062D01*
X157272732Y-92967899D01*
X157386000Y-92798381D01*
X157464021Y-92610023D01*
X157503795Y-92410064D01*
X157503795Y-92206186D01*
X157464021Y-92006227D01*
X157386000Y-91817869D01*
X157342304Y-91752473D01*
X157394518Y-91768312D01*
X157519000Y-91780572D01*
X159219000Y-91780572D01*
X159343482Y-91768312D01*
X159463180Y-91732002D01*
X159573494Y-91673037D01*
X159670185Y-91593685D01*
X159749537Y-91496994D01*
X159773320Y-91452500D01*
X159890400Y-91452500D01*
X160215790Y-91777891D01*
X160215790Y-91840028D01*
X160255564Y-92039987D01*
X160333585Y-92228345D01*
X160446853Y-92397863D01*
X160591016Y-92542026D01*
X160760534Y-92655294D01*
X160948892Y-92733315D01*
X161148851Y-92773089D01*
X161352729Y-92773089D01*
X161482501Y-92747276D01*
X161482501Y-93310500D01*
X161460438Y-93328606D01*
X161408412Y-93392000D01*
X161365465Y-93444331D01*
X161305208Y-93557063D01*
X161294893Y-93576361D01*
X161251436Y-93719622D01*
X161240439Y-93831275D01*
X161240439Y-93831285D01*
X161236763Y-93868607D01*
X161240439Y-93905929D01*
X161240439Y-94527287D01*
X161236763Y-94564609D01*
X161240439Y-94601931D01*
X161240439Y-94601942D01*
X161251436Y-94713595D01*
X161274007Y-94788001D01*
X161294893Y-94856855D01*
X161365465Y-94988885D01*
X161434528Y-95073037D01*
X161460439Y-95104610D01*
X161489437Y-95128408D01*
X161647600Y-95286571D01*
X161647601Y-98746391D01*
X161607526Y-98795222D01*
X161561417Y-98881485D01*
X161536954Y-98927252D01*
X161493497Y-99070513D01*
X161482500Y-99182166D01*
X161482500Y-99182176D01*
X161478824Y-99219498D01*
X161482500Y-99256820D01*
X161482500Y-99753289D01*
X161438563Y-99797226D01*
X161325295Y-99966744D01*
X161247274Y-100155102D01*
X161207500Y-100355061D01*
X161207500Y-100558939D01*
X161247274Y-100758898D01*
X161325295Y-100947256D01*
X161438563Y-101116774D01*
X161582726Y-101260937D01*
X161752244Y-101374205D01*
X161919354Y-101443425D01*
X161881590Y-101489441D01*
X161799412Y-101643187D01*
X161766479Y-101751752D01*
X161758592Y-101777752D01*
X161748806Y-101810010D01*
X161736001Y-101940023D01*
X161736001Y-101940030D01*
X161731720Y-101983499D01*
X161736001Y-102026968D01*
X161736001Y-103124000D01*
X159448500Y-103124000D01*
X159324618Y-103136201D01*
X159205496Y-103172336D01*
X159095713Y-103231017D01*
X158999487Y-103309987D01*
X158920517Y-103406213D01*
X158873297Y-103494554D01*
X158654750Y-103496000D01*
X158496000Y-103654750D01*
X158496000Y-105004000D01*
X158516000Y-105004000D01*
X158516000Y-105258000D01*
X158496000Y-105258000D01*
X158496000Y-106607250D01*
X158654750Y-106766000D01*
X158813500Y-106767050D01*
X158813500Y-108331000D01*
X158825701Y-108454882D01*
X158861836Y-108574004D01*
X158920517Y-108683787D01*
X158999487Y-108780013D01*
X159095713Y-108858983D01*
X159205496Y-108917664D01*
X159324618Y-108953799D01*
X159448500Y-108966000D01*
X166814500Y-108966000D01*
X166972738Y-108945968D01*
X167089672Y-108903281D01*
X167196031Y-108838601D01*
X167287728Y-108754415D01*
X167317713Y-108713438D01*
X167374039Y-108743545D01*
X167517300Y-108787002D01*
X167628953Y-108797999D01*
X167628962Y-108797999D01*
X167666285Y-108801675D01*
X167703608Y-108797999D01*
X169792000Y-108797999D01*
X169670359Y-108961080D01*
X169545175Y-109223901D01*
X169500524Y-109371110D01*
X169621845Y-109601000D01*
X170815000Y-109601000D01*
X170815000Y-109581000D01*
X171069000Y-109581000D01*
X171069000Y-109601000D01*
X172262155Y-109601000D01*
X172383476Y-109371110D01*
X172338825Y-109223901D01*
X172213641Y-108961080D01*
X172039588Y-108727731D01*
X171823355Y-108532822D01*
X171706466Y-108463195D01*
X171888632Y-108341475D01*
X172095475Y-108134632D01*
X172257990Y-107891411D01*
X172369932Y-107621158D01*
X172427000Y-107334260D01*
X172427000Y-107041740D01*
X172369932Y-106754842D01*
X172257990Y-106484589D01*
X172095475Y-106241368D01*
X171888632Y-106034525D01*
X171714240Y-105918000D01*
X171888632Y-105801475D01*
X172095475Y-105594632D01*
X172257990Y-105351411D01*
X172369932Y-105081158D01*
X172427000Y-104794260D01*
X172427000Y-104501740D01*
X172369932Y-104214842D01*
X172257990Y-103944589D01*
X172095475Y-103701368D01*
X171888632Y-103494525D01*
X171714240Y-103378000D01*
X171888632Y-103261475D01*
X172095475Y-103054632D01*
X172257990Y-102811411D01*
X172369932Y-102541158D01*
X172427000Y-102254260D01*
X172427000Y-101961740D01*
X172369932Y-101674842D01*
X172257990Y-101404589D01*
X172095475Y-101161368D01*
X171888632Y-100954525D01*
X171714240Y-100838000D01*
X171888632Y-100721475D01*
X172095475Y-100514632D01*
X172257990Y-100271411D01*
X172369932Y-100001158D01*
X172427000Y-99714260D01*
X172427000Y-99421740D01*
X172369932Y-99134842D01*
X172257990Y-98864589D01*
X172095475Y-98621368D01*
X171888632Y-98414525D01*
X171714240Y-98298000D01*
X171888632Y-98181475D01*
X172095475Y-97974632D01*
X172257990Y-97731411D01*
X172369932Y-97461158D01*
X172427000Y-97174260D01*
X172427000Y-96881740D01*
X172369932Y-96594842D01*
X172257990Y-96324589D01*
X172095475Y-96081368D01*
X171888632Y-95874525D01*
X171714240Y-95758000D01*
X171888632Y-95641475D01*
X172095475Y-95434632D01*
X172257990Y-95191411D01*
X172369932Y-94921158D01*
X172427000Y-94634260D01*
X172427000Y-94341740D01*
X172369932Y-94054842D01*
X172257990Y-93784589D01*
X172095475Y-93541368D01*
X171888632Y-93334525D01*
X171714240Y-93218000D01*
X171888632Y-93101475D01*
X172095475Y-92894632D01*
X172257990Y-92651411D01*
X172369932Y-92381158D01*
X172427000Y-92094260D01*
X172427000Y-91801740D01*
X172369932Y-91514842D01*
X172257990Y-91244589D01*
X172095475Y-91001368D01*
X171888632Y-90794525D01*
X171714240Y-90678000D01*
X171888632Y-90561475D01*
X172095475Y-90354632D01*
X172257990Y-90111411D01*
X172369932Y-89841158D01*
X172427000Y-89554260D01*
X172427000Y-89261740D01*
X172369932Y-88974842D01*
X172257990Y-88704589D01*
X172095475Y-88461368D01*
X171888632Y-88254525D01*
X171714240Y-88138000D01*
X171888632Y-88021475D01*
X172095475Y-87814632D01*
X172257990Y-87571411D01*
X172369932Y-87301158D01*
X172427000Y-87014260D01*
X172427000Y-86721740D01*
X172369932Y-86434842D01*
X172257990Y-86164589D01*
X172095475Y-85921368D01*
X171888632Y-85714525D01*
X171714240Y-85598000D01*
X171888632Y-85481475D01*
X172095475Y-85274632D01*
X172257990Y-85031411D01*
X172369932Y-84761158D01*
X172427000Y-84474260D01*
X172427000Y-84181740D01*
X172369932Y-83894842D01*
X172257990Y-83624589D01*
X172095475Y-83381368D01*
X171888632Y-83174525D01*
X171714240Y-83058000D01*
X171888632Y-82941475D01*
X172095475Y-82734632D01*
X172257990Y-82491411D01*
X172369932Y-82221158D01*
X172427000Y-81934260D01*
X172427000Y-81641740D01*
X172369932Y-81354842D01*
X172257990Y-81084589D01*
X172095475Y-80841368D01*
X171888632Y-80634525D01*
X171714240Y-80518000D01*
X171888632Y-80401475D01*
X172095475Y-80194632D01*
X172257990Y-79951411D01*
X172369932Y-79681158D01*
X172427000Y-79394260D01*
X172427000Y-79101740D01*
X172369932Y-78814842D01*
X172257990Y-78544589D01*
X172095475Y-78301368D01*
X171888632Y-78094525D01*
X171714240Y-77978000D01*
X171888632Y-77861475D01*
X172095475Y-77654632D01*
X172257990Y-77411411D01*
X172369932Y-77141158D01*
X172427000Y-76854260D01*
X172427000Y-76561740D01*
X172369932Y-76274842D01*
X172257990Y-76004589D01*
X172095475Y-75761368D01*
X171888632Y-75554525D01*
X171714240Y-75438000D01*
X171888632Y-75321475D01*
X172095475Y-75114632D01*
X172257990Y-74871411D01*
X172369932Y-74601158D01*
X172427000Y-74314260D01*
X172427000Y-74021740D01*
X172369932Y-73734842D01*
X172257990Y-73464589D01*
X172095475Y-73221368D01*
X171888632Y-73014525D01*
X171714240Y-72898000D01*
X171888632Y-72781475D01*
X172095475Y-72574632D01*
X172257990Y-72331411D01*
X172369932Y-72061158D01*
X172427000Y-71774260D01*
X172427000Y-71481740D01*
X172369932Y-71194842D01*
X172257990Y-70924589D01*
X172095475Y-70681368D01*
X171888632Y-70474525D01*
X171706466Y-70352805D01*
X171823355Y-70283178D01*
X172039588Y-70088269D01*
X172213641Y-69854920D01*
X172338825Y-69592099D01*
X172383476Y-69444890D01*
X172262155Y-69215000D01*
X171069000Y-69215000D01*
X171069000Y-69235000D01*
X170815000Y-69235000D01*
X170815000Y-69215000D01*
X169621845Y-69215000D01*
X169500524Y-69444890D01*
X169545175Y-69592099D01*
X169670359Y-69854920D01*
X169844412Y-70088269D01*
X170060645Y-70283178D01*
X170177534Y-70352805D01*
X169995368Y-70474525D01*
X169826097Y-70643796D01*
X168521304Y-69339003D01*
X168497501Y-69309999D01*
X168381776Y-69215026D01*
X168299317Y-69170950D01*
X168304312Y-69154482D01*
X168316572Y-69030000D01*
X168313500Y-68865750D01*
X168178860Y-68731110D01*
X169500524Y-68731110D01*
X169621845Y-68961000D01*
X170815000Y-68961000D01*
X170815000Y-67767186D01*
X171069000Y-67767186D01*
X171069000Y-68961000D01*
X172262155Y-68961000D01*
X172383476Y-68731110D01*
X172338825Y-68583901D01*
X172213641Y-68321080D01*
X172039588Y-68087731D01*
X171823355Y-67892822D01*
X171573252Y-67743843D01*
X171298891Y-67646519D01*
X171069000Y-67767186D01*
X170815000Y-67767186D01*
X170585109Y-67646519D01*
X170310748Y-67743843D01*
X170060645Y-67892822D01*
X169844412Y-68087731D01*
X169670359Y-68321080D01*
X169545175Y-68583901D01*
X169500524Y-68731110D01*
X168178860Y-68731110D01*
X168154750Y-68707000D01*
X166805500Y-68707000D01*
X166805500Y-68727000D01*
X166551500Y-68727000D01*
X166551500Y-68707000D01*
X165202250Y-68707000D01*
X165043500Y-68865750D01*
X165040428Y-69030000D01*
X165052688Y-69154482D01*
X165071046Y-69215000D01*
X165052688Y-69275518D01*
X165040428Y-69400000D01*
X165040428Y-69787217D01*
X164934274Y-69681063D01*
X164764756Y-69567795D01*
X164576398Y-69489774D01*
X164376439Y-69450000D01*
X164314302Y-69450000D01*
X163885803Y-69021502D01*
X163862001Y-68992499D01*
X163746276Y-68897526D01*
X163614247Y-68826954D01*
X163470986Y-68783497D01*
X163359333Y-68772500D01*
X163359322Y-68772500D01*
X163322000Y-68768824D01*
X163284678Y-68772500D01*
X155135711Y-68772500D01*
X155091774Y-68728563D01*
X154922256Y-68615295D01*
X154733898Y-68537274D01*
X154533939Y-68497500D01*
X154330061Y-68497500D01*
X154130102Y-68537274D01*
X153941744Y-68615295D01*
X153772226Y-68728563D01*
X153628063Y-68872726D01*
X153514795Y-69042244D01*
X153436774Y-69230602D01*
X153397000Y-69430561D01*
X153397000Y-69492698D01*
X152529699Y-70360000D01*
X151310663Y-70360000D01*
X151316572Y-70300000D01*
X151316572Y-69400000D01*
X151304312Y-69275518D01*
X151285954Y-69215000D01*
X151304312Y-69154482D01*
X151316572Y-69030000D01*
X151313500Y-68865750D01*
X151154750Y-68707000D01*
X149805500Y-68707000D01*
X149805500Y-68722017D01*
X149734252Y-68715000D01*
X149551500Y-68715000D01*
X149551500Y-68707000D01*
X148202250Y-68707000D01*
X148194250Y-68715000D01*
X146727898Y-68715000D01*
X146715932Y-68654842D01*
X146603990Y-68384589D01*
X146441475Y-68141368D01*
X146234632Y-67934525D01*
X145991411Y-67772010D01*
X145721158Y-67660068D01*
X145434260Y-67603000D01*
X145141740Y-67603000D01*
X144854842Y-67660068D01*
X144584589Y-67772010D01*
X144341368Y-67934525D01*
X144134525Y-68141368D01*
X143972010Y-68384589D01*
X143860068Y-68654842D01*
X143803000Y-68941740D01*
X143803000Y-69234260D01*
X143860068Y-69521158D01*
X143972010Y-69791411D01*
X144134525Y-70034632D01*
X144341368Y-70241475D01*
X144515760Y-70358000D01*
X144341368Y-70474525D01*
X144134525Y-70681368D01*
X143972010Y-70924589D01*
X143860068Y-71194842D01*
X143803000Y-71481740D01*
X143803000Y-71774260D01*
X143860068Y-72061158D01*
X143972010Y-72331411D01*
X144134525Y-72574632D01*
X144341368Y-72781475D01*
X144515760Y-72898000D01*
X144341368Y-73014525D01*
X144134525Y-73221368D01*
X143972010Y-73464589D01*
X143860068Y-73734842D01*
X143803000Y-74021740D01*
X143803000Y-74314260D01*
X143860068Y-74601158D01*
X143972010Y-74871411D01*
X144134525Y-75114632D01*
X144341368Y-75321475D01*
X144515760Y-75438000D01*
X144341368Y-75554525D01*
X144134525Y-75761368D01*
X143972010Y-76004589D01*
X143860068Y-76274842D01*
X143803000Y-76561740D01*
X143803000Y-76854260D01*
X143860068Y-77141158D01*
X143972010Y-77411411D01*
X144134525Y-77654632D01*
X144341368Y-77861475D01*
X144515760Y-77978000D01*
X144341368Y-78094525D01*
X144134525Y-78301368D01*
X143972010Y-78544589D01*
X143860068Y-78814842D01*
X143803000Y-79101740D01*
X143803000Y-79394260D01*
X143860068Y-79681158D01*
X143972010Y-79951411D01*
X144134525Y-80194632D01*
X144341368Y-80401475D01*
X144515760Y-80518000D01*
X144341368Y-80634525D01*
X144134525Y-80841368D01*
X143972010Y-81084589D01*
X143860068Y-81354842D01*
X143803000Y-81641740D01*
X143803000Y-81934260D01*
X143860068Y-82221158D01*
X143972010Y-82491411D01*
X144134525Y-82734632D01*
X144341368Y-82941475D01*
X144515760Y-83058000D01*
X144341368Y-83174525D01*
X144134525Y-83381368D01*
X143972010Y-83624589D01*
X143860068Y-83894842D01*
X143803000Y-84181740D01*
X143803000Y-84474260D01*
X143860068Y-84761158D01*
X143972010Y-85031411D01*
X144134525Y-85274632D01*
X144341368Y-85481475D01*
X144515760Y-85598000D01*
X144341368Y-85714525D01*
X144134525Y-85921368D01*
X143972010Y-86164589D01*
X143860068Y-86434842D01*
X143803000Y-86721740D01*
X143803000Y-87014260D01*
X143860068Y-87301158D01*
X143972010Y-87571411D01*
X144134525Y-87814632D01*
X144341368Y-88021475D01*
X144515760Y-88138000D01*
X144341368Y-88254525D01*
X144134525Y-88461368D01*
X143972010Y-88704589D01*
X143860068Y-88974842D01*
X143803000Y-89261740D01*
X143803000Y-89554260D01*
X143860068Y-89841158D01*
X143972010Y-90111411D01*
X144134525Y-90354632D01*
X144341368Y-90561475D01*
X144515760Y-90678000D01*
X144341368Y-90794525D01*
X144134525Y-91001368D01*
X143972010Y-91244589D01*
X143860068Y-91514842D01*
X143803000Y-91801740D01*
X143803000Y-92094260D01*
X143860068Y-92381158D01*
X143972010Y-92651411D01*
X144134525Y-92894632D01*
X144341368Y-93101475D01*
X144515760Y-93218000D01*
X144341368Y-93334525D01*
X144134525Y-93541368D01*
X143972010Y-93784589D01*
X143860068Y-94054842D01*
X143803000Y-94341740D01*
X143803000Y-94634260D01*
X143860068Y-94921158D01*
X143972010Y-95191411D01*
X144134525Y-95434632D01*
X144341368Y-95641475D01*
X144515760Y-95758000D01*
X144341368Y-95874525D01*
X144134525Y-96081368D01*
X143972010Y-96324589D01*
X143860068Y-96594842D01*
X143803000Y-96881740D01*
X143803000Y-97174260D01*
X143860068Y-97461158D01*
X143972010Y-97731411D01*
X144134525Y-97974632D01*
X144341368Y-98181475D01*
X144515760Y-98298000D01*
X144341368Y-98414525D01*
X144134525Y-98621368D01*
X143972010Y-98864589D01*
X143860068Y-99134842D01*
X143803000Y-99421740D01*
X143803000Y-99714260D01*
X143860068Y-100001158D01*
X143972010Y-100271411D01*
X144134525Y-100514632D01*
X144341368Y-100721475D01*
X144515760Y-100838000D01*
X144341368Y-100954525D01*
X144134525Y-101161368D01*
X143972010Y-101404589D01*
X143860068Y-101674842D01*
X143803000Y-101961740D01*
X143803000Y-102254260D01*
X143860068Y-102541158D01*
X143972010Y-102811411D01*
X144134525Y-103054632D01*
X144341368Y-103261475D01*
X144515760Y-103378000D01*
X144341368Y-103494525D01*
X144134525Y-103701368D01*
X143972010Y-103944589D01*
X143860068Y-104214842D01*
X143803000Y-104501740D01*
X143803000Y-104794260D01*
X143860068Y-105081158D01*
X143972010Y-105351411D01*
X144134525Y-105594632D01*
X144341368Y-105801475D01*
X144515760Y-105918000D01*
X144341368Y-106034525D01*
X144134525Y-106241368D01*
X143972010Y-106484589D01*
X143860068Y-106754842D01*
X143803000Y-107041740D01*
X143803000Y-107334260D01*
X143860068Y-107621158D01*
X143972010Y-107891411D01*
X144134525Y-108134632D01*
X144341368Y-108341475D01*
X144515760Y-108458000D01*
X144341368Y-108574525D01*
X144134525Y-108781368D01*
X143972010Y-109024589D01*
X143860068Y-109294842D01*
X143803000Y-109581740D01*
X143803000Y-109874260D01*
X143860068Y-110161158D01*
X143972010Y-110431411D01*
X144134525Y-110674632D01*
X144266380Y-110806487D01*
X144193820Y-110828498D01*
X144083506Y-110887463D01*
X143986815Y-110966815D01*
X143907463Y-111063506D01*
X143848498Y-111173820D01*
X143812188Y-111293518D01*
X143799928Y-111418000D01*
X143803000Y-111982250D01*
X143961750Y-112141000D01*
X145161000Y-112141000D01*
X145161000Y-112121000D01*
X145415000Y-112121000D01*
X145415000Y-112141000D01*
X146614250Y-112141000D01*
X146773000Y-111982250D01*
X146776072Y-111418000D01*
X146763812Y-111293518D01*
X146727502Y-111173820D01*
X146694993Y-111113000D01*
X149963185Y-111113000D01*
X149865868Y-111178025D01*
X149659025Y-111384868D01*
X149496510Y-111628089D01*
X149384568Y-111898342D01*
X149327500Y-112185240D01*
X149327500Y-112477760D01*
X149384568Y-112764658D01*
X149496510Y-113034911D01*
X149659025Y-113278132D01*
X149865868Y-113484975D01*
X150109089Y-113647490D01*
X150244310Y-113703500D01*
X146389667Y-113703500D01*
X146492494Y-113648537D01*
X146589185Y-113569185D01*
X146668537Y-113472494D01*
X146727502Y-113362180D01*
X146763812Y-113242482D01*
X146776072Y-113118000D01*
X146773000Y-112553750D01*
X146614250Y-112395000D01*
X145415000Y-112395000D01*
X145415000Y-112415000D01*
X145161000Y-112415000D01*
X145161000Y-112395000D01*
X143961750Y-112395000D01*
X143803000Y-112553750D01*
X143799928Y-113118000D01*
X143812188Y-113242482D01*
X143848498Y-113362180D01*
X143907463Y-113472494D01*
X143986815Y-113569185D01*
X144083506Y-113648537D01*
X144186333Y-113703500D01*
X143725500Y-113703500D01*
X143725500Y-67589000D01*
X148343581Y-67589000D01*
X148324006Y-67599463D01*
%TA.AperFunction,Conductor*%
D25*
G36*
X148324006Y-67599463D02*
G01*
X148227315Y-67678815D01*
X148147963Y-67775506D01*
X148088998Y-67885820D01*
X148052688Y-68005518D01*
X148040428Y-68130000D01*
X148043500Y-68294250D01*
X148202250Y-68453000D01*
X149551500Y-68453000D01*
X149551500Y-68433000D01*
X149805500Y-68433000D01*
X149805500Y-68453000D01*
X151154750Y-68453000D01*
X151313500Y-68294250D01*
X151316572Y-68130000D01*
X151304312Y-68005518D01*
X151268002Y-67885820D01*
X151209037Y-67775506D01*
X151129685Y-67678815D01*
X151032994Y-67599463D01*
X151013419Y-67589000D01*
X165343581Y-67589000D01*
X165324006Y-67599463D01*
X165227315Y-67678815D01*
X165147963Y-67775506D01*
X165088998Y-67885820D01*
X165052688Y-68005518D01*
X165040428Y-68130000D01*
X165043500Y-68294250D01*
X165202250Y-68453000D01*
X166551500Y-68453000D01*
X166551500Y-68433000D01*
X166805500Y-68433000D01*
X166805500Y-68453000D01*
X168154750Y-68453000D01*
X168313500Y-68294250D01*
X168316572Y-68130000D01*
X168304312Y-68005518D01*
X168268002Y-67885820D01*
X168209037Y-67775506D01*
X168129685Y-67678815D01*
X168032994Y-67599463D01*
X168013419Y-67589000D01*
X172504500Y-67589000D01*
X172504501Y-106965081D01*
X172504500Y-113703500D01*
X172043667Y-113703500D01*
X172146494Y-113648537D01*
X172243185Y-113569185D01*
X172322537Y-113472494D01*
X172381502Y-113362180D01*
X172417812Y-113242482D01*
X172430072Y-113118000D01*
X172430072Y-111418000D01*
X172417812Y-111293518D01*
X172381502Y-111173820D01*
X172322537Y-111063506D01*
X172243185Y-110966815D01*
X172146494Y-110887463D01*
X172036180Y-110828498D01*
X171955534Y-110804034D01*
X172039588Y-110728269D01*
X172213641Y-110494920D01*
X172338825Y-110232099D01*
X172383476Y-110084890D01*
X172262155Y-109855000D01*
X171069000Y-109855000D01*
X171069000Y-109875000D01*
X170815000Y-109875000D01*
X170815000Y-109855000D01*
X169621845Y-109855000D01*
X169500524Y-110084890D01*
X169545175Y-110232099D01*
X169670359Y-110494920D01*
X169844412Y-110728269D01*
X169928466Y-110804034D01*
X169847820Y-110828498D01*
X169737506Y-110887463D01*
X169640815Y-110966815D01*
X169561463Y-111063506D01*
X169502498Y-111173820D01*
X169466188Y-111293518D01*
X169453928Y-111418000D01*
X169453928Y-113118000D01*
X169466188Y-113242482D01*
X169502498Y-113362180D01*
X169561463Y-113472494D01*
X169640815Y-113569185D01*
X169737506Y-113648537D01*
X169840333Y-113703500D01*
X167013396Y-113703500D01*
X167099685Y-113632685D01*
X167179037Y-113535994D01*
X167238002Y-113425680D01*
X167274312Y-113305982D01*
X167286572Y-113181500D01*
X167286572Y-111481500D01*
X167274312Y-111357018D01*
X167238002Y-111237320D01*
X167179037Y-111127006D01*
X167099685Y-111030315D01*
X167002994Y-110950963D01*
X166892680Y-110891998D01*
X166772982Y-110855688D01*
X166648500Y-110843428D01*
X164948500Y-110843428D01*
X164824018Y-110855688D01*
X164704320Y-110891998D01*
X164594006Y-110950963D01*
X164497315Y-111030315D01*
X164417963Y-111127006D01*
X164358998Y-111237320D01*
X164336987Y-111309880D01*
X164205132Y-111178025D01*
X163961911Y-111015510D01*
X163691658Y-110903568D01*
X163404760Y-110846500D01*
X163112240Y-110846500D01*
X162825342Y-110903568D01*
X162555089Y-111015510D01*
X162311868Y-111178025D01*
X162105025Y-111384868D01*
X161983305Y-111567034D01*
X161913678Y-111450145D01*
X161718769Y-111233912D01*
X161485420Y-111059859D01*
X161222599Y-110934675D01*
X161075390Y-110890024D01*
X160845500Y-111011345D01*
X160845500Y-112204500D01*
X160865500Y-112204500D01*
X160865500Y-112458500D01*
X160845500Y-112458500D01*
X160845500Y-112478500D01*
X160591500Y-112478500D01*
X160591500Y-112458500D01*
X159397686Y-112458500D01*
X159277019Y-112688391D01*
X159374343Y-112962752D01*
X159523322Y-113212855D01*
X159718231Y-113429088D01*
X159951580Y-113603141D01*
X160162281Y-113703500D01*
X157107396Y-113703500D01*
X157193685Y-113632685D01*
X157273037Y-113535994D01*
X157332002Y-113425680D01*
X157368312Y-113305982D01*
X157380572Y-113181500D01*
X157377500Y-112617250D01*
X157218750Y-112458500D01*
X156019500Y-112458500D01*
X156019500Y-112478500D01*
X155765500Y-112478500D01*
X155765500Y-112458500D01*
X155745500Y-112458500D01*
X155745500Y-112204500D01*
X155765500Y-112204500D01*
X155765500Y-111005250D01*
X156019500Y-111005250D01*
X156019500Y-112204500D01*
X157218750Y-112204500D01*
X157377500Y-112045750D01*
X157377887Y-111974609D01*
X159277019Y-111974609D01*
X159397686Y-112204500D01*
X160591500Y-112204500D01*
X160591500Y-111011345D01*
X160361610Y-110890024D01*
X160214401Y-110934675D01*
X159951580Y-111059859D01*
X159718231Y-111233912D01*
X159523322Y-111450145D01*
X159374343Y-111700248D01*
X159277019Y-111974609D01*
X157377887Y-111974609D01*
X157380572Y-111481500D01*
X157368312Y-111357018D01*
X157332002Y-111237320D01*
X157273037Y-111127006D01*
X157193685Y-111030315D01*
X157096994Y-110950963D01*
X156986680Y-110891998D01*
X156866982Y-110855688D01*
X156742500Y-110843428D01*
X156178250Y-110846500D01*
X156019500Y-111005250D01*
X155765500Y-111005250D01*
X155606750Y-110846500D01*
X155042500Y-110843428D01*
X154918018Y-110855688D01*
X154798320Y-110891998D01*
X154688006Y-110950963D01*
X154591315Y-111030315D01*
X154511963Y-111127006D01*
X154452998Y-111237320D01*
X154430987Y-111309880D01*
X154299132Y-111178025D01*
X154055911Y-111015510D01*
X153785658Y-110903568D01*
X153498760Y-110846500D01*
X153206240Y-110846500D01*
X152919342Y-110903568D01*
X152649089Y-111015510D01*
X152405868Y-111178025D01*
X152199025Y-111384868D01*
X152082500Y-111559260D01*
X151965975Y-111384868D01*
X151759132Y-111178025D01*
X151646171Y-111102547D01*
X151743507Y-111092960D01*
X152004581Y-111013764D01*
X152245188Y-110885157D01*
X152456081Y-110712081D01*
X152499454Y-110659231D01*
X154265202Y-108893484D01*
X154265206Y-108893479D01*
X156389614Y-106769072D01*
X156819000Y-106769072D01*
X156943482Y-106756812D01*
X157063180Y-106720502D01*
X157173494Y-106661537D01*
X157219000Y-106624191D01*
X157264506Y-106661537D01*
X157374820Y-106720502D01*
X157494518Y-106756812D01*
X157619000Y-106769072D01*
X158083250Y-106766000D01*
X158242000Y-106607250D01*
X158242000Y-105258000D01*
X158222000Y-105258000D01*
X158222000Y-105004000D01*
X158242000Y-105004000D01*
X158242000Y-103654750D01*
X158083250Y-103496000D01*
X157619000Y-103492928D01*
X157494518Y-103505188D01*
X157374820Y-103541498D01*
X157264506Y-103600463D01*
X157219000Y-103637809D01*
X157173494Y-103600463D01*
X157063180Y-103541498D01*
X156943482Y-103505188D01*
X156819000Y-103492928D01*
X155319000Y-103492928D01*
X155194518Y-103505188D01*
X155074820Y-103541498D01*
X154964506Y-103600463D01*
X154867815Y-103679815D01*
X154788463Y-103776506D01*
X154729498Y-103886820D01*
X154693188Y-104006518D01*
X154680928Y-104131000D01*
X154680928Y-104246000D01*
X153572780Y-104246000D01*
X153559748Y-104113684D01*
X153509923Y-103949433D01*
X153429726Y-103799394D01*
X153469037Y-103751494D01*
X153528002Y-103641180D01*
X153564312Y-103521482D01*
X153576572Y-103397000D01*
X153573500Y-103145250D01*
X153414750Y-102986500D01*
X152590500Y-102986500D01*
X152590500Y-103006500D01*
X152336500Y-103006500D01*
X152336500Y-102986500D01*
X152316500Y-102986500D01*
X152316500Y-102732500D01*
X152336500Y-102732500D01*
X152336500Y-101845750D01*
X152590500Y-101845750D01*
X152590500Y-102732500D01*
X153414750Y-102732500D01*
X153573500Y-102573750D01*
X153576572Y-102322000D01*
X153564312Y-102197518D01*
X153528002Y-102077820D01*
X153469037Y-101967506D01*
X153389685Y-101870815D01*
X153292994Y-101791463D01*
X153182680Y-101732498D01*
X153062982Y-101696188D01*
X152938500Y-101683928D01*
X152749250Y-101687000D01*
X152590500Y-101845750D01*
X152336500Y-101845750D01*
X152177750Y-101687000D01*
X151988500Y-101683928D01*
X151864018Y-101696188D01*
X151803502Y-101714545D01*
X151803000Y-101548750D01*
X151644250Y-101390000D01*
X150495000Y-101390000D01*
X150495000Y-103039250D01*
X150653750Y-103198000D01*
X151168000Y-103201072D01*
X151292482Y-103188812D01*
X151353193Y-103170395D01*
X151350428Y-103397000D01*
X151362688Y-103521482D01*
X151398998Y-103641180D01*
X151457963Y-103751494D01*
X151497274Y-103799394D01*
X151417077Y-103949433D01*
X151367252Y-104113684D01*
X151350428Y-104284500D01*
X151350428Y-104884500D01*
X151367252Y-105055316D01*
X151417077Y-105219567D01*
X151497988Y-105370942D01*
X151606877Y-105503623D01*
X151739558Y-105612512D01*
X151890933Y-105693423D01*
X152055184Y-105743248D01*
X152226000Y-105760072D01*
X152381494Y-105760072D01*
X152515941Y-105870411D01*
X152669687Y-105952589D01*
X152836510Y-106003195D01*
X152966523Y-106016000D01*
X152966531Y-106016000D01*
X153010000Y-106020281D01*
X153053469Y-106016000D01*
X153225315Y-106016000D01*
X152306521Y-106934794D01*
X152306516Y-106934798D01*
X151572610Y-107668704D01*
X151489437Y-107544226D01*
X151345274Y-107400063D01*
X151175756Y-107286795D01*
X150987398Y-107208774D01*
X150787439Y-107169000D01*
X150725302Y-107169000D01*
X149546011Y-105989710D01*
X149546011Y-103198906D01*
X149568000Y-103201072D01*
X150082250Y-103198000D01*
X150241000Y-103039250D01*
X150241000Y-101390000D01*
X150221000Y-101390000D01*
X150221000Y-101136000D01*
X150241000Y-101136000D01*
X150241000Y-101116000D01*
X150495000Y-101116000D01*
X150495000Y-101136000D01*
X151644250Y-101136000D01*
X151803000Y-100977250D01*
X151806072Y-99963000D01*
X151793812Y-99838518D01*
X151791532Y-99831000D01*
X155830928Y-99831000D01*
X155843188Y-99955482D01*
X155879498Y-100075180D01*
X155938463Y-100185494D01*
X156017815Y-100282185D01*
X156114506Y-100361537D01*
X156224820Y-100420502D01*
X156344518Y-100456812D01*
X156469000Y-100469072D01*
X158083250Y-100466000D01*
X158242000Y-100307250D01*
X158242000Y-98958000D01*
X158496000Y-98958000D01*
X158496000Y-100307250D01*
X158654750Y-100466000D01*
X160269000Y-100469072D01*
X160393482Y-100456812D01*
X160513180Y-100420502D01*
X160623494Y-100361537D01*
X160720185Y-100282185D01*
X160799537Y-100185494D01*
X160858502Y-100075180D01*
X160894812Y-99955482D01*
X160907072Y-99831000D01*
X160904000Y-99116750D01*
X160745250Y-98958000D01*
X158496000Y-98958000D01*
X158242000Y-98958000D01*
X155992750Y-98958000D01*
X155834000Y-99116750D01*
X155830928Y-99831000D01*
X151791532Y-99831000D01*
X151757502Y-99718820D01*
X151698537Y-99608506D01*
X151619185Y-99511815D01*
X151522494Y-99432463D01*
X151469187Y-99403969D01*
X151545962Y-99340962D01*
X151656405Y-99206386D01*
X151738472Y-99052850D01*
X151789008Y-98886254D01*
X151806072Y-98713000D01*
X151806072Y-98270559D01*
X151813326Y-98269433D01*
X151929014Y-98223476D01*
X152033513Y-98155832D01*
X152441292Y-97831000D01*
X155830928Y-97831000D01*
X155834000Y-98545250D01*
X155992750Y-98704000D01*
X158242000Y-98704000D01*
X158242000Y-97354750D01*
X158496000Y-97354750D01*
X158496000Y-98704000D01*
X160745250Y-98704000D01*
X160904000Y-98545250D01*
X160907072Y-97831000D01*
X160894812Y-97706518D01*
X160858502Y-97586820D01*
X160799537Y-97476506D01*
X160720185Y-97379815D01*
X160623494Y-97300463D01*
X160513180Y-97241498D01*
X160393482Y-97205188D01*
X160269000Y-97192928D01*
X158654750Y-97196000D01*
X158496000Y-97354750D01*
X158242000Y-97354750D01*
X158083250Y-97196000D01*
X156469000Y-97192928D01*
X156344518Y-97205188D01*
X156224820Y-97241498D01*
X156114506Y-97300463D01*
X156017815Y-97379815D01*
X155938463Y-97476506D01*
X155879498Y-97586820D01*
X155843188Y-97706518D01*
X155830928Y-97831000D01*
X152441292Y-97831000D01*
X155399214Y-95474756D01*
X155455387Y-95424267D01*
X155533752Y-95327548D01*
X155591743Y-95217399D01*
X155627130Y-95098053D01*
X155638555Y-94974097D01*
X155625577Y-94850293D01*
X155588976Y-94732306D01*
X155617726Y-94662898D01*
X155641674Y-94542500D01*
X156880928Y-94542500D01*
X156893188Y-94666982D01*
X156929498Y-94786680D01*
X156988463Y-94896994D01*
X157067815Y-94993685D01*
X157164506Y-95073037D01*
X157274820Y-95132002D01*
X157394518Y-95168312D01*
X157519000Y-95180572D01*
X158083250Y-95177500D01*
X158242000Y-95018750D01*
X158242000Y-94219500D01*
X158496000Y-94219500D01*
X158496000Y-95018750D01*
X158654750Y-95177500D01*
X159219000Y-95180572D01*
X159343482Y-95168312D01*
X159463180Y-95132002D01*
X159573494Y-95073037D01*
X159670185Y-94993685D01*
X159749537Y-94896994D01*
X159808502Y-94786680D01*
X159844812Y-94666982D01*
X159857072Y-94542500D01*
X159854000Y-94378250D01*
X159695250Y-94219500D01*
X158496000Y-94219500D01*
X158242000Y-94219500D01*
X157042750Y-94219500D01*
X156884000Y-94378250D01*
X156880928Y-94542500D01*
X155641674Y-94542500D01*
X155657500Y-94462939D01*
X155657500Y-94259061D01*
X155617726Y-94059102D01*
X155539705Y-93870744D01*
X155426437Y-93701226D01*
X155367711Y-93642500D01*
X156880928Y-93642500D01*
X156884000Y-93806750D01*
X157042750Y-93965500D01*
X158242000Y-93965500D01*
X158242000Y-93166250D01*
X158496000Y-93166250D01*
X158496000Y-93965500D01*
X159695250Y-93965500D01*
X159854000Y-93806750D01*
X159857072Y-93642500D01*
X159844812Y-93518018D01*
X159808502Y-93398320D01*
X159749537Y-93288006D01*
X159670185Y-93191315D01*
X159573494Y-93111963D01*
X159463180Y-93052998D01*
X159343482Y-93016688D01*
X159219000Y-93004428D01*
X158654750Y-93007500D01*
X158496000Y-93166250D01*
X158242000Y-93166250D01*
X158083250Y-93007500D01*
X157519000Y-93004428D01*
X157394518Y-93016688D01*
X157274820Y-93052998D01*
X157164506Y-93111963D01*
X157067815Y-93191315D01*
X156988463Y-93288006D01*
X156929498Y-93398320D01*
X156893188Y-93518018D01*
X156880928Y-93642500D01*
X155367711Y-93642500D01*
X155282274Y-93557063D01*
X155112756Y-93443795D01*
X154924398Y-93365774D01*
X154724439Y-93326000D01*
X154520561Y-93326000D01*
X154320602Y-93365774D01*
X154257287Y-93392000D01*
X153543000Y-93392000D01*
X153543000Y-93412000D01*
X153289000Y-93412000D01*
X153289000Y-93392000D01*
X152464750Y-93392000D01*
X152357633Y-93499117D01*
X152351812Y-93440018D01*
X152315502Y-93320320D01*
X152256537Y-93210006D01*
X152177185Y-93113315D01*
X152080494Y-93033963D01*
X151970180Y-92974998D01*
X151850482Y-92938688D01*
X151726000Y-92926428D01*
X150862730Y-92926428D01*
X150078616Y-92142315D01*
X150054813Y-92113311D01*
X149939088Y-92018338D01*
X149807059Y-91947766D01*
X149663798Y-91904309D01*
X149650859Y-91903035D01*
X149728491Y-91825403D01*
X149757490Y-91801604D01*
X149852463Y-91685879D01*
X149857268Y-91676889D01*
X149901518Y-91690312D01*
X150026000Y-91702572D01*
X150889270Y-91702572D01*
X151015602Y-91828903D01*
X151039400Y-91857902D01*
X151155125Y-91952875D01*
X151287154Y-92023447D01*
X151430415Y-92066904D01*
X151542068Y-92077901D01*
X151542077Y-92077901D01*
X151579400Y-92081577D01*
X151616723Y-92077901D01*
X152397817Y-92077901D01*
X152450488Y-92176442D01*
X152539812Y-92285283D01*
X152489815Y-92326315D01*
X152410463Y-92423006D01*
X152351498Y-92533320D01*
X152315188Y-92653018D01*
X152302928Y-92777500D01*
X152306000Y-92979250D01*
X152464750Y-93138000D01*
X153289000Y-93138000D01*
X153289000Y-93118000D01*
X153543000Y-93118000D01*
X153543000Y-93138000D01*
X154141591Y-93138000D01*
X154312844Y-93208936D01*
X154512803Y-93248710D01*
X154716681Y-93248710D01*
X154916640Y-93208936D01*
X155104998Y-93130915D01*
X155274516Y-93017647D01*
X155418679Y-92873484D01*
X155519931Y-92721950D01*
X155551590Y-92798381D01*
X155664858Y-92967899D01*
X155809021Y-93112062D01*
X155978539Y-93225330D01*
X156166897Y-93303351D01*
X156366856Y-93343125D01*
X156570734Y-93343125D01*
X156770693Y-93303351D01*
X156959051Y-93225330D01*
X157128569Y-93112062D01*
X157272732Y-92967899D01*
X157386000Y-92798381D01*
X157464021Y-92610023D01*
X157503795Y-92410064D01*
X157503795Y-92206186D01*
X157464021Y-92006227D01*
X157386000Y-91817869D01*
X157342304Y-91752473D01*
X157394518Y-91768312D01*
X157519000Y-91780572D01*
X159219000Y-91780572D01*
X159343482Y-91768312D01*
X159463180Y-91732002D01*
X159573494Y-91673037D01*
X159670185Y-91593685D01*
X159749537Y-91496994D01*
X159773320Y-91452500D01*
X159890400Y-91452500D01*
X160215790Y-91777891D01*
X160215790Y-91840028D01*
X160255564Y-92039987D01*
X160333585Y-92228345D01*
X160446853Y-92397863D01*
X160591016Y-92542026D01*
X160760534Y-92655294D01*
X160948892Y-92733315D01*
X161148851Y-92773089D01*
X161352729Y-92773089D01*
X161482501Y-92747276D01*
X161482501Y-93310500D01*
X161460438Y-93328606D01*
X161408412Y-93392000D01*
X161365465Y-93444331D01*
X161305208Y-93557063D01*
X161294893Y-93576361D01*
X161251436Y-93719622D01*
X161240439Y-93831275D01*
X161240439Y-93831285D01*
X161236763Y-93868607D01*
X161240439Y-93905929D01*
X161240439Y-94527287D01*
X161236763Y-94564609D01*
X161240439Y-94601931D01*
X161240439Y-94601942D01*
X161251436Y-94713595D01*
X161274007Y-94788001D01*
X161294893Y-94856855D01*
X161365465Y-94988885D01*
X161434528Y-95073037D01*
X161460439Y-95104610D01*
X161489437Y-95128408D01*
X161647600Y-95286571D01*
X161647601Y-98746391D01*
X161607526Y-98795222D01*
X161561417Y-98881485D01*
X161536954Y-98927252D01*
X161493497Y-99070513D01*
X161482500Y-99182166D01*
X161482500Y-99182176D01*
X161478824Y-99219498D01*
X161482500Y-99256820D01*
X161482500Y-99753289D01*
X161438563Y-99797226D01*
X161325295Y-99966744D01*
X161247274Y-100155102D01*
X161207500Y-100355061D01*
X161207500Y-100558939D01*
X161247274Y-100758898D01*
X161325295Y-100947256D01*
X161438563Y-101116774D01*
X161582726Y-101260937D01*
X161752244Y-101374205D01*
X161919354Y-101443425D01*
X161881590Y-101489441D01*
X161799412Y-101643187D01*
X161766479Y-101751752D01*
X161758592Y-101777752D01*
X161748806Y-101810010D01*
X161736001Y-101940023D01*
X161736001Y-101940030D01*
X161731720Y-101983499D01*
X161736001Y-102026968D01*
X161736001Y-103124000D01*
X159448500Y-103124000D01*
X159324618Y-103136201D01*
X159205496Y-103172336D01*
X159095713Y-103231017D01*
X158999487Y-103309987D01*
X158920517Y-103406213D01*
X158873297Y-103494554D01*
X158654750Y-103496000D01*
X158496000Y-103654750D01*
X158496000Y-105004000D01*
X158516000Y-105004000D01*
X158516000Y-105258000D01*
X158496000Y-105258000D01*
X158496000Y-106607250D01*
X158654750Y-106766000D01*
X158813500Y-106767050D01*
X158813500Y-108331000D01*
X158825701Y-108454882D01*
X158861836Y-108574004D01*
X158920517Y-108683787D01*
X158999487Y-108780013D01*
X159095713Y-108858983D01*
X159205496Y-108917664D01*
X159324618Y-108953799D01*
X159448500Y-108966000D01*
X166814500Y-108966000D01*
X166972738Y-108945968D01*
X167089672Y-108903281D01*
X167196031Y-108838601D01*
X167287728Y-108754415D01*
X167317713Y-108713438D01*
X167374039Y-108743545D01*
X167517300Y-108787002D01*
X167628953Y-108797999D01*
X167628962Y-108797999D01*
X167666285Y-108801675D01*
X167703608Y-108797999D01*
X169792000Y-108797999D01*
X169670359Y-108961080D01*
X169545175Y-109223901D01*
X169500524Y-109371110D01*
X169621845Y-109601000D01*
X170815000Y-109601000D01*
X170815000Y-109581000D01*
X171069000Y-109581000D01*
X171069000Y-109601000D01*
X172262155Y-109601000D01*
X172383476Y-109371110D01*
X172338825Y-109223901D01*
X172213641Y-108961080D01*
X172039588Y-108727731D01*
X171823355Y-108532822D01*
X171706466Y-108463195D01*
X171888632Y-108341475D01*
X172095475Y-108134632D01*
X172257990Y-107891411D01*
X172369932Y-107621158D01*
X172427000Y-107334260D01*
X172427000Y-107041740D01*
X172369932Y-106754842D01*
X172257990Y-106484589D01*
X172095475Y-106241368D01*
X171888632Y-106034525D01*
X171714240Y-105918000D01*
X171888632Y-105801475D01*
X172095475Y-105594632D01*
X172257990Y-105351411D01*
X172369932Y-105081158D01*
X172427000Y-104794260D01*
X172427000Y-104501740D01*
X172369932Y-104214842D01*
X172257990Y-103944589D01*
X172095475Y-103701368D01*
X171888632Y-103494525D01*
X171714240Y-103378000D01*
X171888632Y-103261475D01*
X172095475Y-103054632D01*
X172257990Y-102811411D01*
X172369932Y-102541158D01*
X172427000Y-102254260D01*
X172427000Y-101961740D01*
X172369932Y-101674842D01*
X172257990Y-101404589D01*
X172095475Y-101161368D01*
X171888632Y-100954525D01*
X171714240Y-100838000D01*
X171888632Y-100721475D01*
X172095475Y-100514632D01*
X172257990Y-100271411D01*
X172369932Y-100001158D01*
X172427000Y-99714260D01*
X172427000Y-99421740D01*
X172369932Y-99134842D01*
X172257990Y-98864589D01*
X172095475Y-98621368D01*
X171888632Y-98414525D01*
X171714240Y-98298000D01*
X171888632Y-98181475D01*
X172095475Y-97974632D01*
X172257990Y-97731411D01*
X172369932Y-97461158D01*
X172427000Y-97174260D01*
X172427000Y-96881740D01*
X172369932Y-96594842D01*
X172257990Y-96324589D01*
X172095475Y-96081368D01*
X171888632Y-95874525D01*
X171714240Y-95758000D01*
X171888632Y-95641475D01*
X172095475Y-95434632D01*
X172257990Y-95191411D01*
X172369932Y-94921158D01*
X172427000Y-94634260D01*
X172427000Y-94341740D01*
X172369932Y-94054842D01*
X172257990Y-93784589D01*
X172095475Y-93541368D01*
X171888632Y-93334525D01*
X171714240Y-93218000D01*
X171888632Y-93101475D01*
X172095475Y-92894632D01*
X172257990Y-92651411D01*
X172369932Y-92381158D01*
X172427000Y-92094260D01*
X172427000Y-91801740D01*
X172369932Y-91514842D01*
X172257990Y-91244589D01*
X172095475Y-91001368D01*
X171888632Y-90794525D01*
X171714240Y-90678000D01*
X171888632Y-90561475D01*
X172095475Y-90354632D01*
X172257990Y-90111411D01*
X172369932Y-89841158D01*
X172427000Y-89554260D01*
X172427000Y-89261740D01*
X172369932Y-88974842D01*
X172257990Y-88704589D01*
X172095475Y-88461368D01*
X171888632Y-88254525D01*
X171714240Y-88138000D01*
X171888632Y-88021475D01*
X172095475Y-87814632D01*
X172257990Y-87571411D01*
X172369932Y-87301158D01*
X172427000Y-87014260D01*
X172427000Y-86721740D01*
X172369932Y-86434842D01*
X172257990Y-86164589D01*
X172095475Y-85921368D01*
X171888632Y-85714525D01*
X171714240Y-85598000D01*
X171888632Y-85481475D01*
X172095475Y-85274632D01*
X172257990Y-85031411D01*
X172369932Y-84761158D01*
X172427000Y-84474260D01*
X172427000Y-84181740D01*
X172369932Y-83894842D01*
X172257990Y-83624589D01*
X172095475Y-83381368D01*
X171888632Y-83174525D01*
X171714240Y-83058000D01*
X171888632Y-82941475D01*
X172095475Y-82734632D01*
X172257990Y-82491411D01*
X172369932Y-82221158D01*
X172427000Y-81934260D01*
X172427000Y-81641740D01*
X172369932Y-81354842D01*
X172257990Y-81084589D01*
X172095475Y-80841368D01*
X171888632Y-80634525D01*
X171714240Y-80518000D01*
X171888632Y-80401475D01*
X172095475Y-80194632D01*
X172257990Y-79951411D01*
X172369932Y-79681158D01*
X172427000Y-79394260D01*
X172427000Y-79101740D01*
X172369932Y-78814842D01*
X172257990Y-78544589D01*
X172095475Y-78301368D01*
X171888632Y-78094525D01*
X171714240Y-77978000D01*
X171888632Y-77861475D01*
X172095475Y-77654632D01*
X172257990Y-77411411D01*
X172369932Y-77141158D01*
X172427000Y-76854260D01*
X172427000Y-76561740D01*
X172369932Y-76274842D01*
X172257990Y-76004589D01*
X172095475Y-75761368D01*
X171888632Y-75554525D01*
X171714240Y-75438000D01*
X171888632Y-75321475D01*
X172095475Y-75114632D01*
X172257990Y-74871411D01*
X172369932Y-74601158D01*
X172427000Y-74314260D01*
X172427000Y-74021740D01*
X172369932Y-73734842D01*
X172257990Y-73464589D01*
X172095475Y-73221368D01*
X171888632Y-73014525D01*
X171714240Y-72898000D01*
X171888632Y-72781475D01*
X172095475Y-72574632D01*
X172257990Y-72331411D01*
X172369932Y-72061158D01*
X172427000Y-71774260D01*
X172427000Y-71481740D01*
X172369932Y-71194842D01*
X172257990Y-70924589D01*
X172095475Y-70681368D01*
X171888632Y-70474525D01*
X171706466Y-70352805D01*
X171823355Y-70283178D01*
X172039588Y-70088269D01*
X172213641Y-69854920D01*
X172338825Y-69592099D01*
X172383476Y-69444890D01*
X172262155Y-69215000D01*
X171069000Y-69215000D01*
X171069000Y-69235000D01*
X170815000Y-69235000D01*
X170815000Y-69215000D01*
X169621845Y-69215000D01*
X169500524Y-69444890D01*
X169545175Y-69592099D01*
X169670359Y-69854920D01*
X169844412Y-70088269D01*
X170060645Y-70283178D01*
X170177534Y-70352805D01*
X169995368Y-70474525D01*
X169826097Y-70643796D01*
X168521304Y-69339003D01*
X168497501Y-69309999D01*
X168381776Y-69215026D01*
X168299317Y-69170950D01*
X168304312Y-69154482D01*
X168316572Y-69030000D01*
X168313500Y-68865750D01*
X168178860Y-68731110D01*
X169500524Y-68731110D01*
X169621845Y-68961000D01*
X170815000Y-68961000D01*
X170815000Y-67767186D01*
X171069000Y-67767186D01*
X171069000Y-68961000D01*
X172262155Y-68961000D01*
X172383476Y-68731110D01*
X172338825Y-68583901D01*
X172213641Y-68321080D01*
X172039588Y-68087731D01*
X171823355Y-67892822D01*
X171573252Y-67743843D01*
X171298891Y-67646519D01*
X171069000Y-67767186D01*
X170815000Y-67767186D01*
X170585109Y-67646519D01*
X170310748Y-67743843D01*
X170060645Y-67892822D01*
X169844412Y-68087731D01*
X169670359Y-68321080D01*
X169545175Y-68583901D01*
X169500524Y-68731110D01*
X168178860Y-68731110D01*
X168154750Y-68707000D01*
X166805500Y-68707000D01*
X166805500Y-68727000D01*
X166551500Y-68727000D01*
X166551500Y-68707000D01*
X165202250Y-68707000D01*
X165043500Y-68865750D01*
X165040428Y-69030000D01*
X165052688Y-69154482D01*
X165071046Y-69215000D01*
X165052688Y-69275518D01*
X165040428Y-69400000D01*
X165040428Y-69787217D01*
X164934274Y-69681063D01*
X164764756Y-69567795D01*
X164576398Y-69489774D01*
X164376439Y-69450000D01*
X164314302Y-69450000D01*
X163885803Y-69021502D01*
X163862001Y-68992499D01*
X163746276Y-68897526D01*
X163614247Y-68826954D01*
X163470986Y-68783497D01*
X163359333Y-68772500D01*
X163359322Y-68772500D01*
X163322000Y-68768824D01*
X163284678Y-68772500D01*
X155135711Y-68772500D01*
X155091774Y-68728563D01*
X154922256Y-68615295D01*
X154733898Y-68537274D01*
X154533939Y-68497500D01*
X154330061Y-68497500D01*
X154130102Y-68537274D01*
X153941744Y-68615295D01*
X153772226Y-68728563D01*
X153628063Y-68872726D01*
X153514795Y-69042244D01*
X153436774Y-69230602D01*
X153397000Y-69430561D01*
X153397000Y-69492698D01*
X152529699Y-70360000D01*
X151310663Y-70360000D01*
X151316572Y-70300000D01*
X151316572Y-69400000D01*
X151304312Y-69275518D01*
X151285954Y-69215000D01*
X151304312Y-69154482D01*
X151316572Y-69030000D01*
X151313500Y-68865750D01*
X151154750Y-68707000D01*
X149805500Y-68707000D01*
X149805500Y-68722017D01*
X149734252Y-68715000D01*
X149551500Y-68715000D01*
X149551500Y-68707000D01*
X148202250Y-68707000D01*
X148194250Y-68715000D01*
X146727898Y-68715000D01*
X146715932Y-68654842D01*
X146603990Y-68384589D01*
X146441475Y-68141368D01*
X146234632Y-67934525D01*
X145991411Y-67772010D01*
X145721158Y-67660068D01*
X145434260Y-67603000D01*
X145141740Y-67603000D01*
X144854842Y-67660068D01*
X144584589Y-67772010D01*
X144341368Y-67934525D01*
X144134525Y-68141368D01*
X143972010Y-68384589D01*
X143860068Y-68654842D01*
X143803000Y-68941740D01*
X143803000Y-69234260D01*
X143860068Y-69521158D01*
X143972010Y-69791411D01*
X144134525Y-70034632D01*
X144341368Y-70241475D01*
X144515760Y-70358000D01*
X144341368Y-70474525D01*
X144134525Y-70681368D01*
X143972010Y-70924589D01*
X143860068Y-71194842D01*
X143803000Y-71481740D01*
X143803000Y-71774260D01*
X143860068Y-72061158D01*
X143972010Y-72331411D01*
X144134525Y-72574632D01*
X144341368Y-72781475D01*
X144515760Y-72898000D01*
X144341368Y-73014525D01*
X144134525Y-73221368D01*
X143972010Y-73464589D01*
X143860068Y-73734842D01*
X143803000Y-74021740D01*
X143803000Y-74314260D01*
X143860068Y-74601158D01*
X143972010Y-74871411D01*
X144134525Y-75114632D01*
X144341368Y-75321475D01*
X144515760Y-75438000D01*
X144341368Y-75554525D01*
X144134525Y-75761368D01*
X143972010Y-76004589D01*
X143860068Y-76274842D01*
X143803000Y-76561740D01*
X143803000Y-76854260D01*
X143860068Y-77141158D01*
X143972010Y-77411411D01*
X144134525Y-77654632D01*
X144341368Y-77861475D01*
X144515760Y-77978000D01*
X144341368Y-78094525D01*
X144134525Y-78301368D01*
X143972010Y-78544589D01*
X143860068Y-78814842D01*
X143803000Y-79101740D01*
X143803000Y-79394260D01*
X143860068Y-79681158D01*
X143972010Y-79951411D01*
X144134525Y-80194632D01*
X144341368Y-80401475D01*
X144515760Y-80518000D01*
X144341368Y-80634525D01*
X144134525Y-80841368D01*
X143972010Y-81084589D01*
X143860068Y-81354842D01*
X143803000Y-81641740D01*
X143803000Y-81934260D01*
X143860068Y-82221158D01*
X143972010Y-82491411D01*
X144134525Y-82734632D01*
X144341368Y-82941475D01*
X144515760Y-83058000D01*
X144341368Y-83174525D01*
X144134525Y-83381368D01*
X143972010Y-83624589D01*
X143860068Y-83894842D01*
X143803000Y-84181740D01*
X143803000Y-84474260D01*
X143860068Y-84761158D01*
X143972010Y-85031411D01*
X144134525Y-85274632D01*
X144341368Y-85481475D01*
X144515760Y-85598000D01*
X144341368Y-85714525D01*
X144134525Y-85921368D01*
X143972010Y-86164589D01*
X143860068Y-86434842D01*
X143803000Y-86721740D01*
X143803000Y-87014260D01*
X143860068Y-87301158D01*
X143972010Y-87571411D01*
X144134525Y-87814632D01*
X144341368Y-88021475D01*
X144515760Y-88138000D01*
X144341368Y-88254525D01*
X144134525Y-88461368D01*
X143972010Y-88704589D01*
X143860068Y-88974842D01*
X143803000Y-89261740D01*
X143803000Y-89554260D01*
X143860068Y-89841158D01*
X143972010Y-90111411D01*
X144134525Y-90354632D01*
X144341368Y-90561475D01*
X144515760Y-90678000D01*
X144341368Y-90794525D01*
X144134525Y-91001368D01*
X143972010Y-91244589D01*
X143860068Y-91514842D01*
X143803000Y-91801740D01*
X143803000Y-92094260D01*
X143860068Y-92381158D01*
X143972010Y-92651411D01*
X144134525Y-92894632D01*
X144341368Y-93101475D01*
X144515760Y-93218000D01*
X144341368Y-93334525D01*
X144134525Y-93541368D01*
X143972010Y-93784589D01*
X143860068Y-94054842D01*
X143803000Y-94341740D01*
X143803000Y-94634260D01*
X143860068Y-94921158D01*
X143972010Y-95191411D01*
X144134525Y-95434632D01*
X144341368Y-95641475D01*
X144515760Y-95758000D01*
X144341368Y-95874525D01*
X144134525Y-96081368D01*
X143972010Y-96324589D01*
X143860068Y-96594842D01*
X143803000Y-96881740D01*
X143803000Y-97174260D01*
X143860068Y-97461158D01*
X143972010Y-97731411D01*
X144134525Y-97974632D01*
X144341368Y-98181475D01*
X144515760Y-98298000D01*
X144341368Y-98414525D01*
X144134525Y-98621368D01*
X143972010Y-98864589D01*
X143860068Y-99134842D01*
X143803000Y-99421740D01*
X143803000Y-99714260D01*
X143860068Y-100001158D01*
X143972010Y-100271411D01*
X144134525Y-100514632D01*
X144341368Y-100721475D01*
X144515760Y-100838000D01*
X144341368Y-100954525D01*
X144134525Y-101161368D01*
X143972010Y-101404589D01*
X143860068Y-101674842D01*
X143803000Y-101961740D01*
X143803000Y-102254260D01*
X143860068Y-102541158D01*
X143972010Y-102811411D01*
X144134525Y-103054632D01*
X144341368Y-103261475D01*
X144515760Y-103378000D01*
X144341368Y-103494525D01*
X144134525Y-103701368D01*
X143972010Y-103944589D01*
X143860068Y-104214842D01*
X143803000Y-104501740D01*
X143803000Y-104794260D01*
X143860068Y-105081158D01*
X143972010Y-105351411D01*
X144134525Y-105594632D01*
X144341368Y-105801475D01*
X144515760Y-105918000D01*
X144341368Y-106034525D01*
X144134525Y-106241368D01*
X143972010Y-106484589D01*
X143860068Y-106754842D01*
X143803000Y-107041740D01*
X143803000Y-107334260D01*
X143860068Y-107621158D01*
X143972010Y-107891411D01*
X144134525Y-108134632D01*
X144341368Y-108341475D01*
X144515760Y-108458000D01*
X144341368Y-108574525D01*
X144134525Y-108781368D01*
X143972010Y-109024589D01*
X143860068Y-109294842D01*
X143803000Y-109581740D01*
X143803000Y-109874260D01*
X143860068Y-110161158D01*
X143972010Y-110431411D01*
X144134525Y-110674632D01*
X144266380Y-110806487D01*
X144193820Y-110828498D01*
X144083506Y-110887463D01*
X143986815Y-110966815D01*
X143907463Y-111063506D01*
X143848498Y-111173820D01*
X143812188Y-111293518D01*
X143799928Y-111418000D01*
X143803000Y-111982250D01*
X143961750Y-112141000D01*
X145161000Y-112141000D01*
X145161000Y-112121000D01*
X145415000Y-112121000D01*
X145415000Y-112141000D01*
X146614250Y-112141000D01*
X146773000Y-111982250D01*
X146776072Y-111418000D01*
X146763812Y-111293518D01*
X146727502Y-111173820D01*
X146694993Y-111113000D01*
X149963185Y-111113000D01*
X149865868Y-111178025D01*
X149659025Y-111384868D01*
X149496510Y-111628089D01*
X149384568Y-111898342D01*
X149327500Y-112185240D01*
X149327500Y-112477760D01*
X149384568Y-112764658D01*
X149496510Y-113034911D01*
X149659025Y-113278132D01*
X149865868Y-113484975D01*
X150109089Y-113647490D01*
X150244310Y-113703500D01*
X146389667Y-113703500D01*
X146492494Y-113648537D01*
X146589185Y-113569185D01*
X146668537Y-113472494D01*
X146727502Y-113362180D01*
X146763812Y-113242482D01*
X146776072Y-113118000D01*
X146773000Y-112553750D01*
X146614250Y-112395000D01*
X145415000Y-112395000D01*
X145415000Y-112415000D01*
X145161000Y-112415000D01*
X145161000Y-112395000D01*
X143961750Y-112395000D01*
X143803000Y-112553750D01*
X143799928Y-113118000D01*
X143812188Y-113242482D01*
X143848498Y-113362180D01*
X143907463Y-113472494D01*
X143986815Y-113569185D01*
X144083506Y-113648537D01*
X144186333Y-113703500D01*
X143725500Y-113703500D01*
X143725500Y-67589000D01*
X148343581Y-67589000D01*
X148324006Y-67599463D01*
G37*
%TD.AperFunction*%
D24*
X146761001Y-92289875D02*
X146789999Y-92313673D01*
X147555096Y-93078771D01*
X147542765Y-93140762D01*
X147390786Y-93203714D01*
X147221268Y-93316982D01*
X147077105Y-93461145D01*
X146963837Y-93630663D01*
X146885816Y-93819021D01*
X146846042Y-94018980D01*
X146846042Y-94222858D01*
X146885816Y-94422817D01*
X146963837Y-94611175D01*
X147077105Y-94780693D01*
X147221268Y-94924856D01*
X147390786Y-95038124D01*
X147521042Y-95092078D01*
X147521041Y-107159219D01*
X147517365Y-107196541D01*
X147521041Y-107233863D01*
X147521041Y-107233873D01*
X147532038Y-107345526D01*
X147575495Y-107488787D01*
X147646067Y-107620817D01*
X147678793Y-107660693D01*
X147741040Y-107736542D01*
X147770043Y-107760345D01*
X148253500Y-108243802D01*
X148253500Y-108305939D01*
X148260872Y-108343000D01*
X146232350Y-108343000D01*
X146234632Y-108341475D01*
X146441475Y-108134632D01*
X146603990Y-107891411D01*
X146715932Y-107621158D01*
X146773000Y-107334260D01*
X146773000Y-107041740D01*
X146715932Y-106754842D01*
X146603990Y-106484589D01*
X146441475Y-106241368D01*
X146234632Y-106034525D01*
X146060240Y-105918000D01*
X146234632Y-105801475D01*
X146441475Y-105594632D01*
X146603990Y-105351411D01*
X146715932Y-105081158D01*
X146773000Y-104794260D01*
X146773000Y-104501740D01*
X146715932Y-104214842D01*
X146603990Y-103944589D01*
X146441475Y-103701368D01*
X146234632Y-103494525D01*
X146060240Y-103378000D01*
X146234632Y-103261475D01*
X146441475Y-103054632D01*
X146603990Y-102811411D01*
X146715932Y-102541158D01*
X146773000Y-102254260D01*
X146773000Y-101961740D01*
X146715932Y-101674842D01*
X146603990Y-101404589D01*
X146441475Y-101161368D01*
X146234632Y-100954525D01*
X146060240Y-100838000D01*
X146234632Y-100721475D01*
X146441475Y-100514632D01*
X146603990Y-100271411D01*
X146715932Y-100001158D01*
X146773000Y-99714260D01*
X146773000Y-99421740D01*
X146715932Y-99134842D01*
X146603990Y-98864589D01*
X146441475Y-98621368D01*
X146234632Y-98414525D01*
X146060240Y-98298000D01*
X146234632Y-98181475D01*
X146441475Y-97974632D01*
X146603990Y-97731411D01*
X146715932Y-97461158D01*
X146773000Y-97174260D01*
X146773000Y-96881740D01*
X146715932Y-96594842D01*
X146603990Y-96324589D01*
X146441475Y-96081368D01*
X146234632Y-95874525D01*
X146060240Y-95758000D01*
X146234632Y-95641475D01*
X146441475Y-95434632D01*
X146603990Y-95191411D01*
X146715932Y-94921158D01*
X146773000Y-94634260D01*
X146773000Y-94341740D01*
X146715932Y-94054842D01*
X146603990Y-93784589D01*
X146441475Y-93541368D01*
X146234632Y-93334525D01*
X146060240Y-93218000D01*
X146234632Y-93101475D01*
X146441475Y-92894632D01*
X146603990Y-92651411D01*
X146715932Y-92381158D01*
X146739340Y-92263481D01*
X146761001Y-92289875D01*
%TA.AperFunction,Conductor*%
D25*
G36*
X146761001Y-92289875D02*
G01*
X146789999Y-92313673D01*
X147555096Y-93078771D01*
X147542765Y-93140762D01*
X147390786Y-93203714D01*
X147221268Y-93316982D01*
X147077105Y-93461145D01*
X146963837Y-93630663D01*
X146885816Y-93819021D01*
X146846042Y-94018980D01*
X146846042Y-94222858D01*
X146885816Y-94422817D01*
X146963837Y-94611175D01*
X147077105Y-94780693D01*
X147221268Y-94924856D01*
X147390786Y-95038124D01*
X147521042Y-95092078D01*
X147521041Y-107159219D01*
X147517365Y-107196541D01*
X147521041Y-107233863D01*
X147521041Y-107233873D01*
X147532038Y-107345526D01*
X147575495Y-107488787D01*
X147646067Y-107620817D01*
X147678793Y-107660693D01*
X147741040Y-107736542D01*
X147770043Y-107760345D01*
X148253500Y-108243802D01*
X148253500Y-108305939D01*
X148260872Y-108343000D01*
X146232350Y-108343000D01*
X146234632Y-108341475D01*
X146441475Y-108134632D01*
X146603990Y-107891411D01*
X146715932Y-107621158D01*
X146773000Y-107334260D01*
X146773000Y-107041740D01*
X146715932Y-106754842D01*
X146603990Y-106484589D01*
X146441475Y-106241368D01*
X146234632Y-106034525D01*
X146060240Y-105918000D01*
X146234632Y-105801475D01*
X146441475Y-105594632D01*
X146603990Y-105351411D01*
X146715932Y-105081158D01*
X146773000Y-104794260D01*
X146773000Y-104501740D01*
X146715932Y-104214842D01*
X146603990Y-103944589D01*
X146441475Y-103701368D01*
X146234632Y-103494525D01*
X146060240Y-103378000D01*
X146234632Y-103261475D01*
X146441475Y-103054632D01*
X146603990Y-102811411D01*
X146715932Y-102541158D01*
X146773000Y-102254260D01*
X146773000Y-101961740D01*
X146715932Y-101674842D01*
X146603990Y-101404589D01*
X146441475Y-101161368D01*
X146234632Y-100954525D01*
X146060240Y-100838000D01*
X146234632Y-100721475D01*
X146441475Y-100514632D01*
X146603990Y-100271411D01*
X146715932Y-100001158D01*
X146773000Y-99714260D01*
X146773000Y-99421740D01*
X146715932Y-99134842D01*
X146603990Y-98864589D01*
X146441475Y-98621368D01*
X146234632Y-98414525D01*
X146060240Y-98298000D01*
X146234632Y-98181475D01*
X146441475Y-97974632D01*
X146603990Y-97731411D01*
X146715932Y-97461158D01*
X146773000Y-97174260D01*
X146773000Y-96881740D01*
X146715932Y-96594842D01*
X146603990Y-96324589D01*
X146441475Y-96081368D01*
X146234632Y-95874525D01*
X146060240Y-95758000D01*
X146234632Y-95641475D01*
X146441475Y-95434632D01*
X146603990Y-95191411D01*
X146715932Y-94921158D01*
X146773000Y-94634260D01*
X146773000Y-94341740D01*
X146715932Y-94054842D01*
X146603990Y-93784589D01*
X146441475Y-93541368D01*
X146234632Y-93334525D01*
X146060240Y-93218000D01*
X146234632Y-93101475D01*
X146441475Y-92894632D01*
X146603990Y-92651411D01*
X146715932Y-92381158D01*
X146739340Y-92263481D01*
X146761001Y-92289875D01*
G37*
%TD.AperFunction*%
D24*
X169493990Y-104315782D02*
X169457000Y-104501740D01*
X169457000Y-104794260D01*
X169514068Y-105081158D01*
X169626010Y-105351411D01*
X169788525Y-105594632D01*
X169995368Y-105801475D01*
X170169760Y-105918000D01*
X169995368Y-106034525D01*
X169788525Y-106241368D01*
X169626010Y-106484589D01*
X169514068Y-106754842D01*
X169457000Y-107041740D01*
X169457000Y-107277999D01*
X167981088Y-107277999D01*
X167357325Y-106654237D01*
X167310235Y-105806614D01*
X167355500Y-105811072D01*
X167544750Y-105808000D01*
X167703500Y-105649250D01*
X167703500Y-104775000D01*
X167957500Y-104775000D01*
X167957500Y-105649250D01*
X168116250Y-105808000D01*
X168305500Y-105811072D01*
X168429982Y-105798812D01*
X168549680Y-105762502D01*
X168659994Y-105703537D01*
X168756685Y-105624185D01*
X168836037Y-105527494D01*
X168895002Y-105417180D01*
X168931312Y-105297482D01*
X168943572Y-105173000D01*
X168940500Y-104933750D01*
X168781750Y-104775000D01*
X167957500Y-104775000D01*
X167703500Y-104775000D01*
X167683500Y-104775000D01*
X167683500Y-104521000D01*
X167703500Y-104521000D01*
X167703500Y-104501000D01*
X167957500Y-104501000D01*
X167957500Y-104521000D01*
X168781750Y-104521000D01*
X168940500Y-104362250D01*
X168943572Y-104123000D01*
X168931312Y-103998518D01*
X168895002Y-103878820D01*
X168836037Y-103768506D01*
X168776401Y-103695839D01*
X168796012Y-103671942D01*
X168814870Y-103636661D01*
X169493990Y-104315782D01*
%TA.AperFunction,Conductor*%
D25*
G36*
X169493990Y-104315782D02*
G01*
X169457000Y-104501740D01*
X169457000Y-104794260D01*
X169514068Y-105081158D01*
X169626010Y-105351411D01*
X169788525Y-105594632D01*
X169995368Y-105801475D01*
X170169760Y-105918000D01*
X169995368Y-106034525D01*
X169788525Y-106241368D01*
X169626010Y-106484589D01*
X169514068Y-106754842D01*
X169457000Y-107041740D01*
X169457000Y-107277999D01*
X167981088Y-107277999D01*
X167357325Y-106654237D01*
X167310235Y-105806614D01*
X167355500Y-105811072D01*
X167544750Y-105808000D01*
X167703500Y-105649250D01*
X167703500Y-104775000D01*
X167957500Y-104775000D01*
X167957500Y-105649250D01*
X168116250Y-105808000D01*
X168305500Y-105811072D01*
X168429982Y-105798812D01*
X168549680Y-105762502D01*
X168659994Y-105703537D01*
X168756685Y-105624185D01*
X168836037Y-105527494D01*
X168895002Y-105417180D01*
X168931312Y-105297482D01*
X168943572Y-105173000D01*
X168940500Y-104933750D01*
X168781750Y-104775000D01*
X167957500Y-104775000D01*
X167703500Y-104775000D01*
X167683500Y-104775000D01*
X167683500Y-104521000D01*
X167703500Y-104521000D01*
X167703500Y-104501000D01*
X167957500Y-104501000D01*
X167957500Y-104521000D01*
X168781750Y-104521000D01*
X168940500Y-104362250D01*
X168943572Y-104123000D01*
X168931312Y-103998518D01*
X168895002Y-103878820D01*
X168836037Y-103768506D01*
X168776401Y-103695839D01*
X168796012Y-103671942D01*
X168814870Y-103636661D01*
X169493990Y-104315782D01*
G37*
%TD.AperFunction*%
D24*
X164274500Y-102833000D02*
X164294500Y-102833000D01*
X164294500Y-103087000D01*
X164274500Y-103087000D01*
X164274500Y-103107000D01*
X164020500Y-103107000D01*
X164020500Y-103087000D01*
X164000500Y-103087000D01*
X164000500Y-102833000D01*
X164020500Y-102833000D01*
X164020500Y-102813000D01*
X164274500Y-102813000D01*
X164274500Y-102833000D01*
%TA.AperFunction,Conductor*%
D25*
G36*
X164274500Y-102833000D02*
G01*
X164294500Y-102833000D01*
X164294500Y-103087000D01*
X164274500Y-103087000D01*
X164274500Y-103107000D01*
X164020500Y-103107000D01*
X164020500Y-103087000D01*
X164000500Y-103087000D01*
X164000500Y-102833000D01*
X164020500Y-102833000D01*
X164020500Y-102813000D01*
X164274500Y-102813000D01*
X164274500Y-102833000D01*
G37*
%TD.AperFunction*%
D24*
X168698458Y-101093249D02*
X168763000Y-101157791D01*
X168763000Y-101346000D01*
X168743000Y-101346000D01*
X168743000Y-101366000D01*
X168637317Y-101366000D01*
X168593247Y-101342444D01*
X168544900Y-101327778D01*
X168544900Y-101161153D01*
X168552493Y-101136122D01*
X168558809Y-101072000D01*
X168658704Y-101072000D01*
X168698458Y-101093249D01*
%TA.AperFunction,Conductor*%
D25*
G36*
X168698458Y-101093249D02*
G01*
X168763000Y-101157791D01*
X168763000Y-101346000D01*
X168743000Y-101346000D01*
X168743000Y-101366000D01*
X168637317Y-101366000D01*
X168593247Y-101342444D01*
X168544900Y-101327778D01*
X168544900Y-101161153D01*
X168552493Y-101136122D01*
X168558809Y-101072000D01*
X168658704Y-101072000D01*
X168698458Y-101093249D01*
G37*
%TD.AperFunction*%
D24*
X164716713Y-97290928D02*
X163744500Y-97290928D01*
X163620018Y-97303188D01*
X163500320Y-97339498D01*
X163390006Y-97398463D01*
X163293315Y-97477815D01*
X163213963Y-97574506D01*
X163167600Y-97661244D01*
X163167600Y-95741814D01*
X164716713Y-97290928D01*
%TA.AperFunction,Conductor*%
D25*
G36*
X164716713Y-97290928D02*
G01*
X163744500Y-97290928D01*
X163620018Y-97303188D01*
X163500320Y-97339498D01*
X163390006Y-97398463D01*
X163293315Y-97477815D01*
X163213963Y-97574506D01*
X163167600Y-97661244D01*
X163167600Y-95741814D01*
X164716713Y-97290928D01*
G37*
%TD.AperFunction*%
D24*
X168106980Y-89835647D02*
X168103303Y-89872979D01*
X168106980Y-89910312D01*
X168117106Y-90013116D01*
X168117977Y-90021964D01*
X168161433Y-90165225D01*
X168232005Y-90297255D01*
X168300797Y-90381077D01*
X168326979Y-90412980D01*
X168355977Y-90436778D01*
X169500790Y-91581592D01*
X169457000Y-91801740D01*
X169457000Y-91810010D01*
X167429500Y-91810010D01*
X167429500Y-91630500D01*
X167449500Y-91630500D01*
X167449500Y-90793750D01*
X167703500Y-90793750D01*
X167703500Y-91630500D01*
X168527750Y-91630500D01*
X168686500Y-91471750D01*
X168689572Y-91270000D01*
X168677312Y-91145518D01*
X168641002Y-91025820D01*
X168582037Y-90915506D01*
X168502685Y-90818815D01*
X168405994Y-90739463D01*
X168295680Y-90680498D01*
X168175982Y-90644188D01*
X168051500Y-90631928D01*
X167862250Y-90635000D01*
X167703500Y-90793750D01*
X167449500Y-90793750D01*
X167290750Y-90635000D01*
X167155400Y-90632803D01*
X167155400Y-87105819D01*
X167272735Y-87057217D01*
X167442253Y-86943949D01*
X167586416Y-86799786D01*
X167699684Y-86630268D01*
X167777705Y-86441910D01*
X167817479Y-86241951D01*
X167817479Y-86161414D01*
X167922680Y-86129502D01*
X168032994Y-86070537D01*
X168106979Y-86009819D01*
X168106980Y-89835647D01*
%TA.AperFunction,Conductor*%
D25*
G36*
X168106980Y-89835647D02*
G01*
X168103303Y-89872979D01*
X168106980Y-89910312D01*
X168117106Y-90013116D01*
X168117977Y-90021964D01*
X168161433Y-90165225D01*
X168232005Y-90297255D01*
X168300797Y-90381077D01*
X168326979Y-90412980D01*
X168355977Y-90436778D01*
X169500790Y-91581592D01*
X169457000Y-91801740D01*
X169457000Y-91810010D01*
X167429500Y-91810010D01*
X167429500Y-91630500D01*
X167449500Y-91630500D01*
X167449500Y-90793750D01*
X167703500Y-90793750D01*
X167703500Y-91630500D01*
X168527750Y-91630500D01*
X168686500Y-91471750D01*
X168689572Y-91270000D01*
X168677312Y-91145518D01*
X168641002Y-91025820D01*
X168582037Y-90915506D01*
X168502685Y-90818815D01*
X168405994Y-90739463D01*
X168295680Y-90680498D01*
X168175982Y-90644188D01*
X168051500Y-90631928D01*
X167862250Y-90635000D01*
X167703500Y-90793750D01*
X167449500Y-90793750D01*
X167290750Y-90635000D01*
X167155400Y-90632803D01*
X167155400Y-87105819D01*
X167272735Y-87057217D01*
X167442253Y-86943949D01*
X167586416Y-86799786D01*
X167699684Y-86630268D01*
X167777705Y-86441910D01*
X167817479Y-86241951D01*
X167817479Y-86161414D01*
X167922680Y-86129502D01*
X168032994Y-86070537D01*
X168106979Y-86009819D01*
X168106980Y-89835647D01*
G37*
%TD.AperFunction*%
D24*
X152590500Y-85963000D02*
X152610500Y-85963000D01*
X152610500Y-86217000D01*
X152590500Y-86217000D01*
X152590500Y-87566250D01*
X152749250Y-87725000D01*
X152913500Y-87728072D01*
X153037982Y-87715812D01*
X153067788Y-87706770D01*
X153098526Y-87764276D01*
X153168763Y-87849859D01*
X153193500Y-87880001D01*
X153222498Y-87903799D01*
X153293495Y-87974796D01*
X153317298Y-88003800D01*
X153433023Y-88098773D01*
X153565052Y-88169345D01*
X153708313Y-88212802D01*
X153819966Y-88223799D01*
X153819976Y-88223799D01*
X153857298Y-88227475D01*
X153894621Y-88223799D01*
X154109600Y-88223799D01*
X154120974Y-88235173D01*
X154102681Y-88262551D01*
X154024660Y-88450909D01*
X153984886Y-88650868D01*
X153984886Y-88727520D01*
X153861872Y-88727520D01*
X153661913Y-88767294D01*
X153473555Y-88845315D01*
X153304037Y-88958583D01*
X153159874Y-89102746D01*
X153046606Y-89272264D01*
X152968585Y-89460622D01*
X152928811Y-89660581D01*
X152928811Y-89864459D01*
X152968585Y-90064418D01*
X153046606Y-90252776D01*
X153093401Y-90322810D01*
X153007684Y-90331252D01*
X152843433Y-90381077D01*
X152692058Y-90461988D01*
X152575188Y-90557901D01*
X152364072Y-90557901D01*
X152364072Y-90164500D01*
X152351812Y-90040018D01*
X152315502Y-89920320D01*
X152256537Y-89810006D01*
X152177185Y-89713315D01*
X152080494Y-89633963D01*
X151970180Y-89574998D01*
X151850482Y-89538688D01*
X151726000Y-89526428D01*
X150310285Y-89526428D01*
X152047408Y-87789307D01*
X152076401Y-87765513D01*
X152100195Y-87736520D01*
X152100199Y-87736516D01*
X152108588Y-87726294D01*
X152177750Y-87725000D01*
X152336500Y-87566250D01*
X152336500Y-86217000D01*
X152316500Y-86217000D01*
X152316500Y-85963000D01*
X152336500Y-85963000D01*
X152336500Y-85943000D01*
X152590500Y-85943000D01*
X152590500Y-85963000D01*
%TA.AperFunction,Conductor*%
D25*
G36*
X152590500Y-85963000D02*
G01*
X152610500Y-85963000D01*
X152610500Y-86217000D01*
X152590500Y-86217000D01*
X152590500Y-87566250D01*
X152749250Y-87725000D01*
X152913500Y-87728072D01*
X153037982Y-87715812D01*
X153067788Y-87706770D01*
X153098526Y-87764276D01*
X153168763Y-87849859D01*
X153193500Y-87880001D01*
X153222498Y-87903799D01*
X153293495Y-87974796D01*
X153317298Y-88003800D01*
X153433023Y-88098773D01*
X153565052Y-88169345D01*
X153708313Y-88212802D01*
X153819966Y-88223799D01*
X153819976Y-88223799D01*
X153857298Y-88227475D01*
X153894621Y-88223799D01*
X154109600Y-88223799D01*
X154120974Y-88235173D01*
X154102681Y-88262551D01*
X154024660Y-88450909D01*
X153984886Y-88650868D01*
X153984886Y-88727520D01*
X153861872Y-88727520D01*
X153661913Y-88767294D01*
X153473555Y-88845315D01*
X153304037Y-88958583D01*
X153159874Y-89102746D01*
X153046606Y-89272264D01*
X152968585Y-89460622D01*
X152928811Y-89660581D01*
X152928811Y-89864459D01*
X152968585Y-90064418D01*
X153046606Y-90252776D01*
X153093401Y-90322810D01*
X153007684Y-90331252D01*
X152843433Y-90381077D01*
X152692058Y-90461988D01*
X152575188Y-90557901D01*
X152364072Y-90557901D01*
X152364072Y-90164500D01*
X152351812Y-90040018D01*
X152315502Y-89920320D01*
X152256537Y-89810006D01*
X152177185Y-89713315D01*
X152080494Y-89633963D01*
X151970180Y-89574998D01*
X151850482Y-89538688D01*
X151726000Y-89526428D01*
X150310285Y-89526428D01*
X152047408Y-87789307D01*
X152076401Y-87765513D01*
X152100195Y-87736520D01*
X152100199Y-87736516D01*
X152108588Y-87726294D01*
X152177750Y-87725000D01*
X152336500Y-87566250D01*
X152336500Y-86217000D01*
X152316500Y-86217000D01*
X152316500Y-85963000D01*
X152336500Y-85963000D01*
X152336500Y-85943000D01*
X152590500Y-85943000D01*
X152590500Y-85963000D01*
G37*
%TD.AperFunction*%
D24*
X148088998Y-85784180D02*
X148147963Y-85894494D01*
X148227315Y-85991185D01*
X148324006Y-86070537D01*
X148434320Y-86129502D01*
X148554018Y-86165812D01*
X148678500Y-86178072D01*
X150243502Y-86178072D01*
X150243502Y-86374896D01*
X148061001Y-88557398D01*
X148061001Y-85691886D01*
X148088998Y-85784180D01*
%TA.AperFunction,Conductor*%
D25*
G36*
X148088998Y-85784180D02*
G01*
X148147963Y-85894494D01*
X148227315Y-85991185D01*
X148324006Y-86070537D01*
X148434320Y-86129502D01*
X148554018Y-86165812D01*
X148678500Y-86178072D01*
X150243502Y-86178072D01*
X150243502Y-86374896D01*
X148061001Y-88557398D01*
X148061001Y-85691886D01*
X148088998Y-85784180D01*
G37*
%TD.AperFunction*%
D24*
X163239500Y-70524802D02*
X163239500Y-70586939D01*
X163279274Y-70786898D01*
X163357295Y-70975256D01*
X163470563Y-71144774D01*
X163614726Y-71288937D01*
X163784244Y-71402205D01*
X163972602Y-71480226D01*
X164172561Y-71520000D01*
X164376439Y-71520000D01*
X164576398Y-71480226D01*
X164764756Y-71402205D01*
X164934274Y-71288937D01*
X165040428Y-71182783D01*
X165040428Y-71570000D01*
X165052688Y-71694482D01*
X165071046Y-71755000D01*
X165052688Y-71815518D01*
X165040428Y-71940000D01*
X165040428Y-72840000D01*
X165052688Y-72964482D01*
X165071046Y-73025000D01*
X165052688Y-73085518D01*
X165040428Y-73210000D01*
X165040428Y-74110000D01*
X165052688Y-74234482D01*
X165071046Y-74295000D01*
X165052688Y-74355518D01*
X165040428Y-74480000D01*
X165040428Y-75380000D01*
X165045096Y-75427395D01*
X165018756Y-75409795D01*
X164830398Y-75331774D01*
X164630439Y-75292000D01*
X164426561Y-75292000D01*
X164226602Y-75331774D01*
X164038244Y-75409795D01*
X163868726Y-75523063D01*
X163724563Y-75667226D01*
X163611295Y-75836744D01*
X163533274Y-76025102D01*
X163512500Y-76129541D01*
X163491726Y-76025102D01*
X163413705Y-75836744D01*
X163300437Y-75667226D01*
X163156274Y-75523063D01*
X162986756Y-75409795D01*
X162798398Y-75331774D01*
X162598439Y-75292000D01*
X162394561Y-75292000D01*
X162194602Y-75331774D01*
X162006244Y-75409795D01*
X161836726Y-75523063D01*
X161692563Y-75667226D01*
X161579295Y-75836744D01*
X161501274Y-76025102D01*
X161461500Y-76225061D01*
X161461500Y-76428939D01*
X161501274Y-76628898D01*
X161579295Y-76817256D01*
X161692563Y-76986774D01*
X161827214Y-77121425D01*
X161755274Y-77295102D01*
X161722031Y-77462229D01*
X160763501Y-76503700D01*
X160763501Y-73357332D01*
X160767178Y-73319999D01*
X160752504Y-73171013D01*
X160709047Y-73027752D01*
X160669868Y-72954454D01*
X160638475Y-72895723D01*
X160543502Y-72779998D01*
X160514498Y-72756195D01*
X160227264Y-72468961D01*
X160203461Y-72439957D01*
X160087736Y-72344984D01*
X159955707Y-72274412D01*
X159812446Y-72230955D01*
X159700793Y-72219958D01*
X159700782Y-72219958D01*
X159663460Y-72216282D01*
X159642591Y-72218338D01*
X159600274Y-72176021D01*
X159430756Y-72062753D01*
X159242398Y-71984732D01*
X159042439Y-71944958D01*
X158838561Y-71944958D01*
X158638602Y-71984732D01*
X158450244Y-72062753D01*
X158280726Y-72176021D01*
X158136563Y-72320184D01*
X158023295Y-72489702D01*
X157945274Y-72678060D01*
X157905500Y-72878019D01*
X157905500Y-72944388D01*
X157464250Y-72945000D01*
X157305500Y-73103750D01*
X157305500Y-75953000D01*
X157325500Y-75953000D01*
X157325500Y-76207000D01*
X157305500Y-76207000D01*
X157305500Y-76227000D01*
X157051500Y-76227000D01*
X157051500Y-76207000D01*
X154202250Y-76207000D01*
X154043500Y-76365750D01*
X154040428Y-78580000D01*
X154052688Y-78704482D01*
X154088998Y-78824180D01*
X154147963Y-78934494D01*
X154183579Y-78977892D01*
X152837343Y-78977892D01*
X152793406Y-78933955D01*
X152623888Y-78820687D01*
X152435530Y-78742666D01*
X152235571Y-78702892D01*
X152031693Y-78702892D01*
X151831734Y-78742666D01*
X151763501Y-78770929D01*
X151763501Y-78228800D01*
X151868301Y-78124000D01*
X151930439Y-78124000D01*
X152130398Y-78084226D01*
X152318756Y-78006205D01*
X152488274Y-77892937D01*
X152632437Y-77748774D01*
X152745705Y-77579256D01*
X152823726Y-77390898D01*
X152863500Y-77190939D01*
X152863500Y-76987061D01*
X152823726Y-76787102D01*
X152745705Y-76598744D01*
X152632437Y-76429226D01*
X152488274Y-76285063D01*
X152318756Y-76171795D01*
X152130398Y-76093774D01*
X151930439Y-76054000D01*
X151726561Y-76054000D01*
X151526602Y-76093774D01*
X151338244Y-76171795D01*
X151316572Y-76186276D01*
X151316572Y-75750000D01*
X151304312Y-75625518D01*
X151285954Y-75565000D01*
X151304312Y-75504482D01*
X151316572Y-75380000D01*
X151316572Y-74480000D01*
X151304312Y-74355518D01*
X151285954Y-74295000D01*
X151304312Y-74234482D01*
X151316572Y-74110000D01*
X151316572Y-73580000D01*
X154040428Y-73580000D01*
X154043500Y-75794250D01*
X154202250Y-75953000D01*
X157051500Y-75953000D01*
X157051500Y-73103750D01*
X156892750Y-72945000D01*
X154678500Y-72941928D01*
X154554018Y-72954188D01*
X154434320Y-72990498D01*
X154324006Y-73049463D01*
X154227315Y-73128815D01*
X154147963Y-73225506D01*
X154088998Y-73335820D01*
X154052688Y-73455518D01*
X154040428Y-73580000D01*
X151316572Y-73580000D01*
X151316572Y-73210000D01*
X151304312Y-73085518D01*
X151285954Y-73025000D01*
X151304312Y-72964482D01*
X151316572Y-72840000D01*
X151316572Y-71940000D01*
X151310663Y-71880000D01*
X152807178Y-71880000D01*
X152844500Y-71883676D01*
X152881822Y-71880000D01*
X152881833Y-71880000D01*
X152993486Y-71869003D01*
X153136747Y-71825546D01*
X153268776Y-71754974D01*
X153384501Y-71660001D01*
X153408304Y-71630997D01*
X154471802Y-70567500D01*
X154533939Y-70567500D01*
X154733898Y-70527726D01*
X154922256Y-70449705D01*
X155091774Y-70336437D01*
X155135711Y-70292500D01*
X163007199Y-70292500D01*
X163239500Y-70524802D01*
%TA.AperFunction,Conductor*%
D25*
G36*
X163239500Y-70524802D02*
G01*
X163239500Y-70586939D01*
X163279274Y-70786898D01*
X163357295Y-70975256D01*
X163470563Y-71144774D01*
X163614726Y-71288937D01*
X163784244Y-71402205D01*
X163972602Y-71480226D01*
X164172561Y-71520000D01*
X164376439Y-71520000D01*
X164576398Y-71480226D01*
X164764756Y-71402205D01*
X164934274Y-71288937D01*
X165040428Y-71182783D01*
X165040428Y-71570000D01*
X165052688Y-71694482D01*
X165071046Y-71755000D01*
X165052688Y-71815518D01*
X165040428Y-71940000D01*
X165040428Y-72840000D01*
X165052688Y-72964482D01*
X165071046Y-73025000D01*
X165052688Y-73085518D01*
X165040428Y-73210000D01*
X165040428Y-74110000D01*
X165052688Y-74234482D01*
X165071046Y-74295000D01*
X165052688Y-74355518D01*
X165040428Y-74480000D01*
X165040428Y-75380000D01*
X165045096Y-75427395D01*
X165018756Y-75409795D01*
X164830398Y-75331774D01*
X164630439Y-75292000D01*
X164426561Y-75292000D01*
X164226602Y-75331774D01*
X164038244Y-75409795D01*
X163868726Y-75523063D01*
X163724563Y-75667226D01*
X163611295Y-75836744D01*
X163533274Y-76025102D01*
X163512500Y-76129541D01*
X163491726Y-76025102D01*
X163413705Y-75836744D01*
X163300437Y-75667226D01*
X163156274Y-75523063D01*
X162986756Y-75409795D01*
X162798398Y-75331774D01*
X162598439Y-75292000D01*
X162394561Y-75292000D01*
X162194602Y-75331774D01*
X162006244Y-75409795D01*
X161836726Y-75523063D01*
X161692563Y-75667226D01*
X161579295Y-75836744D01*
X161501274Y-76025102D01*
X161461500Y-76225061D01*
X161461500Y-76428939D01*
X161501274Y-76628898D01*
X161579295Y-76817256D01*
X161692563Y-76986774D01*
X161827214Y-77121425D01*
X161755274Y-77295102D01*
X161722031Y-77462229D01*
X160763501Y-76503700D01*
X160763501Y-73357332D01*
X160767178Y-73319999D01*
X160752504Y-73171013D01*
X160709047Y-73027752D01*
X160669868Y-72954454D01*
X160638475Y-72895723D01*
X160543502Y-72779998D01*
X160514498Y-72756195D01*
X160227264Y-72468961D01*
X160203461Y-72439957D01*
X160087736Y-72344984D01*
X159955707Y-72274412D01*
X159812446Y-72230955D01*
X159700793Y-72219958D01*
X159700782Y-72219958D01*
X159663460Y-72216282D01*
X159642591Y-72218338D01*
X159600274Y-72176021D01*
X159430756Y-72062753D01*
X159242398Y-71984732D01*
X159042439Y-71944958D01*
X158838561Y-71944958D01*
X158638602Y-71984732D01*
X158450244Y-72062753D01*
X158280726Y-72176021D01*
X158136563Y-72320184D01*
X158023295Y-72489702D01*
X157945274Y-72678060D01*
X157905500Y-72878019D01*
X157905500Y-72944388D01*
X157464250Y-72945000D01*
X157305500Y-73103750D01*
X157305500Y-75953000D01*
X157325500Y-75953000D01*
X157325500Y-76207000D01*
X157305500Y-76207000D01*
X157305500Y-76227000D01*
X157051500Y-76227000D01*
X157051500Y-76207000D01*
X154202250Y-76207000D01*
X154043500Y-76365750D01*
X154040428Y-78580000D01*
X154052688Y-78704482D01*
X154088998Y-78824180D01*
X154147963Y-78934494D01*
X154183579Y-78977892D01*
X152837343Y-78977892D01*
X152793406Y-78933955D01*
X152623888Y-78820687D01*
X152435530Y-78742666D01*
X152235571Y-78702892D01*
X152031693Y-78702892D01*
X151831734Y-78742666D01*
X151763501Y-78770929D01*
X151763501Y-78228800D01*
X151868301Y-78124000D01*
X151930439Y-78124000D01*
X152130398Y-78084226D01*
X152318756Y-78006205D01*
X152488274Y-77892937D01*
X152632437Y-77748774D01*
X152745705Y-77579256D01*
X152823726Y-77390898D01*
X152863500Y-77190939D01*
X152863500Y-76987061D01*
X152823726Y-76787102D01*
X152745705Y-76598744D01*
X152632437Y-76429226D01*
X152488274Y-76285063D01*
X152318756Y-76171795D01*
X152130398Y-76093774D01*
X151930439Y-76054000D01*
X151726561Y-76054000D01*
X151526602Y-76093774D01*
X151338244Y-76171795D01*
X151316572Y-76186276D01*
X151316572Y-75750000D01*
X151304312Y-75625518D01*
X151285954Y-75565000D01*
X151304312Y-75504482D01*
X151316572Y-75380000D01*
X151316572Y-74480000D01*
X151304312Y-74355518D01*
X151285954Y-74295000D01*
X151304312Y-74234482D01*
X151316572Y-74110000D01*
X151316572Y-73580000D01*
X154040428Y-73580000D01*
X154043500Y-75794250D01*
X154202250Y-75953000D01*
X157051500Y-75953000D01*
X157051500Y-73103750D01*
X156892750Y-72945000D01*
X154678500Y-72941928D01*
X154554018Y-72954188D01*
X154434320Y-72990498D01*
X154324006Y-73049463D01*
X154227315Y-73128815D01*
X154147963Y-73225506D01*
X154088998Y-73335820D01*
X154052688Y-73455518D01*
X154040428Y-73580000D01*
X151316572Y-73580000D01*
X151316572Y-73210000D01*
X151304312Y-73085518D01*
X151285954Y-73025000D01*
X151304312Y-72964482D01*
X151316572Y-72840000D01*
X151316572Y-71940000D01*
X151310663Y-71880000D01*
X152807178Y-71880000D01*
X152844500Y-71883676D01*
X152881822Y-71880000D01*
X152881833Y-71880000D01*
X152993486Y-71869003D01*
X153136747Y-71825546D01*
X153268776Y-71754974D01*
X153384501Y-71660001D01*
X153408304Y-71630997D01*
X154471802Y-70567500D01*
X154533939Y-70567500D01*
X154733898Y-70527726D01*
X154922256Y-70449705D01*
X155091774Y-70336437D01*
X155135711Y-70292500D01*
X163007199Y-70292500D01*
X163239500Y-70524802D01*
G37*
%TD.AperFunction*%
%TD*%
D24*
%TO.N,+3V3*%
X151591919Y-97533388D02*
X149546011Y-97590490D01*
X149546011Y-95139309D01*
X154637421Y-95107378D01*
X151591919Y-97533388D01*
%TA.AperFunction,Conductor*%
D25*
G36*
X151591919Y-97533388D02*
G01*
X149546011Y-97590490D01*
X149546011Y-95139309D01*
X154637421Y-95107378D01*
X151591919Y-97533388D01*
G37*
%TD.AperFunction*%
%TD*%
M02*
